<mxfile host="app.diagrams.net" modified="2020-10-24T23:59:14.564Z" agent="5.0 (Windows NT 10.0; Win64; x64) AppleWebKit/537.36 (KHTML, like Gecko) Chrome/83.0.4103.97 Safari/537.36" etag="ELmbVi2m559d73yo_l71" version="13.8.2" type="github">
  <diagram id="SW3cqK0dNkw9ehfFj8mH" name="Page-1">
    <mxGraphModel dx="1422" dy="762" grid="1" gridSize="10" guides="1" tooltips="1" connect="1" arrows="1" fold="1" page="1" pageScale="1" pageWidth="827" pageHeight="1169" math="0" shadow="0">
      <root>
        <mxCell id="0" />
        <mxCell id="1" parent="0" />
        <mxCell id="eew3wy5ECAB4UxySTxky-19" value="" style="edgeStyle=orthogonalEdgeStyle;rounded=0;orthogonalLoop=1;jettySize=auto;html=1;" edge="1" parent="1" source="eew3wy5ECAB4UxySTxky-1" target="eew3wy5ECAB4UxySTxky-3">
          <mxGeometry relative="1" as="geometry" />
        </mxCell>
        <mxCell id="eew3wy5ECAB4UxySTxky-1" value="Download Code From Repository" style="rounded=1;whiteSpace=wrap;html=1;" vertex="1" parent="1">
          <mxGeometry x="160" y="160" width="120" height="60" as="geometry" />
        </mxCell>
        <mxCell id="eew3wy5ECAB4UxySTxky-20" value="" style="edgeStyle=orthogonalEdgeStyle;rounded=0;orthogonalLoop=1;jettySize=auto;html=1;" edge="1" parent="1" source="eew3wy5ECAB4UxySTxky-2" target="eew3wy5ECAB4UxySTxky-1">
          <mxGeometry relative="1" as="geometry" />
        </mxCell>
        <mxCell id="eew3wy5ECAB4UxySTxky-2" value="Start" style="ellipse;whiteSpace=wrap;html=1;" vertex="1" parent="1">
          <mxGeometry x="160" y="40" width="120" height="80" as="geometry" />
        </mxCell>
        <mxCell id="eew3wy5ECAB4UxySTxky-18" value="" style="edgeStyle=orthogonalEdgeStyle;rounded=0;orthogonalLoop=1;jettySize=auto;html=1;" edge="1" parent="1" source="eew3wy5ECAB4UxySTxky-3" target="eew3wy5ECAB4UxySTxky-6">
          <mxGeometry relative="1" as="geometry" />
        </mxCell>
        <mxCell id="eew3wy5ECAB4UxySTxky-3" value="Build (Maven/Ant)" style="rounded=1;whiteSpace=wrap;html=1;" vertex="1" parent="1">
          <mxGeometry x="160" y="260" width="120" height="60" as="geometry" />
        </mxCell>
        <mxCell id="eew3wy5ECAB4UxySTxky-13" value="" style="edgeStyle=orthogonalEdgeStyle;rounded=0;orthogonalLoop=1;jettySize=auto;html=1;" edge="1" parent="1" source="eew3wy5ECAB4UxySTxky-6" target="eew3wy5ECAB4UxySTxky-8">
          <mxGeometry relative="1" as="geometry" />
        </mxCell>
        <mxCell id="eew3wy5ECAB4UxySTxky-14" value="" style="edgeStyle=orthogonalEdgeStyle;rounded=0;orthogonalLoop=1;jettySize=auto;html=1;" edge="1" parent="1" source="eew3wy5ECAB4UxySTxky-6" target="eew3wy5ECAB4UxySTxky-7">
          <mxGeometry relative="1" as="geometry" />
        </mxCell>
        <mxCell id="eew3wy5ECAB4UxySTxky-6" value="Approval" style="rhombus;whiteSpace=wrap;html=1;" vertex="1" parent="1">
          <mxGeometry x="180" y="360" width="80" height="80" as="geometry" />
        </mxCell>
        <mxCell id="eew3wy5ECAB4UxySTxky-7" value="Notify Stakeholders" style="whiteSpace=wrap;html=1;aspect=fixed;" vertex="1" parent="1">
          <mxGeometry x="60" y="360" width="80" height="80" as="geometry" />
        </mxCell>
        <mxCell id="eew3wy5ECAB4UxySTxky-15" value="" style="edgeStyle=orthogonalEdgeStyle;rounded=0;orthogonalLoop=1;jettySize=auto;html=1;" edge="1" parent="1" source="eew3wy5ECAB4UxySTxky-8" target="eew3wy5ECAB4UxySTxky-12">
          <mxGeometry relative="1" as="geometry" />
        </mxCell>
        <mxCell id="eew3wy5ECAB4UxySTxky-8" value="Deployment" style="whiteSpace=wrap;html=1;aspect=fixed;" vertex="1" parent="1">
          <mxGeometry x="310" y="360" width="80" height="80" as="geometry" />
        </mxCell>
        <mxCell id="eew3wy5ECAB4UxySTxky-17" value="" style="edgeStyle=orthogonalEdgeStyle;rounded=0;orthogonalLoop=1;jettySize=auto;html=1;" edge="1" parent="1" source="eew3wy5ECAB4UxySTxky-9" target="eew3wy5ECAB4UxySTxky-10">
          <mxGeometry relative="1" as="geometry" />
        </mxCell>
        <mxCell id="eew3wy5ECAB4UxySTxky-9" value="Healthcheck" style="whiteSpace=wrap;html=1;aspect=fixed;" vertex="1" parent="1">
          <mxGeometry x="520" y="360" width="80" height="80" as="geometry" />
        </mxCell>
        <mxCell id="eew3wy5ECAB4UxySTxky-10" value="Notify Stakeholders" style="whiteSpace=wrap;html=1;aspect=fixed;" vertex="1" parent="1">
          <mxGeometry x="620" y="360" width="80" height="80" as="geometry" />
        </mxCell>
        <mxCell id="eew3wy5ECAB4UxySTxky-16" value="" style="edgeStyle=orthogonalEdgeStyle;rounded=0;orthogonalLoop=1;jettySize=auto;html=1;" edge="1" parent="1" source="eew3wy5ECAB4UxySTxky-12" target="eew3wy5ECAB4UxySTxky-9">
          <mxGeometry relative="1" as="geometry" />
        </mxCell>
        <mxCell id="eew3wy5ECAB4UxySTxky-12" value="Acceptance Testing" style="whiteSpace=wrap;html=1;aspect=fixed;" vertex="1" parent="1">
          <mxGeometry x="414" y="360" width="80" height="80" as="geometry" />
        </mxCell>
        <mxCell id="eew3wy5ECAB4UxySTxky-21" value="" style="shape=image;verticalLabelPosition=bottom;labelBackgroundColor=#ffffff;verticalAlign=top;aspect=fixed;imageAspect=0;image=data:image/png,iVBORw0KGgoAAAANSUhEUgAAAI8AAABOCAYAAAAZ10WCAAARDElEQVR4Ae2dZ1hUVxrH77fdPMluiptkk429gKiIFCWgBAsMbdBFIWKlShtFrKgsNoxhSWIsa6JREze6EWOLSkTsG40tajTGTSyxRb0zFBkQ/fjf5z3jmcadwjiUgfvhPOeWc8495Xf/5z3lzghPnjyB7OQ6cIQBwZFIchwZNmJAhkdWXod7HhkeGR4ZHrkrbfquVFYeWXlk5ZGVR1Yeh98CGR4ZHhkeF+pGZZvHhRqrpamrDI8Mj8NqL8MjwyPD09IkvS3kR1YeWXlk5WkLb3pLK6OsPM2sPHV1daisrGSupcFhKz8tDp66u7egPVKKmmNlePjwocOSaqvgLeH+9i0bMXVCPKZMGMXc+/mTcP36dZcpc4uCp/bHs6iYEQdNejTKM4ZDXJiJxxq1y1RmQ4As3bMNUQEe8OskYEBXnQv2+gOSoqJc5qVpMfDUXvwB5ZlREBXdIEb10blwd1Tkp7VKgGKC+2JANwHveBpckKcAz1cEnDh20CVemBYBDwNHpdSBE90PIndKL4gE0IL0VgUQ2TnufzJAYwyQb2cB61d/IMNjj4zXnj2Jcilw6gGUgbr7v7tEpdoq9+PHj+HxogV4Ogr4cv1Kq+U8fqwMWQkJmJ2awPydWzdZDW8rP47eb3blebhxNcSBLxvUhkNj7HMFyk9rNQBljlPCr4spQIP6CPB4QcCP589ahWFZYT56vibAr6MA91cFfLBkjtXwjsJhK16zw1N78SzKcxMhDutkH0Dz01D3wPUV6MIPpxAb5s1sHJ8OArzfEuDvJqBgRja0Wq1VGCbG+COgpw48v64CVhQtsBreFgSO3m8WeGrPnUL1ti/1Ba796QIq5iTZD9CCjFYB0NGDe7GmqAgr/7kIKwsXoXjjCty5/Zu+XqQa9cGDB+jf6Y8g45pspTYFT+1P51GepYQ6fiCqtxsAenT5AipynwKk7AuRnHHXxY+pCwtzR8XCTNQ9uGe1oqUqv6Vdq6mpQXl5OXP25G31xwXo95ahu2sz8NSeP43y7BiIoV0hRvSEetxgVO8wGHuPSIFyE6GOfRvq+GCIIZ2lIWIAuaFiUVarAMgeaGiEtmvbZoQP6ICBvdoYPAwcVTTE0C4GRYnqA/W4IajesVmvII9+Og9tyVZoS3fi4foiBpKkCnGAFquaDKDbt2/jh9MncPL4YRzav5v5dP7rL5dRVVVl1fHZcvIpvjVH6XGgKP29O4vx3rw0xCr6IMDNAA51W4EeAhJH9ceqD/JM3PLC6Sj+8lN9Ojw9Z/pNYvPowBluCg7vhqJ6Qz1+CKp3/qdeQR9XVaK6eB1ERXcDcDwe+U8BqixoPIAIipJdW7F4ZhampcYjPT4EKaOCMX74AKSODmbnUxKHY54qxaKbnpKC0r3bWflo+SFuWDBLg9IxdxOjg7Hu6TwPqc2Y8BCMjuiLt90FE8Uxnhsi+2eoz4smLsjzOWRPGlmvTl0KntoLZ1A+eYQ0OByEiF7QqOIlC0oAqeODpLsvY4CWTEad6Fwb6NyZ7zE3IxWjI73Qv6vAHL355OiNJ0fH/t0F+HW27Hq1E7BudREr3+lTx+H2oi4eT8vY924vYOEcFQv76NEjFpa6KW4gG0NjfEz3jd2A7oJrw8PAmfJ36+AwADyhyRwlCQ+9KRrVuxCVntLqYwzQe9moE+9bTKchb935syeREKmAb3sBgUY2BjUYzccE9tQ54wY0P6YwpBh92gnYtGEVy9fu7ZvR7XnLcanRF8/L1sNDYTm45unzc3oOD8P9vm8IyEpQOqUuLNVbo3VbtMhZPoWMYyMbhyuNuU/dT6w/HpdrJAtb8f4c+4bxYW6odAJA1dXVSB2pgPebpvYFQePbUUBE4OuYEBOAuHBPBhEBwhuS+8N8n0fmBAUyxiugGhuDQ2UlrGyXLpxFfk4Oi0+NzsNz3xyeOVlpWDhL56SeQ2lQPngY7s+floa1q5ZK1qclGBp6vVHgYeBkj9SNlsxBsXQe5oaq9ctADWdeCKZg08ZADLEBIreB3s95JgU6fuwAvCTAGer9PIoW5mL7lrU4emgfykq24YtPlyJh5CDWdXEAyA9wew5l+77B6ZPHcPH8Gdy/b1DE33//ncUf4t2OqZhxPGN4aBnj1s1reufbqT5s/bsJWDxXpQ9jHJ6OzevSmedOh4eBM3VUw8AhoKjhRw6AeqNO3qmQdUYTZszobghAZAPdv+tQ5c3JHsO6G+NGpVngTz9eAI2mvjr+9/B+hPq+ZgKCTyeDnWOpwaKCumJgb1MgjOExj+fT3jQs5a/VzPOw1fGc2IaDw9UowgOaDMMIoXrXFmj3btUDwADKidcpUGQviOR4XGOfQAztgsolKocUKMijnYmBSt3VoF6vSILDG3j+rGS2vMCBI2N6mGdnSSXlcWR4nm7j1IET5zg4TH08oZkyRg9L1WfLoB7tD+3+XfprtedOo3zaGGjSlMyJYW7SIzECKKQLKpdmN3gx1f0F0zec1GGMsr8+D7zxjf3iTWth3q30/LOAGzduWIwnw/PkCWovnUP5tHchhthY3DRWB6ljpRk8n6+COPhNqBNDoS37Rt8IpEA1R0uZU68thHq0haG8HqApqBMf6OMbN7rUsRQ8o5W+VuN/vmZZPXh6txNw5coVi/HaPDzUKOXTnQCOlPIQPDRBGO6uA+jgnnoNQSvQD/+zxrLiPQWoarn9K88h3h1N7BeaPwl0fwnXr/2v3vMJPpo1ToodpF/p5l0XKc/du5btrjYPT82JIxCDXpW2PaTUxdo1KeXhs8shnVGxZKZk4z2urGBrZZLLGAxK6sI6272MsWhORr0tojQJODtrLC5eOMNgodlfGhnS+bL3c+oZ2GQnDfXsYHV7hQzPkdKmgUfR3SI89PaLMf2tTyQGvoS6G1cl4TPvumg9iWAhALiKkE97jrOTorF07jR8tCgXhfOms3OyicxngL3eELC8KM/q89o8PHV3bkE9cTCY4WpNVey5Z015IntBnRwuOXqhPFg0nOm5oV2hUY3A44pyq43JISJVKZibDloqMAfo7R66iUKCiyYM6dw8DF0fNXgAblz/xerz2jw8VOHaQyWsYck2kRw62wMOhbEGD91X9IBmy3pQN6Vv6Lu3UFWUy+5JPpvAyYxGzZkT+jg8rjWfJvJIYZTvtK+nKsZqxI9JeWh3X7/XBUyKDcfB0t02nyfD83Sorj20F+rkMGbcSjaiPQDZgkfZl42sqlb8g622V2/6Fyr/ORNihIf0cJ3AyYhGzfdHbTakFEhXr16F8p0OemVhC6E9DcrDF0O9/yZgmO/LSI4LwuKcHLZtQyo982vOgIdmmIsKch0qn3l+Gnru1Blm7cE9UCc9A0C24GHq1JdNAKr/7qcDxtI8T2g3aDKUqPn+iEMVe/PGVeRNztLPAJOqxEd5Y0XhbCyZnY15U1KYWzA9E0tmTMWGTwrx3ZH9Dfpgr6HwmM8jkerReldSXIBDZWwoLObhnQoPJa49QAApHFOgsB7QzEjUV0QVDdWHtJfuCi1tUyXACJx0JWpOHNanZV5wa+f37t1DbkYi+r2ps2d4l1S6R7cnh4bmNAQnJ4qipB1mLX1+r6HwhPiaznwTPGRvkSLuKN6AyxfPgaAn/+jBb/H5JwsdKj/Pny3f6fDQA7Vlu6FObCBAkb1ZHO3er/UFrjn9HdQTh0CM7C0NkFRXqOgGTdYI1Bw/pE/HViWY3y9aPAVefzWMtLhBvHHNYny9+RPs2bEZhw+U4NihfTh14gguXjiLy5fO4+ZvV6FWW/88mualCDoKP8zvFX2XyG0nUpKc9HdBAPPdhzx/WQmR9eaSKB7BEx3cETPSYpE/LZn5E2MC2afM1uaZeLqO+o0CD2WGZoRpZthuI1rR3WQWmReI0rG4k9AcHgbOcNSc+q/D4NDCp0/H+iMoaiRSoIjA1zAy1A3jR/gjYeRApI0NQU5KDGakxyJ/egoK82Zi3fIClO7Zipu/1V/VpkXU/MmTWXgOJQeHfLoWHdwJBbnZWJKXZ5LG5o2fwbOdAWrzeG931+3rIZ+A6vtXAd/sKHa4LngbWPIbDR4G0P5d0KRG2gZI6QX1hGEWC0n32Kq7OSzG5wQOjaqeARzK87Vr1+D2nOUGosYlR41DLsBdt5OQdhPSRixafafj2DBP/CM7FSW7vjIpF31j1ftFXRjjxjc+pvTJvun4ggD6OpQ33q1btxDt7wNaXTefVzKOz7pZD90mNNquweM7229UeCizNYe/tQ0QGcqqOIuF1GSPsz4ByME5ecxiGvZWHNkwQzw6I8BDGiDjRrJ2TGBRIyuD3NieHv58god2FtLWC1uux59N4aE09u3ZhuQR4Rjc7znWLfXvYkiHjslFDfob0scOxazkZGzbsuGZ64Tn3dxvdHjogTQPpEmJgBjeU9p2IeN3eD/U3au/DkTXxFEDpIfipDyK7rpR1UnHhuPmFULnX21cjaiBnUzebnqbubMGjfk9UqNJoxX6Bty9sxhZcTGsq6PuzppLi4vBT5fO6+PyvNIW2dUfzkF+dhpmpo/XpzFXlYQls1X497qPcPr7o8yY53Eaw28SeCjjOoDCLQMU1gNVKxbg0fVfQTvoyNExXRPDekhDx8FxcB7HUoXevnkdynfc9cYsqYjC/xX2ttOQnTasExQ0z0M+KQhds9SV9HlV0O8FImW7+uvPdjv6esNSPunenTt39GlR2jQ7bim8s683GTyUce3BvdAkWwEoohcq38tB1eaVzNGxGGFhwxeBkx4FWph1ZqXQYuf8qZlshx6pCH25EKvwxGcrF2Nl0SwULVBh6dxM5E+dhLzJqZg+aQyyk0YgIz6UASYFUK+XrW/NcGb+mzKtJoWHAXRgDzRsJtpCF0YqQ1+KkrOmOGnOB4fy993RA8wm4d0PrW99/dUXJoDyFXV68+lDwKu/XAZ9pvPR0llMjXhc7hM8P//8s0kaTdnIjfWsJodHB9BuaGgiMcICQMajKPNjrjjHHZsAtFWRBXmTQVP+vOFpQ5e9cyUXfzyHPq8Z4lIapESerwugHyiw9WxXu98s8DCAyhwAiMBJi3R4ycGexpmpGs9sGA4PKc/naz5iv15BdphUGtTV/XLlEgrnq+r95o5/DwHjov0k40ml5UrXmg0eqiTt/m90E4n2KBAtXaRFON3GMW+s5UUL4N3BoB405xLS/y9YmjcZ//70Y+wsXotdX3+Bkp1fMn/rpuVYu6wQ87In1NsQRvaSfzcBZd/ulOExr2hnnNsFEIEzicBpnK7KuBxnTx/HMK/2IMXg6kMA0a940QTgUJ8XGEyRA99gPm0EYz/MZNTVUVdF8Yf5vISCuROadARkXJbGPm5W5eGF05bugjohRLe1wtzGIXBSw59prYo/x17/i7UfIk7hwwAgCGiozr8XJ5DMHcFC9ykc7TYkoMZHB2L1h/Nc8se57a2nFgEPZZZ+UoUBRCMs2rROTtEVmtSwJgWHVxx1NXnZCcgcG4ExSm8ogzpjsNcf2XIE/RYgOd+3dMsTdJ3uJ44MQNa4EXgvLwknjh1olV0Vrx/yWww8DKB9O6BJUUAc4QMxxo/9SmrNd833m8Q0JP/flYvYX7IDmzasQNEiFebn6H6FlH6JdGZCAjun63Sf1qGsfadlXPGt4bhFwUMVSrBUrSpA1SdLQR8StoZKbq1laHHwtNaKbo3lkuFp5n+9cWWoZHhkeBw2DWR4ZHhkeFxZ/l0177LyyMojK4+rvr2unG9ZeWTlkZXHld9gV827rDyy8sjK46pvryvnW1YeWXlk5XHlN9hV8y4rj6w8svK46tvryvmWlUdWHll5XPkNdtW8y8ojK4/DyvN/Wx+trHl1pbIAAAAASUVORK5CYII=;" vertex="1" parent="1">
          <mxGeometry x="80" y="170.5" width="71.5" height="39" as="geometry" />
        </mxCell>
        <mxCell id="eew3wy5ECAB4UxySTxky-22" value="" style="shape=image;verticalLabelPosition=bottom;labelBackgroundColor=#ffffff;verticalAlign=top;aspect=fixed;imageAspect=0;image=data:image/png,iVBORw0KGgoAAAANSUhEUgAAANkAAABjCAYAAAAW76VlAAAgAElEQVR4Ae2dd5gVRfb3fTa5edddd3VXdzGsqIAoEkyoKEEUUKKKEkwgIlFFDJgVA6IoBgwggkoQUUBEJYOCAyJJYJAchAEGmGHm3vvneZ9P3TmXpu3u6ul7r79X6T/6qe6+XVWnTp1vnVOnTtU9IpVKSXzFPIhlIH8ycETM3PwxN+ZtzFtkIAZZrMljSybPMhCDLM8MjrVZrM1ikMUgizVZnmUgBlmeGRxrsliTxSCLQRZrsjzLQAyyPDM41mSxJotBFoMs1mR5loEYZHlmcKzJYk0WgywGWazJ8iwDMcjyzOBYk8WaLAZZDLJYk+VZBmKQ5ZnBsSaLNVkMshhksSbLswzkBWSJREI2b94sK1asCHWtW7dOyJOLUV/L2bdvnxQWFoaqHzqhV/Pmgo64jFiDqQzkBWQFBQXSuXNnueyyy0JdzZs3F/IoUdmkyWRSysrKZPjw4XLFFVeEqh86e/ToITt37swJDdnQH+f9+YEz5yBDwG+99Vb5/e9/L0cccUTo64477siZgC9cuFCqVasWum7oPOqoo2Tp0qU5oyEGy88PLFH7NOcg2717t/zzn/+slIAj5BdccIHRQFEbovkA+QMPPFDp+n/961/LkiVLYpDleX6i/XQ4pTkH2cqVKyst4IDs1FNPle+//z5rId+4caOccsoplabh+OOPl7Vr12Zd/+EkPHFbw2nrnIPso48+qrSAA7JjjjlG1qxZk7WQjxw5MlL95513Xjwni7VY1vLnNfDkHGQvvfRSJCE/8sgjZfHixZEaqV7B/fv3y1VXXRWp/quvvjon5qoXk+N34Ub8nyufcg6ye++9N5KQo81mzZoVCWR4FOkgPJR///vfI9WfS8fLz1VY4nZFGyxyCjI0yg033BBJyAHZ5MmTI4GMzqfuJ598MnLdQ4YMiVx3LHzRhO9w4VtOQKbmGp7FRo0aRRZ05lPKeC1Tn20pTpMzzzwzct3MJW11/Ni/w4PyVIkkU+WSTKXMlUruyymdlK3tSteRrkvfxWn2A0hOQKbm2nfffScnnnhiZEF/6qmnDnZ4hQkYtpPRgr/85S8j171s2bJM3WHrzOd3CHwimZTy1AFJJMokmdyXBluyNKd0JhwgS1BnqlzKE4k4+iWHTqCcgEyFDcfFb3/728iC3q1bt0idW1paahbAMTmjXCycb9u2LafCqzyJmgIyI+wVYEsm90oqkXstc1B7HdSWieQB4YpKe5zvUO2XU5B99tlnkYRcgdG0aVM5cKDynYvr/z//+U/kuk8//XQpLi7+/06oyssR/PSVShZLojxhnnMpxJikyVSplKcqNGUqJSWpMvMul/UczmXlFGRR3fcKMkKhogj7K6+8Ehlg1N22bVtBoHMhCJWdS/rViYbZnywXwFWycb4ULRktJeu/MM/85pevsu+TZUljjmKWpipMxdJU0piNlS0r6Ptc8SWojii/RaHLKw/vvN5DU05BRpCtAiZK+te//rXSZtuuXbukSZMmWdV7//33505oKzmX9BMM5kd7mC/tXiM7JveS7W82li3jO0vphtlpB0iOgJZMlJu5H/WlkvsluXu9lJfuyLnG1Hm7X3v/r95HocsrD+/0vRtsOQXZ5ZdfnpWw/+pXvxLCsirD8JkzZwrgjAJqzfPqq69Wqk4v+mAsUfzffvutCTRmzY6AYy623GzatElYLHfmdXfGIb8Zsy0piY3TZfvw+rJrcFX5/sUTpeij7pIq3miARv6Dc6oK76MFfOnvD2pCTEUAlkzul8TWWbJ71mNSVDBcUsXrKspOL4+o9tTUSav7XrcZwQO9li9fbngQ1GZ3Oc7nqPncZdBH9Af9on20YcMGYV7v/NZ5z/cff/yxTJ061aT0MXk///zzjPYiKH3GjBkmoEHBpmXkDGQQSfyhCm7UdO7cub6NVaI1hfF33XVX1nV+8MEH1jq1kzWFBu4BzyeffCJvvfWWPPbYY9K1a1dp3769XHnllcYM5f62226T++67T15++WWhLgSOQGZnZzjLpWyEGeHfv3yM7Hz1dAOyPUOPl21Dz5SS5e9XeBox6/g2DRSjjXxApuDgG+d3eBMBWOnGObJ76m1SNKymbB/VUkqXvme+M9/jCKkoV8vRPtCU9iCMCOJzzz1n2gwP2G5Eyvrp3XffLaNHjzYC6hZqd/u1XE3hlX5DiqOK+rhWrVplUt45v9G8vOO7d9991/QR/aF9RNqnTx9hygFI3AMhZUycOFFQIOeff760adNGJkyYYNpz0UUXmekNwMWfQFle052cgQxh+9Of/pS1wNMAZY5fqoyMGgzsHAD+/Oc/y4IFC6x16pyNzkZA6FjW9fCIsoMA58lxxx0nf/nLX4yHFa3MhbeVd//617/kf//7n9SuXdt0FPNXOp420h4n4LTdCHZxwQjZOfQE2TvkvybdNaSGbP3wXkmUbjf5+AaQIfx+AOC9EyT6LU4V3ie2zZbdE7vJzpdqCUAuermGFE3sZcBnvkmUZfJnaKvYZAvtaILXX39dOnToYATxhBNOMG2m/fCaFNlgd0aNGjWE/YMvvviiyRfUfq3L+Q31ISMMZtR30003mb2LpFxoGL5XfgKAcePGybXXXis1a9b8QR/RP0QJEVTeoEEDIShh+/btGXmgPnZnUDb9+Oyzz8rs2bNNrC1tw+nGwMJ9s2bNpKSkJJNX6c8ZyL788susAQahb7zxxg+IVGI1VQYyKpInm6tq1apmV7SW7ZdqnXQAnUasI8CKumSBIHbs2NEIhZbtrhsX/p4Fwwy4EP49L1WXvUNqyernWkhia0FmLuVc63KXwbMBkgFheRrQGdCVS7J4oxRN6yV7Xz41A+Q9Q4+TbcNaSKJkcxrAaBGXhoRmBGrevHly4403GiFVUIXpD9p/++23C+uTfu13tkUHOQZWBirq4oL/elEv1oTmY1cFz2eddVZoGYGuAQMGCHN9yjEe3mRSXnvtNTnjjDNkz549smjRIrP/EHCi5Xr37m2AikbUup1pzkA2fvz40A0J6oRnnnnGk1An0dzv3btX2rVrl3WdF198sefoo/Uxkun96tWrhdjMOnXqZF0vPEBIWrRo4TkPNdoneUCK5w6WoiEnS9HLNaX4lXry/aPVpHBATTnwzQcZ8LgBoPRqmtZcLAWUZoAJgFPFm2TvzKGy9eU6RoMBZLRmydBjZOsLl0h5caHJQzmGnoo5IM8I4dtvv212nlcGXM6+R7thfmE+K61+qQJxypQpgbzHsqAM5va33HKL/Pvf/w783kmP3qNxsVLoe6330UcfNX1F2R9++KHUrVvXaK6WLVsaLYkc+cluzkCG+lcis0n79+9vZTgNZTRhe0w2dZG3U6dOGUa6O9jJZEbF7t27Rw5ADqKzb9++PwA6wAEURVMel93P1pD9b14m2wbXky13nWKu4plvGJCpyadAcrfh4DNLFBXmISN0yQ7ZPWeErH+yqewaUl2KhlWr0JjHSfGQKrJlWGMDMtbMKANeMKpDFwAbOnSoMb+C2hX2ty5dukhRUVGofh88eHBgnzP/Y70WgP3ud78L/DaIvlq1ah1izjLfQmPBC+ZvmJ9sDqYOtGXDhg3NnO8gvw86l3ICMjqAKPYgovktzIh38803h2L2448/HlgfmzCPPfbYwG+giRHKizG8UxOFuEhMm2y9mH78YbTF3HbSAWjKykpkyzv3y86HqkvJa62kcEAt+b7nqelr/MCKherSg5EhjhApZ1ncmwGjAmQAc/+yT+S7p1vL+juqS9kbDaXotXpGYwIwPJnb37tWkqVbzDKCAoxRvXjvXnn++edz4uRSfsBX5nTU46Zbn/mNC5NM83ml8BKHBHNtr98r8w5NTf14S+vVqyfqhQZc/fr1M+fInHzyyTJ9+nQ57bTTfOf2OQEZRGD22BrAPMYm+JTj9jwpozVF6LHLg+qDCUywg77ht3feece3YxEqvGY4KXLh1AmihbhNt5CVlxXLprfuNqDaM7itFPY9W3bcfqq5Ng/raxamjXeQBeXMPOvgCKr8IiUOEq3Ed+VbC2Xj0B4GYJt61zQARktue/oMozVJd016SAjlYmFa5yX0Cx66bOJT/XiAUyJoZzp9gZyhqfzKyPV7NCx9gseRtVQ9ngIe4FHmmQFn69atggWGk8XJc73PCcgoHAdCUCMZrfD8MMoEfceIYTMdmGwGmQIsJWCTY58H1cVvTNyVGV4pNOMRs5VD+xAU2sdOBGx0BoKjjz7ampeyER7mmUoDmiyVKJJNw/rKhpuryu5B18i6XnXNPc/rn+kiJfuL0iZjIj1nMnlcDgotjzlYSYo5xn7ZMeY5WXlrHVnf9RTZNqCJbHmsgWy67wzZ8GANM+db8+g5sn/huMyCtIKfdSHb4GbjU9DvnDCm9HqlOJ3yAXA/mmgrjg7av2XLlszgj3zSVww63DMQ8zvfKa+c9OcEZJybGCT0NAKhgxhGB79G8Z4YRJYDnERyrxNQYhvxZgWVwahCY6+//vrA76BZ3eiUr3Vo3YzgzMOC6uI3QN2rVy957733zHwAFy8CyWCAGR0mrhLh2bFjR6bdaBxAtvnFHrLq+lMMyNZ0rWPueV5+zzVmblSSSqbd95ZIExPJn0jJ3m9my5pel5py1netZ8pdf2d12d6rqmzte4ps6ldF1j17pSTWLjhkSYA+ady4sZUXDDbnnHOOsWzYpc46WfXq1a354CNOEC8XuPYHfRVmyuHuL5ZWoIF+ssmpMy8mJ+Bxyp/SorLilpu8gYwFZCdxXvd45SAQ9er1u76DCXjxtDGaKvFoKOZb+r07xRnyxRdfGBOHyaj7d+cz61a6JkL5WofWiXvZZt7SedjqbPNhENG8mvL+nnvuCaQDmjiSTmkhrwFZslg2vXiXrLr6VNk18FpZ2aG2uee5oFdL2bd7izEBU4l0xD6ODa3XmaLhStkys3m9FD7U1ZSxtH012XFPS9l0VxMDMOZ6mKJb7qgiuyY+IsmizcbEpBwEP8yG2AsvvNCYTezNwwJgVwZzTRbqAZwNIGj9IE/j/PnzrXx01kHfXHfddTJw4EAzf6KfGDTPPvtsazkqJ+vXrzc8dcuGPnvJjZP33OdEk6HmlSi/VCeRNhcs+b/++mtPYYFgWxAybn1sd+xk1rH86OE9MY9+IycjFAuPQfnpUKI4MB10ZHMzmGcGBhYyg8piwu4GGd7FDS8MkGXNT5Oih9vLsvZ1ZHXLauYZkJVvWZNex0qkQcn3XvUD2D0HSmTbqBdl8ZU1Tf7C2xuZMr+9uqZsvLmqbOpT04Bsw73nSGnhdGMqqiCxWM8EP4h+BjRCj2iD5oMW+AKP8QZziGxQGfwWZDICVlt+Bdkll1wiI0aMMAM2Jh0yQT+xzobFEdbs9BrwvXgc9C4nIAtzziETRQhhhLMxihV0L6Jhli0YeMyYMZl6bB4mtyfTCRTqwsQNopWO5DtoVU+kF91oOFzCQWVh/2tZlAEwFGSLLqsqO+5tJV+3q2sAwvPq7m1k8wcTzb4vTEYcG357wPitaPHXsqhjcyHv1y3qGoCt69HUgBbNWNglDbbNr/eS8tKdGVMRweQ06CDa69evL8SQqiZ38tEJOGTAtm6lbnIvPoaRM+gkAgePn98AyntCvILapL9xhLsXLZV5lxOQ2ToBYf/qq68MsZgD2gC/VF2l7obQkUHAwfGABiPfp59+aq2HlX1nHQiECgierqBTkJl7sACv+Z3CpO+0LFJMKb/28r5169aHCAUmnhNkhbc0kMIOjQ1Iljc+WzZc3ULm90ivr+HQMBs8M4vFabNRHSHlO3ZI4f0D5etG58nCJjVk2U1tZeed18ryNmcakK1ud5qZo63p2UBKvpqUBnjFHI/5ZRDPCRdjcdbZfue98oIUbXLNNdcE8qFVq1a+ewptcgYfmUoQH+pHg9KDGRvULu0rwuc0T9Q0a5AxKhDzpUR5pdjG/KEDRKKubaYTI5a7QQiqLRgY21uZS+iTFy3Od16miWokzB60JiYnFwDWC63DArKfy1ZpV1oIGrUduHrnnXdmaNf8rGdtfuNJA6wlbS+U77t3NCApbNhAltS+UGZd1UFKtm5NR2NUgCINznJhnoY2pD2bJ34oC+o2l9WNLpWCZvXlu763yKp2TYxWxPxEk5k52vhnJFm0KZ2vwnVNMK2TZ+57NA/gUZptqW3vH04Tp0bX8nCj2+bY0MY6mleQrpajKX1nm05QHk49zRM1zRpkaA6b94wIZTUlaBwxYO7Ocj67zTgaB0iDBPVvf/ubMUWVETYHC/V5RfwrMKCXURytysV8QC8A7OUB1brdKY6YIK0ILUQyuPMBmG1jRsjSJrVlaevLZFuv22VRo/Nlae0LZMEJdWTmOa2lZHF6/grdqjkpJ1kBsn3frZP57brI3Cp1ZWXDplLYub18d9M1srDxGWmt2Pw0Wd66pizv10aSO5YZBwl5qZstHUF9i9eOuZapz+LdVNqwRpx97b5n7ufFW4KQbf9vgAyw5cTNR69nlAPLRe76nc+sjapl5FVG2HdZgwybVSebTgKd94yGShCjnu1EK9aMtFM0H5NVZ5nue9y/OqKS17aB9I9//KPxCGr5XilAY1Tkomy9bIvlzrIYVGy00BaCnZ35uEfQt44dL0vqXCjLml0h23vcLQW1LzIAA2SfVmksxXPmme9oswGacf2ntVjpgQOyZshrMqfKeSbP0sZtZWvP3rK8RZO02di4lixrXEu+ufkKKZr2jtm0WULURVl6QdvmZMLEVZ7r4ORugz7r74DS3XfOZ7zDXs4G5vI2C4glBvrKLTtKgzMNAzJAzTqZM1+U+6xBNmfOnECmwUDnKVQwG7eqk7Hueyau2nk0ivugYGBAjnZRBrCWZnOQYCp4mSVaRrYpZhqmMTF+tsk+7ffSqtAAyOadUFcKajWUrV36y8wq9Q4BWdHUaRnzDlAa139ZGqDFa9fKrItame8po/CaHrLp1t5Go6ERMR+/vaKhfNWlsyQKV6TBihZjSaC83LouxmK/s59sPKPMUaNGBfY9Gt/L2TBt2rTAfPDw4YcfNjKggA6iB7pt0fkM9mqBBZVl+y1rkOGad4PE/Tx27NgMACCI+Yz7G+cz0SO6CMj3mABBkRPMlZynTTGa/fe//w2sg/AtRjMbg2y/M2pyIUBoLfYX4fJmzxPttEXC0G60KoD0qqto0ucGWJh76zv1kgU1G2RA9lmVS2XL2+8aYBnz0HgYk3IgkZRkUZGsffaVDCi/rNXUgPSbS9vJ12dfarQjGnJx/YtlTqdbJbFtuymHMC2Ayvoe5pezX9z37EZgXouTKcwFT2wRP9TxzTff/IAXYdz3kyZNMvnCaDIW/m3LEnggvfqksu+yAhmNIabLzXz3M6reSRhRy+5vnM+YBbooSR04NJy/u++de4ioB4Hlr5Dc3zmficQIM+I56eYeMAFOHCOMuGgg1v4wZwcNGmQiPwAwLnvbPEzpIRLBvSMXrcS1b3aBzKgw9wDZ8ktaZEA2o8oFsnnYW+bQGw7EgTZOtNqfSkjxvHky+9wWBmSqxda0usHMzTA19eK3FQMHGWDqMgD1AgilLyiFdiyPMJdtGYN6ODtTYwSdvLfJGfMn9QSG6Ve+te3ieOGFFw6RWyc9lbnPCmR0KiH/QZ3Ahjr3KG2z9SlPzSdGnHPPPde3DjScLg9ow8NEBmDG6fd+qXNERDvi1gdQLEATusXOXJw67C1C2HRndBA/vH6jDLdgqOm3v2CRfF7lEgMKQLa0UVtjPhrHR5V68u3AwVJSus+48HHjG6dFIiUrnhic0YBfnNVUdnR/UArObpgBF/kB2Mxzmsuu6TNMtL2ClJTjErxozfc7NkIqWLRf6AdOFAuqGwDrRkvNF5QyzbENgs4lmqCybL9lBTIcAIxgQY1HJbvnPqxjBOXhN6IHIN623sWmOffklMh6W/nvv/++FWQIPhqGiA12xvIPogCeEdCmKW31O3/3W4A1LvhVq2TuWVcZcKxu102WXN4po42Yn81pfqPsLlxbYeql52T7Vq6WT89tfVCLXd1D1nXok8mnWuyLsy6T5Y8PlvLt29NbWjjXMZEyzgPbsoyT/lzeM1d2D8rImW3+xPEAlZk/2TYZoxwYrG0ACvN7ViDDvWmza9lu4vbGhYn6ACiYZezjCupEDddyNhazLSgPJkkYBrKlBocKGztt7Qyqz/bbsGHDPDsTkJVu2iQFV3RKa6BzWsrKVl2MBjJaqEo9YV5W9OEUY1ryPSBZOfA5mXp0PQMygIQWW3jOQTMTkM094VxZdE03KV1VaLazmDMey9IgRcij/juOra2234ke4T8VnP1JP9j+vZXYSmce271tvY5FdpYNbOWE+T0rkGGm/eEPfwgU6J49e/6AUNZBbPmIaieKPSgYGBNNF7m1sZgW1BnUmUzo/RioJiKOFMCaz60dSqNfGBmgQZPOb9/NAGt6lYtk8839zBwNLcZcjXnZ6udfMjw2mm/DTpnRoH3Fb+fJmqt7yOqOfQzgVIMB0I+PbyDLnxhkFq2ZwzGXw3WPmZqr81q0fZVJmX6o6ax9QaCxzXLwGmxVJrzShx56KFBGMD8r4zn1qkPfZQUywmlsDHS677VSzEeb140DTYLmYtSLy1Y7RMsm1o7tFUF0sT/Mz7NIeYykjIxBAPcqHw2Jp5DIfTyehFLZ1nbI47eAiiOCedZXfR82oGFuhlYiBWCAjrTgoacNWNBiW0ZNlY+Pudh8M//MZunvzz7oAAFo5Jnb4jbZvbDiZKeKtTXyw0ebKeXV9ly9Y2CDBgCmfWubXsBDAgdUBmwpc04OMQqimTXAKEfGe9WdFciIhAgilN+8FlkZIbK1+f/xj38cEuGhjUOzsYUliC6O7tLv3SkdwHzNtsVFy8eswpRk+wTlsl/ukUceMe3mHD/bnJX5nd+OYLQL2mnZ02/KJ8dcYBafV3e6R+aeeaUBGCDj/Rc9HktroaJdMqdjf5lydH2ZcnxjWdqut6zv0NeYjgAL7YcWA3zfj52QdpJUbPI8kEoasxF+4NjR9vmlxP2xWEv0TtSLwQ5rhIsyiNJn/gsNCrAw9DCQ+Vkm7v7lGSeWzUJhZ72TBq9ywr7LCmS2f9X0m/swQtg2VPp1rr4n0NRLG9FJNtPCfXSXmiUwjWgDW/Q9NOBJBEAsBSCUmLaYNazvYeLpJNzWTq85iHYebnnMt80ffCofHFXfgGxOiz5mjoY24+L9Z9f1MSDbNXehTDi9hfluwsnNZEW3QfLluW1lepX6Ga1ntFiD62R/QUHGWUJ9BBlzcW87P4V+JaCAE53Yih/1Yt7NOhsXZeC69xJsm/seZ4mXLCgf3SlTAZuFgaPLnS/qc2SQMeITMa1C75WyEdErwBJG4gL3yhP2nW5pcQIEJoSJQGHS62SYdixteuKJJ6x0cWgKNj3bKZiUa35nmdxDm+0/rJ1zEHd+45JnXlZQIICGMCpANrd5F6Op0FbvH9tIZrTrI8miXVLwzHDzzPuPL+wsizs+YvKQD61nNN+xF8hnLW6XxJZtBmSA2F2vbUtJlSpVIv+/t7su2zODlS1CiOmBrRzn72F2gqh325kv6n1kkDH3OemkkwIFknkJqtmLOE5qDQso93cIuQaRugWc0dX9vfuZZQEnTQpUtJAtCJXNfpjJzCs1H2U577Vs1m1sZzSys0C/d6eYiubaslUmX9rZAOuzhl0N0ACXXjNb9ZEDX6+U91v1Mu8A5JcdB8in53bOgAytB8g+OOoCKRw6ypiKlO0FMttObjzGbr67ac/VcxgeEllTmfqIDHHLhPMZTa2nSnv1a2Xq4tvIIGMEdxLmdY+mc7vvlcAwa1leZfLOuaXFzQSbgBx55JE/iBxXgQkz4We+pS5mzUebnPfaRsKD2Hfm1w7eu7Wq5jVlErKFpilLyZyuAwyAPqjdVhZefZ9MOOmKDMgwF3dO+UJGnt7GvEOLfXPHs+YercaFNgNoH53VVvav/LZik+cPTwamXtbtgmgmGNvNdyfdubxnjm3jod8SiB8dRHIEtY8AB7XAvPrVr1y/95FBRkhREKH8xijtRyTq2Jbf63fWS5xhN+7ybSYspo46GsirwoKpaDvdim0fmtePoc73YUDLQZzOPM57aDLP5SlZ9tQbBjQTql1p5lrjqrWWsf9qaq753R6VRYNGyMh/X2WeAeGcNv0zIETjGRPy1Gay5KGh6egQQrA418TDXGTS78V7fUe0u9/g6aTffQ+v0UysrwIeLu55p/3gzsO/r2i9finBw+58Qc+22FmcWLly30NHZJCFcd9jVlGJFwNRx6hlP8b5vSeUSZ0K7nLpeJt5dumllx4SfqMgJXyL8Ci/ennPztygznO2FRpt63WUqTGa7nLRYICMlGvbx7MyoMKhMfLk1gZUAGvlg2/JxA73pp9Pbi0re74g75x+1SEgA2iftuguB5ZvNMAy8z3VlC6g2Q7NwSvoDMh20+71TF8xOCITzGcBMlYH97xT68Cd1yZnhEbpnjZ3Xq9neGoL0SL63itv1HeRQWY7ZAYB0smjCrKTSKK8bWaAW+B/85vfGPe6luMul3la0CZDyuMvfNz5KI+OskWd6xqO1u+VqvYhGt+2FohjyG9TIBrGgCxZMS/bvFXG1L3BAGlxp0dkcuPbzP1b/7tGVjw2Rt5p1NM8T2nWW77sNjgDSJ23TaneVr57bayUlR88CFVpdbeDA2jcvHc+0286Z3HndT47B0G8thx1ze4I1hIpDy8w97xjg6gzr97b5IzlGj3WT/N4pUoLc2n+AsnZHve9X5ibV7lh3kUGme1YbrSU++hpJ0E4RGxC6G48jhR1eDjL0nvCtWzuez2aTvNoaouRhBb2Qun3fikARovxH11u+t3PLFbjQPIqy2gyNlCWp0FGOue+59NAatzDaCtjHjbuJwWPT5JXa94kAG7VPcPlvYZpAKr5OPbEZrLsrhcksXmLiRPVaVsAAAotSURBVNCnbANin2Ox8Zq6aXU/I/zOwUqFWNvCs/5OmFbQPI/lEK+NmpQVlA+aWG7B3NR6/VKlBTDb9vexJONXTpT3kUDGOlfQJkoazyIt2iqIKNv2b3fH6qY8vzI578+dx/2sJqy7jDBngoRdO8HhEeZsPz0G2k2LPqv3j8gP3m39cL4B0pt1uxgwAapZNw2V8R1fkUFVb5axjfvJkj6vy8hqbQ0YAdnoGh1k1q1PSumKDZIEsJSl2tFlJmq9YfaS0T7n3x6pEGsZPDPYMIfFLFTt5e4PngGS1zoXZdiOf0c7uutWGrxSjoLwosH5zu199iqnMu8igYy9VOedd14gsWEmj9i+zsYF3ePxce9L04bqKAoIgsrgN0ZpzedMbSYSeTlGwBZqg1DZTklWGoP+7ALazP4uUqLjmT+t3SVvN73TaK0l/UfJ6xf3lfEtn5RHq/WSx8/sKbNue1Mmt35cRp7USkZXv14m1b9d5vcfJvtXbhMiOowGo6wK7ejl9KBeJv220DTawFksLMAjD4AEGgEW+XFqEOpEgHcQwNBiWDzah84+YZ5mi8xgvZU8XvmdZem9bY7HlMRvnqxlVDaNBDJUri3siBHIRkyYsy9UIPmzCjrPi5mMZLwPswfKzzsYZkkB+59QKXZAU59e1I+gMQhwnonNZNU28XdTQTxizmSAUFZxQnBZSqY9ONporVn9JsirLZ8xAHuwSm8ZdH5/4d1LtbvJ+MvvlE+6Py8rB02QzdOWyC7+r5pojmTKAAzAqZZ016/8JeZU6QxKceczV2XtiUAAPH14VTluL8yx3nigGbi85ofMa21ypksgYbWZzYzH++zcle/mT5TnSCAjoDWI8fwGgGwE2XY8ax3M7wi7oTw/ZjKC2tz3xNu597YpjbYFSqUF7yQdxVn3bJfhYiMnbQkz+ms5pO5jGZQWTfEAGjBUaJ6ijTtlxbtfGa01tec4AzIAxvVGuxdkUve3zW9jbxku0x+fYK6Zr38oiYrj+Fhvo7x9RN1XeBbRblofqfIXDYVjxkmv3z1AwKuLQ4GUuXOQ9tJy+A6Tk3q9QBZmNwD94KTfdm/7HwXiJ937E21l2n6PBLIwR22z+9lWeZjzQegQYtNsLmO0HOc7agd6pUT1u7f5K42AJeyfESB8CAhBzlwcVRdGqNw06anKSoM7VW1DyrX2q9VSMGKGPFL3TnntyiEGWADs4VN6yfhu4+SFJo8YzXZ/vXtlSJP7ZfSNz5s8RuMCJjUTcUpUBB9TrrtengEb8x03zbl6Zr8WGk/rVnDrM6nNtIOWMJ5FZ5m2nR1YIl60OMuo7H0kkLF138bsMAuEtjP4tI4wG/JwhdsEnTmEm4FqHpE/zF8kKU3Zpmhn2982oWWcFyBZNHG2vHLjy/JI3TvknU6jjBYbfNGDMnXAJ/Jo9V7mGeANbz9Ilo5baIClMZAIh5mXVXgttWw/oWGh3HYgURQ+MEjhDPHzrCo9trMzOdeD9U393payjmrb/IlFYiunsr9HAhkbKoOY+4tf/CJjBgQRZDuDjzpYu3JGePiVF2a3tdfeNswUgAb4bBEfQW2u7G9sWg36Yw1tJ0Dg3mgjPIPlKdnw0TK575IH5dV2r8gD1e4yWmx093czAOPdJw+MksKFq9Kg8tFWWodfitbHOWPbYFuZthP9jmPIfcSAmwbaa3MgcdqwX2ysuzyeCZWy0Ursq1febN5FApntuGTWIfwWWZ3EsjZi60BMFptHjzKJyrcxkBOlnPVzD7hUu2HfBx09Zyuf3xkUiByxrcVQDxN7Nz1+z0qnGRAWb5PHWj4pz7Z53lwT7p0oL3d+SYY1HWSukT2Gy8aZqw96ES2n+/rVyXvAwDkqYU3pIB4xd2NOpCYebfGrmzk2f+gRVJ7TMgkqS+vA2xlUHr/ZrAstqzJpJJAxRwoiljU0mykAkXjkgg5IIbJg8uTJvh1BGcpc2x92Y0oGLY5TFmBGS1c2EgVeoL3xTOHwYS3GtlhPNL+fEyaoAzH9SlZskzEDx8msp6bL1EcnycSXJsmycQtlw8zV5koUFlUALJFx2weVafuN+EG8xbY9WH4ywaE0BB7gcXRurtTBzat+lgSCjmWnLnZyaN6gsvQb2xyPfs+1Z5G6Q4NMhZlM7ABmRy/2LZfeMzpzbMCbb76Zabw20J1SHkLNQiT5ycul5bF+wqgXFDxKmcpcJtGEVDlpUrpI2dcVJjIAIejataspC+HwExx9D3h1AyedrnMEAI2QaLucKTTiCbVpaDUVlXc6h2JwWrPgW+NpnPHaRNOuFfOWSspsusQjmb70/8rY/KllRE1ZYL/lllvMvJW2MKgoD/xSvLkMJmhComUq47WDNwAbXjl5xz39yUDvt27q10a0FDLiLk/LJC5W5cmvjCjvQ4NMKwccODXY2Me6FBc7VwlXIroZr6INGBCqLls6j7IAG5eW9/TTT5t4NurTb4MaiHnKeo2TJujimfLDnE6l5WtZuHNZG+OsDyJY9KLjeY83E60Nrcwv4RH06gDCAre2y5lCk831DKDUu6h0KciMBixPybxXpsuiyQvM+tee3XvM/5Mlk2WSuVLpf/5E+2kZ2aT0K0sdtIX5EDxggNGBDY8hvOI9xwkgtKxjqfaCL5WpHx7BKyfvkDH6k0FVZTJsmYAcGaEMZ5ncIysaaFxZOm31hwaZFqQNY6TBJNSLBtAJ+rumms+dOn+nLPancVEeE279nVTv3WW4n/lO6XGmNo3hLodn8jBSsswAiJydwoDCsdGEcbEw76TPSa+zXdo+baNXnc53CihS93v+/xlzasTDo9Mg4w8icMknyoxjBOeIudRp4irDWV6Ue9rAoIWTAG8cnkKOtCbsDV7BGwZi95zTyaew9dKPTt4hY1H6U+sjL2U4y+TeubQThU4t3yutNMi8Cvm5v6MDnJ1SGbMnH7xJpspk7Yo1Mu3DmTJ/4tyKo9xKhff5qC+oTHiDZoU/8MUprEH5DqffYpDleJT/UYQnmTLgWr9uvXw85nPZU7THAMyt9X4UWn6K/PuRaY5B9iMzPBeCv3f3XpkweqoxCZfPXpKZb8YgO9S0zgWvc1FGDLKfIMjYijJn2kLjYMFUIzBXHS65EIq4jNyCNQbZTxBkpQdKxPxVUqLMpPyjZnmiLJQXNgZQbgEUhp8xyH6CIEumDhiPJutgxptpFuXT78J0evzNjwu0GGQ/QZApSACb3ufa7azlxmn2gIxB9hMGWQyA7AHwY/AwBlkMsow2/DEE7nCsIwZZDLIYZHmWgRhkeWbw4Thyx20+1IyNQRaDLNZkeZaBGGR5ZnA8qh86qh+O/IhBFoMs1mR5loEYZHlm8OE4csdtPlR7xyCLQRZrsjzLQAyyPDM4HtUPHdUPR37EIItBFmuyPMtADLI8M/hwHLnjNh+qvWOQxSCLNVmeZSAGWZ4ZHI/qh47qhyM/YpDFIIs1WZ5lIAZZnhl8OI7ccZsP1d7/Dx83MTs/4ldpAAAAAElFTkSuQmCC;" vertex="1" parent="1">
          <mxGeometry x="85.74" y="275" width="65.76" height="30" as="geometry" />
        </mxCell>
        <mxCell id="eew3wy5ECAB4UxySTxky-23" value="" style="shape=image;verticalLabelPosition=bottom;labelBackgroundColor=#ffffff;verticalAlign=top;aspect=fixed;imageAspect=0;image=data:image/png,iVBORw0KGgoAAAANSUhEUgAAAScAAACcCAYAAAA9IG1DAAAgAElEQVR4Aeydd5gUxfawexNLFMEcMYDZFcyYc8aIijkSlCXnnEQQDBivXszxXkwoYsRwBQMoLJtmc5rYk/P0n+/3nB4K+85vd2eRy+f1uvs85znVVdU9M12n3j1VfapaczqdtCZutxsRj8ezXXRdR4k1//ek1XXa0l6vl/ZEzrOW+3w+lPj9fgKBQLsidXalZPv8XV2+K39bR6+t2kO0ta0y285aptJt2YXK/z02Zz1HXUe0NV/ZfWt9wprncrkQseY5HA6U2O12sklLSwtKmpubUdLU1EQ2UXVFW+s2NjYiUl9f3yGpq6tDSW1tLUpqampoT6qrq2lPqqqqsIrNZkOksrLy/0hFRQUimX+a9eZa06qRVMNZGzOzQVWdHdGZ18s8VkbaEW3tBKrjZOv8qt6u0tk+f1eX76rftaPXtbZNR9pS1cm0h8zjHbG11uq2dT1l99a+0FpawckKKAUm0dnAJOUKTKLbgo0VPNZ0e+f8z8BJbqT15qub3lqDWvMyG3dHj5URtqUzr5dZb0c7SWb9XQ2H//XrZ97PHT3ObM9s7Z2tfub5Vlv9PWnVD6x9wwofa35r6UxAZYIoG7ys9VtLW2Fm9Z6U52TVDQ0NKFEelToWrfKUByVaeVDZtPKu2vOiWitTnpTVm/o/npMVTqpBRGdr0Exj2NHjTGPLPM68nrVc/hvvaGfIrP+/Do9d/fsy7+eOHrc21LO2ubW9W0tb67aWzma/2cqtfUHBZ0fh1B6gOuGUHua1Cyd1462N8d8GJ2Wc1iHCjnaGzPq7uvP+r18/837u6LG1LVX7WiGj8trS1rqtpbPBJ1t5Zn9Q/UQBSh23pVU9K6CsHlAnnDoIJ2tDqDF3tsZrzSB2JK8to1P56lrq2GrMkt7RzpBZf1fDIxgM8kfKrv59mfdzR48z21O1c2a7q/xMreq1pbPZb7Zy1Q+sfaMtELWV3xqg1FxTJ5w6ACfrzVcNIjpb47VlFB3NzzS29o6thryjnaCt+ru68/6RYJLP3tW/r637uqP51rZtzwYyy7LZWTb7zVZu7QvWPtIWiNrLV5DKBiRrudXLai39l5hzUjdeNUa2RlPl2YwjW3mmsbV1rIx3R40+W/1d3XlDoRB/pOzq35ft/u5ouWrntuwgMz+bfSk73Vmt+oXqJ0q3B6PWyhSgrMM8K4wy060ByZr3l4GTaoAdachsxpGtPNPYMo+VsSqtjF11OnX8e7W6zq7SfySY5LN31e9S1/29912dl3kd1c5KZ9pD5nE2+9oRW85WV/UPBSbRrQHImqfqWvN2BFBWELWW/kvASd140dkayVqezTiylWcaW+axMlLRyqBFZxq1tWxH0uo6u0p3wqn9IFd1361tZm3zTHvIPM5mX1Zb3dm0tY+0Bh0rgFRa1bOCrBNOvwVudiiUwNpw2Rp8R8ozjSnzOPNameVWo/09aWX8u0rvavjs7JxVtu+X7fq76r6p62Zr00x7yGYv2epnnr8jx9Y+YgWVSisQKTB1RCtQqeFcpnck+dY8q6ckwZjWstbS1oDN1mKeVGxTW1rFPFnjnFRMU0d0a7FN1jxr9LikBVaZf5r1xu9Ig2Wrm2ksmceZ51vLM72lbIbcWrnqBLtKZ+v8O1ueDR7ZyrN9frbzd9V9U9dtrc2seWIDVptoz16s9VQ6s/7OHFv7iAKSVXfC6f8udbGCqLX0nwZOyqCsbr3VUH9PWnWCXaWzdf6dLc8Gj2zl2T4/2/m76r6p62ZrU6stKPuwAkbltaWtdXc23Qmn9Jq7jnhMqk5rQLLm/SngpIzLaoySzma82cpVJ2hLZ+uc2cqzdf7/9vJsvy9beVv3taP52dov0x6UnSjQqOO2tKr3n9CdcPqLwclqVFZDzGa0HS3P1kmydb5s5f/t8Mn2/bL9vmzl2e5vtvKOtqPVNqw2ky39n4CSukYnnP6icFLG11Fj7Wi9bJ0jW+f9o8vD4TA7I9m+fzb4ZDs/2/3NVt7RdlT1lJ1kg5IqV2D5T+hOOP3F4KSMTWllhMqo1fHv1eo6belsne+PLt8ZMMm52b7/fzucVLup9ld2orSCUFv6PwEldY1OOP2F4aQMUHSmUVrLdiStrtOWztZ5/+jyTjilNwu0trkCk+i2oKTyFVj+E7oTTv8FcLI2QrZGVUbQls48P7Oe1ehaS7cFlf9U/s7CJxqNmruCxmIxc/glv0HyIpEIqVTK7DyiJV/qiMj9jcfj5oJgqbcrJdvvywa/bOdLeyaTSfO3S1uLJya/T2J8JF9Efqs8Zlf3RrS0nzyGz9aOUrcjooCVaV/ZjjPtc0ePrX1lZ8IKVLyTaBXz1BHdWmyTNc8aFyVpFfekYp6y7eek4p9UvNOO7PEksVHWJ3OtpeWpnjVfnt5l/v1bnJP1hmdrrB1tfGt9MahshpfNeHe2PFvny1YunVt+h3RA+S7ye6RDSicVSElaDEDqCKSkvuqscrwrwSTX7sj3bw9Q2c4X2EqbyjUSiYT5eWIzch/kHkiHlQ6nfqfKk3Kxs2ztl80+VHknnH7b6rcTTtv2EbfCprW0FW6qXBmSaGVcbelsxruz5dk6X3sdV8qks4mWTiq/Va6nPCX5fdIxpUyAJB1U7oHUkbqSrzrtrtLZvn+28mz3R91/+a3ym6xtLG0qwBJAyefItURLPblvotX5bem27CIzX9mU+vyOavkOOyPWf+SdnlN62GeNJrd6Ra2l/ys8J2UsyoiUzjSyzOO2jLaj+dIJ2pNsna8jnVfAI16SfHfRyouSc8V4JU++rxrmyL2QtNTfVVBS1832/bOVZ7s/8l9aACS/R64l9dXvVACS+yEdV8oE3HIvpP3l92drx0x7aOtY2ZOys47qnQGTnNsJp/8LpD8NnKxGogxIGWZbhmbNz2a82crbA5OUZet8qpO3pQU84gFJx1QeklxTjqUj/vzzz9x333189NFHZrnUF6NWQ6C2rvv/K39n4STgkbkMaVP5vfLb5LtL3ksvvcTMmTPNfw7SiRW0xCaknnx2tvaz2kJ7aWVbVnvrSFq+x85IJ5z+B+CkjKc9A2utLJvxZivPBp9s5dkgIZCROnId6ZwCH/kdAiqB37hx4+jbty8HHXQQt9xyC5s2bTLrSx2pn+36u7p8Z+EkbrmCsmhpj1dffZVzzjmHAw44wPzt8rof9TnqH4LS2dqvNZtoLU/ZV0eAZK2zM2CSczvh9CeGkzIapZVhKaNUx21pVe/36mzwyVaeDQ7iOaiOJ7CR7ynXlPySkhKOOeYYcnJy0DSN3r17079/fyZPnmy+1UKBLdtn7Mpy9d3b0h25P/KbBTZffvkl119/Pfvvvz/dunXb/rtXrVpleoryxE7AIACXz+tIm7ZlF5n5yr6s4OlIuhNO//eNLNYnc//TT+uU0Yi2GpQyTGtea2lV7/fqbJ0rW3k2MESjMqST0IEQiUQM3eshloiaHfDj1R9T2KUL+TmaKbk5OeRoGn332J2jjjqKV197g3A0kiEhwtHfRK7bcZGwBJlkV9JWmEK6PByJEYqECUWCbUowHCIYTgM3FFI6vbunlCWScWrra1m4cCED+h9Gz27d6Noll7ycHHI1jbzcfGbNnIthGLh1l3kt3afjcrtMiGdr19ZsorU8ZWcdAZK1zs7Cye3xIuLx6HhcSty4nS7cLnndmh2Hy5kWpxuHKR6cDgm3cJvlTlcLDkcLdqcDu8NFs8NJiz0tKpzAYW9GxL5d7LQ4/n07FetTOpX+S4cSZDauteEzgdSaUWUzzmzl8h+7PckGn7Y8BpXfPpxiJGIpIqE40ViQQMiDL6wTiKSHbGMeHEvXnAJ2K8jn9IFH0bundFaNvAINLVfjgAP7cdf991NebSOciOLx64TjIYKxAN6gTjDqJxoPtCqxWBCRUNSblkjABE04FCccSpjfKRKKEgmFiYRlDiwtoXCUUDhOKJQkGE4QiIUIxALbRT7bKv5wIP2dwgGCYR+BUIAWRzOJZIJ4MsHn33zOiacNYs899yQ/J4ee+RrdczT6dNM47IBedMvrxoXnXUEkGsUX0vFFdXwRL4FIEK/P2yHvqT0baM2mrHlig1abzLTXnTn26F5cetgU3RNEd/nwO7z4nR50pxPdZafF3oDD48Th89Lk1mmwe2hs9mJvCeJy+tA9DmprS3HrDprdTppcOs26n0AsTn1zGlACJVdLIy57Iw57I3ZHo9kGTQKnDEBZYaRimtrTKt5JdGsxT8pzaktbJ7/bS3d0lwJ5opf597vjnDIb12oIfwU4GXGDcCANJ2/YTSCmE4j60XUvF5x9Ad21XE4vOpJpY26je75GQa5GTp5GftcuaAXd6b3XPhw3aBCfrvuSSCJBOBFBD3jwBnQSqQjRRNCUWDyIVeKxkHkciuqIhCP+9PAyFCcS/A1OsVCQSNhvSrqOgpNBIJwiEItsA5RASsD47+LW3SRTCfxBn+kliZcVi6Xn2J565mmOHngcuV1yzWFrj/xceuRo9NQ0Lj/7YO4bdi49cgoZ0K+IZnsTetiNPy6A8hKIBvH6fX9yOPlx6RFcnhi6O4LPESTg8BF0ePA7tsFJQOJx0OzVadK9NDq9NDmCOOxhnHYdW8WvRKMuquvKcOhuqu0Omn0hqpqd2L0B04My4WRvwLVNBE4Cpk447eDTjL8cnJIG4WCUWDyEN6QTjPmJJKP88stm9ttrb7pqGiNvH8JH7yyna65GYZ5GjnhPhd3I7dKbnNyu5OR2of9Rx/LP9z7AFwgRT8bx+nx4PG5iMXkaGCUuIQqmxIlH4yQjcRJmJLqfiHhYkSDRcIRoOEYsFCMWjhKTwMhwgFjEb0o04jfrRMIxIiGDcNggFEkQisS3SzgSxypul04kLKESCYLBCOFwDJ83wPRpszj88CPILcina68eJpy6bgNT33yNRxfcwoJpN9FVy6FHwe5s/GUjetBJKOnHG9bxBSXyO700pT3PKFuZ1UtqLb0rPSf5B+TxhPB4oiacvM4gPqcPv0vH63LjcTvRAzoO3UWT7jbF7tFxuHTszR7sjQ3o9gqC3ip0vR5vwEWNo5lG3UtpTQONTh273WkO59KeU4PpQcnQrsnhNKXTc9oBQP214BQhEUsS9AeJJ8L4Q2mPIG6keP/9DynMy6N7rsbimXdTuvEVBhys0aMwPbTTcrqh5fQmL68XmlaAltOFfof056WXXkf3+EjEk4QCEeLRJIlIkuR2SZEMp0iZkiQeSkNIdDwUS0s4QiIUMsGUCPtIhL3EIyJ+4uHQtnpJoiFjm6SIhkQkT2lJJ4mFEsSjKZKRFOFgjEggysh7R3Hk4UeRl1uIlpNPQfee5uR3F02ju6axW47Gt2uXsPKpYhPO+VpXPvt8Dd6gi1DMhy/gxe8L4ffJpPjOvYShNSBZ83Y1nHRPAHNI55ZhnR+vy4/u9uFx67g8bnyhAHbdSYOriRZ3My7djsvVhL2xmua6EurL1rHhq9f5+ot3sFVtosnVSG1LE05vgNrGFhNOrpZm3DKsa5Fhncw7OWhyuE0x56ZafosO7xzWtQOrvxqcggE/wYCXRDJCMOwnEImQTBk8teJp8uUJXReNl58uxl79OnfddBjd8zS65Wvkaj3RtD7k5YrOI0fLo0tBVw4+6BCef24lqZhBKpaGQhpEBqlwWoyQgZJkKMlvkiAZjpIMh0lGAiQjvgwJpsvCcfOcRChFPCiAU5LYlhadFiNikIgkCOh+ktEkE4rHs+8e+9CtoJDcnC5oOYXk5BXSo0cP87f10DQG7KPRUP4iq/8x04RTFy2PN998hWDYgz8gS1sChAIJ/LoEp/6Z4aTj9eh43TJ35DOhpLv9uD1+nB4vDo+OXXdTb2+k0VmH29uA11uLvXkL9bYN1JV9xU9f/p2v3n+M4vsuNwHlctfR0FyHU9dpbLbjaLHjarHjbpZ5p2YcLQ5a7G4aHbopnXBqB0Z/7TmnED6vPHVKwykUCRGKJolEk0wcP5EeBRp9u2l8smoqetOLPLP8cnrkaeakcaHWh1xtT7oW9KKwaz5ajnhUuRQU5HPwgQfx/qoPCPiCJCOJbaK8Jas2SAYtEhKvKkoiEiQRDZCI+rZJgEREJLwNXmk4CdQSwQSJUNyUuJwbipPWUeKyDjAUxd7YSCIWY96sGezRe3e65uWSp2l06VJI1559TEB1LSygd6FGL01j4oiz0Rte5uNVk01PqltOLsuWLCQaFY9JJ+ALE/UbBPU4QX9kp+adrF5Sa+ld6zm58btFPPjkaZ1HvCU/Tt1Pi+6jWffR4nHT7GrCrdfjD9TidmyiouRjNn3/Opu/fxHbhr/zwsN3MnHExax6YxkNtZvQfS3U1lfT2CwwUnBKa0eLmxaZVLf7abT7TFCpJ3OiOz2ndmD1l/KcojJn4iaW8JlzTvIkLJow8OghrhtytQmnQ/bS+P7z6egNj/LNmpEU9dfMSeOu2m7ka33JzckjNz+HgsL0E7wuXXPJy9cYMKA/1dVVxKOxbRInKXNNsphYSSRFImiQCBimjocN4pE4sahEq8vEdSAt0RCxSIRYJEYinCARTm4TAVGYeDhoSjQS+E1HAkSjPgI+D9GIj5df/hsHHrgHOTnpObOevQrIzc0lN7+bOSyVJ3U9cjX27qax+s0JuGuf4od1c+mdp7Fbfj733TmMRCxARKLyvRGi3hRhXYbEf244Bd1ORHweeaWazC8JmII06QETTi7di9PdjO6uxmP/BVvJB2z44inWf76csvUr2PDeTO678iD++fx4PnjzYWxl3xD0N9PcUkdDY/2/w6nZiaPZQ0uLTqM9SKNdJszd//YGlk44dcIpHdkdlc6vkzICRKIBBE4Jw6C5WefUgYPolqMxuCiHTd9NxV0zl6ayWTx4+2H0zpG5mUK6aXvQvWc3NBnmddNMnZMvT/JyzUnz4aNGEo0lTDGjsGUBcSzym0RTmEAKGaaORY10/XiEcCKUlniUsKz9i0n0egqpI3NI8WiCpIAvnIaQOVkuE+aRbRPsUS+RqJdEIsj6H76m/xEHkStPG7vmoOVpFHTPMcMhZM4pL68LBTLXlKtxyel7Yi9/Dk/dMkp+XMhehRq983O58KxTScaCpGJJE04RT5KYz/hTw0mAFHK3mOLzOHHrHlp0P816kGZPCLvbh9Phxt5QRbPtZ2o2r+GnL57i6w/msflfSwnWvcrfZl/II8WD+de7C6j9dRU+52ac9nK8Pgd1dTXb4eRqduJqdm+Dk++vBafM4Vlbx1bPSKXFdVZida3lSYv1uLV0tqcx1nIVz5QtdslaruKV2tLtxzFFzKUZAoZWJR4y4RRL6EQlnUyRShmUbLHRu3t300O64pxuOG1L0Wun42ucw9p37mb/7vK4PYeuWk/yCvJNKGkS+2RKPjlduqDlFbB7nz1Z+/k3xGXNmjdIIpUikUgSiydIppImbFJxmZsySCUMAoGoWTeeSqCHfUSlTiqFT2CUMghHDJJJg0g4QSqVJBGXp3vbYLQtbko8rmg8SDjqN+OsPD4XQ4ddT2HPAhNKAqjCXoXp75yroWk56fimgvRE+KqVI0l4XsFVM5/6rUso6ted3rkax/Y/BN3pMCfjo/4kMT0NJ5lkV+2l2tfa5tnSrdmUNU/Otx4rOxWt7Lc93VY/kGUrXreLqO4k7GnGpzvw6Lr5+L/ZI5PgsutCAL2phbpff8Zb9TMbVj/NF2/NouzbR6jZuJSSdbOYMuwAKtYuoOyrJ2je+gEB16/o7ip8fjcNDXU4HU5cDhfuFhEPzhadlhYfTS0Bmuw+mltc/+Y5WYd4km4vximzrLWYp7bim1S+iia3xjipmCbRKl/ltbYzQWbe/4lzaqsRMvOtDWltaElbjUAZlTWvtbSq1xGtjFcZc0d0W1BS+TsPJx/R+DY4pZKkDIONP/2KPLnqlaNx13UH4q58GHvZGCIts2jaMo/RNxfRW9PYs2tPc65J65pPbveuaHl5aLmF5HbtTWGPPdC07gwddi+JlEEknjC9skjcMCfcJbo7HEnQ0uihsqyWsrIKfvhxA9/99C0ff/Ux/1i9inc+/IDXV33IO+99xhv/XMM7q9ay+qO1fLJmDZ9++gHffr2GTRt/ZMuWjVRUbKWhoRqXy47f7yUicVTJOJ98/im79e5Fbn4ePXbvjSbD0AJ5upiHlp9rRoH36Zn+rXdfezz+uhdxVSzCUz0dR+XDnDKghxn3dPDee9JYW0ssGCcmcVh6nFhAngD+tueUat+O2IKq05pNWfNaq2e1W6s9t5bOtH91rOAUdDXjd9TjdjbhdDuw6z7suuxVFSDo9uOprMLz60a2fPQaX704j6qvnuCXtbNxlT/O84vP5YMV1xEqeR77ppcp+e4lgu4Smhu24vW5zCh6iSg3I8ntLpz2NJzsLboJpia73gkn1SCirQ1obeS/JJxiYaIxPzEzijtENBU34bT+X+splGGOpjHq5gHolUvx2iYSrp9MuP4hNn06g8EDetE7N48ePWRY14Xcrj3p3msPcgt6o+X2JjevDzk5fdlrn6P513eb+emnUt577xOe+9vLPLJ0OffdN5yrh1zD+WedyymDTubUU06kaGARxw06lqOKjuSYk46h/1FHcNiAIvofdQqH9T+R/kcM4viiEzih6CiOO+YIzjj9KE4ZWMQpA0/g1BMHcf7ZZ3Dj9dcyfkwxjyxdyt9fWMktt9xBTm4+mpZPfkF3cgt6UtijDwWFu6Pl5NK7Rw675WsctZ/Gho9nE2t6Fr1iFsH6KdjL5jP4iJ7IE7y+3XtSUVJGLJwwg0SDMu8Uks3p/rxw0j0uQh4HAXcTbleLCSen12d6uX7dT0yCMTeXULvmA/425k6+e24mDV8+TsWX83njyat4fPbJtKxfjP37R6nb8AIbv3yBsF5OQ/1WMwrcpevmchdzqYsJpzSg7C0emgVMdpl/cnR6TgpQnXCyDvFkDV3IHNLJsC6SjGAYKdZ9/qkJJ/GOxt1+PKGqx0k0zMZfWUyoZgbhusd587G7OGg3iXsSb0nmmArIy+9OTm5P8vN2p0ve7uTk7EZeXm9OPek8BhadwnFHH8eh/Q7l4AP3Z589e9O7exe65+ZSmJMO7pSJ9C7d03NXXXfLNeeE8gvF2+lNjibSjS65eXTNS9fv1UWjm/abdM/LpXe3buzTpw/99tuf/v0OYY/d+9Cja1fyc/LJzSmgR/fe5vfMze1G98Iu9MpPT4KvmDeEYM2ztGycQqJpLrGmybRsncMFRXubcOqR24WNP/1CIp5Cltj4fbKXVZRQ6LeXMPzZPCeBU8SvE/K60XW3Oefk9skTyQBhh5tYVT3RjRv5aM50ll13AWUvLyTy00r+9foD3Hvtbnz7/ijsPyyjZPVcvlu1gNpf3kN3bEXXm6lrrEcCNu0uDw6njsMhYBJx4mhxYbe7aBFpaX99XebQrb3jzmFdxp7Qyu3uiFbG25HhnKqjhm9t6Z0a1sViyMLfaDxKJBY0J6ANI86a1avM+B6B0/wHzyNY8STByhmEbWMJVU/EtWUy3uaVzBt7Ibt308x4qMK8HHp1FdCI5Jtr8rpqeXTLyaNbXoEZad2na445yd4tV6OnPAXL0+jXV+OYgzWO669xysDuXHTBQey/n0ZBgUZ+rkhX8rSeFGg9KJTraRoXDT6E6y/rx5Xn7MFlg/fl3BP2ZNBhhRzSV2Ovrum5I1mCIgGVUr9HnnynHHoW5NAtL58CLYfuBTmYMMvTWDj+IhxblhOtWUagbDKBimJijePQKxdw9ZmH08OcXyvku29+NOfkQqEoXllHKA8RQr/tqaXatyO2oOpYh3CtpVurZ/X4rf9sW0urf8qZOr1Vihu/7sane5BlPjIhrsuWxbqXcG0DwZ82Uv7iSyw490yev+ESKp6bjfHzy9x//n7MH3McW7+dS903Syn7ZAmfvTYXf+N6mup/RQ+4afboNHv8NLu82LfDyYnLbsdhl+DMtGTOMWUetwejzLJOOP1PwSlONJIwJ6gFTqG4D8MIs+qfL2+H04JRFxKpeJ5Q2SxiVROIVI/F/sso4vbl1P+ylOXzbuGMQfuak+e98jR2z/8NDhIzJHJwH42ifl04/6S+3H3DQCaNOo9ZYy7i+WV3sOr5e/nw5ft4/5V7WPfRJL79bC4j7j4ZAZjpUWk59M7tRXetgD3ycziop8bHr03m169m8s17w/nxo0msf38y694Zw/srR/LiI7exdMoQptx/Dg/eeiqXD96PC07exwRXny5a2gvSNHoKIDWNB24ZiH3r48TqHiVRPZ9U7RTCtlEkm8YQrF7Mjecfy25aF7po3fn0E5ncN/DLVr1BN6G4btnxILR9AbcCSkd0a0Cy5qlrWPP+c3Dy4HaJ16TjMgHlwefTiXhc5nDOsWYt382bx6LTTuKDu4bifX05ny+8nTtO686mz2ZQ9dMytny8gIrPHufnNc8QcvyK01FFk8uOHklQ5/LR5PLTouDksOO2N+PcvgC4iZaW5s5hnfrPYf3vYm3kv+acU4JoJEUsnjI9p0BMxzCCvPn6s6bHIZ7TrHvPJ1n7JsmqJUQrJxCqGEXA9gB6+RgijUto2fokq14axYibizhyX40+uRpH7atx3XkHcu+1x/LwpCG8vuJuPnu7mK9Wjcb2wwIati5my7djafxlFu4tC3D+Oh9P6SJiLc8RbHqRf744nIN3T8NDALJffi96aznsnaNx0TG74dr8HMnmFYSq5hK2zSVom0ugfC562Vxcm+fQvHE2tT/MxrZ+Lj+vncS370/k6YVDWDTxYsbceTIXntSTk4/UmDH6fKo2LCbW8BSBstmkamcSLLmflGMCRstYgrZF3HDOMeymFZqe26pVawjFUuhhP96ok2DCY0bVKy/3z+c56WZkuM8fwu31mduiuOxN2CvLqPhoNesffZS1o0fz5Jmn896NV9LwxAyKB/blHwuupWTdQjZ+OZ9/vTOdTR8up9OCx2QAACAASURBVHnLxwScW824udoWO85QHJvDS4M7QLOsxZNhnaMFt0N2J6jHaa/HYW+gpUUA9dvylcx0pnfU3nGn5/Q/5TkliERTRBMpQvEg/piXlBHm5Zee2g6n5ROuJVn9GrGyh0hUTiJYNpKgbQQx5wz8VdPw2pbgLl1OyVdTeefJG1gx6xLefPxaflxdTNlXU3BtWULthunEGpYTqlmEZ+tUQrWzCVRNJVg9nbBtDqHyWSTq5hKtm0fQthR36ZMMPXdf9s7VzKeCfXPy6aNp7K1pLBh5Or7S5SSqF5Kqn0m8ahyxqjHEbGOI2MYTrZpEtGo60erZRKsWEK5+CG/ZQzg2zcexdRnV38/lp4/GsfrF26nesIBg1aOEbYuIVEzDqJlMrGw40aqRJOtHo5cvYMjp/emhdSFP685rr63CG4yih7z4427CKa+5DcsfBSfZFUH3eU3x6V7828Sny6T2NtFlS2EvPl1PiyxXMaPBZSgnD4gC+IJhc3FvXU0VdRs3UrH6I9YteJiXb7yNVbfcyfKTT2XVdUN469qLWXLeMdS+PZ9vXhnDP5+5j/XvPswPHz5FsPkX/K5qvD6JKNepk90L9DCNLhna6didTnPPJ5ejyQSTy17XCSflMSmd6TlZ3eXW0vLfULwqOU+VK49LjsUwxfWWtNSRMjlH5oIktki0zBdJnnLR1X9YyZfdJOUcSct3lHMkT96bJlp2pJQ8+RypJ9eTvaxFy7yBil9Sc1LqM2W3Rqkn57clsXiMQCxIJBUjlIrji0eJG0lWvrhy+4T4vAfOJV79ArGKBaRqphEpLyZcUUy4bhqR6jlEyh8iXvEIsYol+DfPxrNxCr7NU4hWziBRPR2jYTaRivHEqifhLy1G3zyaeO00knUz8GwuJl43n2DlZIz6cURKR5ComY1RuYwPnriRA3LScJKnZSLy9HD1a7fgt80iUT4To3oWSdt4klVj0mIbR9I2gVTlRJKVU0lWTCdZMZt42VyS5YtIVS0nWfEIyYrlhDY/TLxiKbGK+SQqZpGqnIJROZFUZTGJytHEa4rx2R7mitMOo6fWha753Xn++ReJJZJ4vB4CYZ1QRN5Ek7YBBSjRqn3b0soOOqKVzbWm9YAfV1DH5ddNMIU9XkJuH35PAI83gNPrNyUQiBDVA4SdOnG3j7Cu43Y7afG00ORoocXdQoOrlqaKXyl/7U02zVzMR5fdzjtn38DfL76JRadcxMKis5jW70g2FRfzxb038cMjo/nk8TH8uHollZvWEdab8LgaaWpuwOHy0Ozy0ODwYHemRd7i43DYcThk4a8AqsnU6bkne5vvurNGjGdLW70q5UW1tseTim0SnRnvJHkqtkm0im9qS2fGOMlx5p+m4JNN/x44iREJGEQLFKSzS+eXY/k8BS5ljKq+5EueGKyCh2jJkzrK4ORaUke0wEW0fI6cL/XVZ8vnCrDkXLmG1BMteQpE6lqSL+e2BSbJjyUi+OMewkaQkJHCl0gRNQxWvvSGGTEtwYczhp9MovYZ4lXzMGqmES0bQ7RyIqGKKSSrF5AqE1lIqmweqfKZpCqmkLKNJ1VVTKrqQYzq0aSqHyRZO4Z43XhiFeMJl04gVj6NaNVsgtXzCNVMxWgqJll5N6nND2BUzMe7YQG3nnWA6Tn1zs83YXn0YQVs+bGYcNMkUrbZGOVzMCrl88aZYlSONwFjVEzEqJiEUT4Fo3waRvkMjLJZGGVzMcrmYZQtwCiV7z2PVMUM8xpGxWTS500gZZtAtGYcvupHuOqMAfTKETh14dlnnzOfZspuodGQj1DQS7gDL5lQ4JI2EZH266goG2lNC5wcYR1nQCege4m4vUScfgLuAC5vkBZfAIc/iD8QIeL2E2l2E7frhGSXS7cdh9eOU7fjcNZR37CF0s8/pPnpF/j+mvv4pGgIq08eynPn3cbUosu5qfshzNz/JDZccz8Vw0ezrvh2XptwK6XffUpTQy1Bvxen00FDQz0OCbx0e2iW4Z3TZUoaTmlAqcnwbGCSXTQzh3mZx5nAUoD6S8BJAUI6ugKfGIoYmUDDajRicApEAhcFGUmLyDVEpI4yVIGR5IkXJFvByrFc19wW1u0260meFUoKUnKOXEd9llxH0lJXRNLtwylsDk9CRpCwYRBMGSacXnntbfMJ3O5dNGaMOJlk/TMkbHMxqmXYI17KJCICpyoBxMx05y+fngZC5QQM21gMm8CpmGjpKKLlo4mUjSFcMYFk1SwSFXOIlc8nVrUYR8lM9IppJGoeMAGV2HgvRsUsjNoneO/x29gnX6NPQY4Jp1tvPBJH3UwiDWMwqmZhbJHPnIohnylSsU2rtByboJqIUT55G6ymYMgQTqAl2jxfyhScJpKyTSRSMx5v9SNce+4x9MopMKPIn332WVKycZ3fay6bCYd8hIPpLX8VgNrTqs07CiapZ7WvzLQ34Mcd1HH703ASzynsCpiek1sPmtHedp/8Aw0QcHsJO3SiTp2QLPT1ewhEvDgdjfjsdWz9+hM+XDCHyumLWDN4CKuLhvBq0VU8ftYwbu1TxL09juYFE1hXs/HGe3n9piv459zRuKpKzNdmyXcTb1+gICCSV2nJnuuSJ/IbnP5cbwRuy2NS+X+o5yQ3WQFAjEV5SlYDk3IxSoGBiEBC8lQdaTiVVvUUcBTwlBe0ceNGPvvsM/71r39RXl6+/YWO4hlJHbm2aDlfPkNBSPJVx5A8eVmBlLcPpwiBuE44FSJiGCagYobBO/94z4RTn0KNqfcNIlH3NAnbPLPTxsqKMaonEbNNJmnbBoYK8VhExm3X4j0lbROJlk4gWTeHRM0CYpXzSFUvIVG1jFjlMuK1jxNpWEGw9iH8WwVOE0nJ9bdOJlW5mPpvH+Kykw80l4/IOr/HHr6WQMscgtWjMCqnY2ydgVE+NQ1FBaHt30O+y9i0CCwrx2yXlG0saZE6kzBkWNkGnG68qIieWr65i8Hzzz9PMimvYfebOyf80XASu9L9OrKnucw3BWXOyRPAqwcQODn0gLnDgMstc04+Ij4/QXmbsduJ3+cmHPDgrLXh3vwrHz30EC/fdDtfXns3/zjhEt4+eQhPFF3G7IFXcHHuPszb72xWDbqZrwYP4+3TLubt4cMo+fBlwu7G7f+0BUbi7QiIJC19pxNOsMuGdeLFCEDEEAQ8AgYFKfFclPckIFCei9Qxh03bhmgKJgoUAhYlcp6kf/nlF6ZNm8bZZ5/NiSeeyMknn8z555/PXXfdxcMPP8y6devMhpa6CoICIbm2FXhyPfmu6ruoz2xdR83N06LJMFHxmlKGudTk448+NYd1fQo0iocdRbjyCeKV8zFsk4kLPGonkqiaQNL0kB7EsD2AYRNdnIZThcBlGsnKWcTK55GsWUqi+jGCZUtpWj+bTR88yNdv3MVXb9xF5fq5BGofJWKbQaR8HIYM8bZOJFE6E//WZfxt0TD2KNA4sI/GNx9PNpfQRGtGpWFSPQejbOq/gSUNyW0wku9jG02qSuQBUtUiI0mK1IwgWf2gOYRrD07DLh1EDy3PhNPLL79svgQiHA6SlJc4/MGeU8DnJ2CC6beVDx49gBK37sfrDyFwkglymUB3OptNb0l3NuGpr0YvL6fin+/x8g13serSYaw9dyivHnsBz5x6BbOLLuCi3fbmzj7H80bRLXxx0t2sPm4Ir59+ORueWEzIvhW/bEC3zUPKBJICU6fn1M5OA8o7UV6PDNVEFFikM7cnqq7yfuQ8SQskFITkWBpB3Dx5t9u3335rekDvvvsu7733HqtXr+aLL77ghx9+MD0iGTvL9xGISHrEiBHstdde5jYe8hom9Wqinj17mu9PE2ANHToUGVrIe9SsgBJgqe8msJIyua6ah2odTDJRLhHiARLJGHFZUBs3zPVv3327wYwxkt0Hbrt0X/TNy4lXLMComkas9EGM2nGkqsaSFCBVDceouh+jaiRGpcBpkjmPkyyfR6L8IaJlS9E3Lmbjew/y+KQTufmsAVw58EAuLdqHi4r25oYL+vPOM9egl8wjVjETo2o6qTKZ95lGqGIRFd8tYfCReVx6Wg+aSpYSbZxCsnYUxlYBj8wlydySyIS0mF6cDCvHbJv3Gm1CKFkzikTtSBK1w4nXDidRex+JmlHm/Fh7cLr5koF003JMOL399tsmnKLR8H+F5xSUKHV5hbzYvs+L2+/D4Qvg3DaU0z1+QsEobtnV0ufF6ZN9lOpxu5sIOJtxlWym8qNP2Ljsad6/7A7ePfFq1p52A38/9kLmD7yA6/fozwUFe7Pg6Ct5c8BQvii6ne/OuZ/NxfPw/fQNPmc5zpZ6cw8msWGBk/zDFo9JvCfxohSgOod1HQCUApMCTntQkjK5uaKls6u60vkFAuKl2Gw2vv76a5566ilGjhzJpZdeyplnnskpp5zCqaeeysCBAykqKjJFADN48GCuvPJKbr31VhNIS5cuZd68eey7777mPtYCJQUn0Ury8vLo1asXhx9+OFdccQUrVqxgy5YtJpTUyy3FMNSQTmAl37FtMMXNDdjikfTLNONxg1A4ZS7K3bJ5Kz3y0wGUl5/clcYN8kRuEUb1zDScqseQtI0mYRuBUXVfWsR7kmFdxTRS5fNJli0hXvYo+qZlvLLgIm4680AG7pPPKQdr3DOkHxPvLOKOKw5g7y4a5xXtzluPXUay9hGMmjkkKsaTqp5IpGomAduTLCg+kfljivDXPEKkbhxx+cySBzG2jscoG4chHpdIhUh6eCmT5MmqcSSqx5pP3uTpW8yUB4nWPkisdhTx6uKsntPQC4vMgFTZnO7DDz80h3XyqivZquWP9pzCXj8JmQR366Zn5Aj6aQ4EsPvT80xet5+QL2S+8kkPenEGPTQ66tHdTfhqbVSuWcv70xewafoy1l14F28ddC7vFg3hbwOv4O6Dizg9rw+jDz+HZ08cxqcD72H9aSMpGTabktmPYjib0R1VtDTXmf9cBT7SVwRMajjXCaf0c7tdNqwT70Y6ucBJ0mrYtH79ehMQAhqBkUBDXjopEFFAKShIb2gmL6UUkTKRrl27mtvC7rbbbuabdPv167fdY8rPl0WqGkqra6nzRct1DznkEM477zzeeecd0yjUCzFFq7SAqn04yYsGohhJg0TUIOCPm1uSVNuq2a0wHQR55hE52L5eSKx8CUbNXKJb0xPdCdtIEjbxmkZgCKTEa5LhXPlskmWLSZQtJ1b6FH+bfjbnHd6L0w7UmDN8MKtX3sFPnxRT/q8pbPpiAosmXcU+BRrnHt0bz68PY9Q/RKpmigmOeO1kojXLKfl8AmtfuYFwzQLidWOIVwgQBUhjMcqL01Ihny/zSgInGXJOIlE1mVjVFKLVk7fJJKICvZqJRGskvEFCBySEoO05p+vOO9aEk2xGt3btWnNCXOAUkxAC82ndHzchLnBKuXzEXDJs89MS8tMYDNBizo0GCLj8hN1+vG55o04QT8hDfaMNe1Up5V98ygdzF7Fy6L388sACVh93DR8cegXvFF3LkycNYXBhb4bsewxPXnQ3bwy+m5/PH0/J5VP5/OoxfDHlYQyXE1dLLU5Hswkj+ceovCTxoEQUsCS/03Nqw3PK9JZkWKaGdHJTxRMS8Ii3IUMkqS9pyVdek0BJICVDqkceecT0gAYMGGCCorCwkC5duiBaXmEt80by5tibb77ZnDOSeSORO+64gxtvvJFLLrnEnFc64ogjEEAJbAQ6VhDJ9dSxVUs9JbKTo3hmMiQUD06GcQIkEfkdAqlscDIiCYyEQTQgO1AmzbVjLc0tHH7wXubatAF9Ncq/XEys4jGMusVES8dj1Iw1vaZUzQMkKkZhVI8nWTaB4C8TzLCC+NalpGqe58PHb+D0A7px8j4aby67nqaND+GtXIqvajHeqvkE6pbTuPkJhl7Qj31yNb587T4M9woStZPRt9xNrGYMsap5BCsWYd8owZUzSIm3UzkSo0pgJJPzxSR+vRejfDRGzUTipWNICSQb55Gsm0e8dj6RqnmmJBuXEKyYg3frDJINi4lWziIpT+0ETjZ5grdtaFgzhXD1ONwVi7nk5H5pOGk5fPfdd8iQTibFBU7iOcl79eQfV6aohxNWLTYkoobgHdHKW29NC5wMt3hPPry+AC3hAA2h4HY4hVwBYp6gOfST7YU9up3a8l9xl/7K108/y9+G3cPKi2/hiysf5IMjr2bt8Tfz9BFXMu7gwRRpPZh+zlCeP+8u3jn1Tj4/7X6+OG8UK868ka+WPIPhD+NobMC9bSgn/UiApACltAKVOv49oLKGD2SGDmQeZ4YSqJAC0SrmScU2WbU19un/W5yTFUxqKKfAJA0uBiLH4ooq70iBSuAk5WJgomX+SMAiXosAQ+AgntBJJ53E6NGjWb58OW+88YY5zJOnbiLySu+tW7dSWlpqptV8lMxBiddzzz33bIeT8pYEPnJdgZ18hhVc8rkKTqKlfO+99+bCCy/k008/NYEq31d5T+3DKYERTWHEDMK+KMlEeq8l+f1nDR5kRonvka/x/buziNueI1m1lODm8Rh1E0jVyNyTeFHjSFRMJlk2nVjJLAwJdCx7lB/fGckNJ+7OkV01Xl10JfqvS/CVP0y8cRl65XQcW8cSbXqYcOPfeWLWpeybq7F8wplmJHmqcRohm0RqP0C8ajqxyjnEK2eRsElMk4QRyBDyQYzKBzBksnvr/aRKRpKqHEeydiapqtn4yqbj3ToLf/kCAhUPkWxYQbzuCeJ1K4jWPI5/6xLz9yQlBsoKpzKB7xQzlMBV/hBnHL3H9mGdtJ14TRJOoDwneZ2V2ImIFVBWKKn0LoGTJ0DS48fnD2IPBWi0wCns8pPUg4RaHAQddvxN9XhKN/Pj66/x3cPLeeLCa3nh9BtYc/4I1gy6g1cGXMusA87nwi77c3nfo5lz5s08f+otvDVwGK8dcy1vnXMHz974ALVrv8XwhvE5PHhc6WGc9J/WQNRa3o56UW3BSUD0e+AkkLKCSdL/lXASg5HOKCJGJDdZDE2ApfIlT8Ajc0fi6ShY3HDDDTz66KOsWbPGnAhX9eVcZZAKgOo4U69cudIEjAKRwKZ79+7msE4ApT5LwTATVlJHQe2ss85i1apVprck30G8p/bhlMSIGsgbSiL+GKmkQSwpW+XGuPWW68zFt7vnabz//BhSDW8SKVuOvnGCuTg2VVdMomo0RvMcoqVTSJRLZPciYlsXE9uylIX3HMSRhRqTrj8UX/UKIuUPE5A6LYvwVozFWzmaaIPsm/Qkn772IAfkatx72b54SxeSappJyiHDrpEkbVNIVswkVTmdlEDEjKNKP4UzbKNIlNybjqmqKCZZNp5E1Uwi5bMIls8n0vg4QdtyytdNYvOnE3n3ySG8tOg8lo89mcXDj8fz0xxSFfK95boSFjEJQ+BUPZl4/SScZYs4/oAuJpx6FHalqqrK9JzkQcJ/A5xCvjR84nrAhJNThnTB4LY5J78ZLW54AsSa7IRr64lXV9P82ee8N3kGX0+axZODr+DpoqtYc/EYVp12P4sPvJybuhVxdm4/HjzuKuaedAOP9r+cN0+4kTcH38LrV4/g06XPEKluRK9qwt+iozvTE+CdcKo2GbBDEeLZPCdxR2W4Jp1Z6kpagCVpAYlQdsGCBRx66KGmtyQQOf30001YybyT/GeQc+UcBR7rf1ABlhVW6r+nAFDAId6OzEEJYJRHpOaqRKshnZRJHREBlMpXdfr06WN6YDLMk6dK8h2yD+uSJpiMgGG+Ukm26I0kkuYSllmzp5hv9+1bqPHojJuIVL9NcOsTBErmkmqaR6pxIjEZWjXPI1oqS0XmYtgWEC2ZT6L2MZ6dcizDL+mL7bPR+MoWECmbTbJhPhHbBOJ1IsX4K8cQrltG6Vfz2E/TuOqEAkI22bpkGoZ9AknxzgQcZoCnxDNJAOUUc3lKOgL9AWKb78eoGGuGIMTLJhMsmUa8ejF66UI2fVbMEzNO4pYLB3DNaYdy3hG9GXxQISf00ThjX43KNXL9uenPkGtXTTHhJEGYycYpNG2ey8G9NBNOB+23v9nW8rZgGdpFgz6CAT39ks8/yHOSp3VRb4iILuEjQTyBAI5AcNvTOh9Bj5eESyfZ0EJ8q4369z5m/eJHWTNyPB/ecDfPnXQZjx5zBS8OvpenBt3JPd1P5UztUG7rdwkzTrmd5WfcyYojruKD8+5l3V3T+GTiAhq/2UBK1u5VtxB0+NCdshQm7T215iW1ltfpOW3zhrLBScAhczTi4Uhd6dDiLgqk5KbPnDmTAw880Oz44jVdd911fPXVV+YEn8BIICPAkeuIyPBPjhV8FJiUByP5cp7AQz6jrKyMM844w4SNAEi8JhFJWyGkjlvznMR7knPU3NVxxx3Hl19+aUaZq89tTcsLNY1AiqQvRTJqkJQo8VicmJHkuZXPmC8pkH2XHhh2JnrpO8RrXiVqW06gYiZBGULVTyRWI5Hi00lWzSBWMZ14xRyMpuXUfD6cratvx6hdhPuHYhL18wiXjSdUMgqjeSrRihGEy0cTrV1Ew48Psa+mcdlx+aSaniVQOYVE3Vhz2GgCqWz6tmUo6aUosm5Onr4lqkeTFDBVSOT6VOKVs4nXP4Lzl9m8uORMrjnzYAYeoHHqYRp3X34Qc4efypOTL+WZyZfwwtTz0X+U+aZZGDaB0iSM6qmkSsdhVE0y4bT123HskZeG05mnnb6tzSQKP2TCSSbE/8hhndhs0B8yX8EV8IXw+oJ4RGTvb92HXx7gNLYQ3FqJZ+23vH7XaD67fwIfXXM37517Lc8edwFPnXYL84puZOrRQ00wXb//hUwePJwl54zm6bNHsHLQzbx+5jDeGjqcDY8/h7+ykohHx9+kozd50F2dcMqMEu/w2rpscBJICExEixclaWl0AYgM2QRMakh1//33m8GS4g0JWAQ0Ah+pL+fLMEry5FgN8awgUmBS81hyLJ/35ptvmt6YeFACGBE1VFMekmg1hFMelGiBlpo8l3K5hmh5krdhw4asw7qkL0HSn0JeNCBvXvHHY0SMJB9+vpr8Lpq5bOScE/bmw5XTqPrXo8SqnyZa/RAh22QidRMIylO6hqnEqyYSrhhHomoq/q0TSFZOM4diicqpRLaMxWicTejXUSQqJTp7DImyUUS2PkisejYNP8w1PachJ/QgUfcsoaoZxCWWqmZMGkplMzHKpmEIpMrmkqicSbRmLNHaYuIS2V05l3i5eHPLcfwyh6Xjj+G0w7tyyuEak+87ibeeup7Nn42nfsM0mtdPQf9pGr7SeRiyJKdiOkbVVFJbJ5ieU3Lr2O3DunWrbjPX9skr2e+98y7zn5gJpmiYSMBrToj/kXDyBfx4gyG8gaD5Lr2AHsK77cUEHq/P3IXAU1WLb+MWvl3wOMtOuYQvrx3Ou6deydrTr+b5o89n2Zm38cCx13DhboM4QTuCEQPvZtIpI3notFE8fPzN/G3QTSwvuoSlFwzBve5b4i2NxCQu0OEj4AqYYQqdntNvQ7r/6LBO4CAAE9hIXIYASiAjczcSHqC8l6lTp5qT2gIWEakvYFJwM/+LbYOc5EkdAZQCloKe1JMyORZwKYh99NFHppd28cUXm7AR8Ah0BDTqOyjvSfKUKHCKVufI3NOsWbPYvHlzdjj5E+bbd5Nxg1jKwBuPETYS/Fy6kb779Ga3bjns0yOPc4sOY8b9J/Pj+8WEbIuJ1c9BL3sAX8VIYvXFRKsfJC4T5E2TCJSOwmjctgC4djKJ0mKiJRIMOQmjdioJWdwrMNs0injVVMo+K+YATePOc/cnXLmCaO0c4jWy/GVMGkilszFKBUyzSZUtMifIw7XjEAmWTDVDF1KNK9BLFvHMrEEMOkBip3J4fcU1VG6Yhb/mMbwVDxOyzSdaOYdk5QyM+tmEfy0mJXCrmU5yS3opS6JkjPkdZW3dm09duB1OSx9abMJJosMTiRhhv468J++PhJOsrfOEQ3jkKaA3TFgPEdCD6eUrsmWK7OFdbsP5zY+8cduDvHLWtaw9ayhrB17BupOH8NJxF7PgrNu49fhrOEI7jOsOv44xpxcz68zxLDppJEuLbmF50TU8eupVvDm8GKOxgYSjiZBXx9nkwucJmgGenXDaRXAS70XgZPV25CmbBEwKDKTTDx8+3JzNl8aW+gIlSQtklGckWh0rr0oAJHBSsJJjOV/yVB25lizylXx5aiDeztNPP20uWZEneZdffrkZmiBDtYMOOsh8MicBmwcffDD9+/fntNNOYejQGyguLmb27NmsXPki6776muamFgK+AImYBFvGScRlclxJehsVGdalgumndRLnFI4Z+GMJIkaKencLA44dQGFBjrnPtkSLH7FnPkMG92PJhBP4efU9hGXLlKpxhGyjiNhGmXCSuaS4LBWpH0fcVkysUh79jyO6WXYokEnnyaRkGFU+iUTZRBK2mXz35q0mnKbceDyxKnmaNpdQmexSMH7bjgJzMErFe5pDqlzgNJdwzQRCtZOIVz9EuPQRUo3P8/ELQzn9sAIuPCGHD1+5CVflcny1jxNveRJ36Sx8ZZMxmmYQrywmXDLCDChNSBBn7QwSW8aSKp9ErGQCRv08/LYZrJh3prlNS6GWwxsvv0Y8njD/qcjTulBAJx6TYX16sbW0n7SzErGHTJH2FxE76aiIXbYlsiuBJxzEHQoS9IUI60ECMh+ke/F4Zb2dG/eWUrasfJtP7xzPh2feyMdFV/LVwCF8cdIQnj7mAsaceA1FfY7hhC7Hc1/R7UwaOIL5J45g4VHDeGzgMF699D4+uH8izR+twbDXE3O3mNfVnV488upyd+ew7ncN6zKHdHIsMBBRDa5gowAlntO9995rPsYXOA0ZMsQMCZB5KXmkqYxQDE/OUUASo1TGaK1jzZe0QEngZAWUpGVOSM4TLdeU/0YSAf7999+bc1ziWf3jH//guRqJwAAAIABJREFUrbfeMie8xbN7//33+OyLT9i46UfzSYFsFp+Qd8DJE7iYYb4VN5VIkpKFwMmY+Z8+LK/1Tkqwpbz3LQ0meSV4KmSQkKd24RSRqIHLG+Dm2+9E07pRIC+dzNXSLwPornHkXhpXDz6Yp6ecS9VnIwj9OpZEzTQStgnEKsaQkrin6vFEKscSKh1r7ukULZtMonI6sfLJRCTwsW46kYrphMqW8OrDl3JYF41npp5LpOIRIpWzCZaOJSVLYSQOqWwmKVMkLmku8QrZSG4yoeqpBGsewVP+GPU/LePyU/dlz3yNlY9eSNj+FN665ehVy4k0PGa+UcUv0eMy0V47kmDJXcQrZPnKWJKyW0L5ZEJbJpGsXkKk9glcFU9x/83HmrFeBVoeP63fRDKRIhyWvbUCeH1OkkmBUXpKQEGpPa3sQ0GqI6BSdtqaFs/JGwrgi4TwB2QqwY0vKAGXPlocdfgaqtn61iq2LFzBr7dO5rMTruWTo6/k46IhvHjcBSwsuoiL9ijimC79uL3fxcwxh3H3sOqMkbxaNJR3L7qHtfdOYN38xRgt9cSc9XgcDQQD4p2FcTkkBKd9OFnjm1pLy2glm7QXSqDimtrSrcU57UgogTXmqbW02p3Aqtucc7ICSSBkPZZ0Jpyk0SVftJR98MEHZiClDJEOO+wwPvnkE/O/oYBDbq4YmBigHFuNTBmeKldGqvLVsTpXzhdR+epY4GUVBTKl1cR2OtgyRiwp72cLmVBLxFIkIwapiIERTocISPR3NCyv0faab8ONJ8IkUglz98tYTN4kEjHPkXCCuM8g6jNMwIWjCeY9tAxN601u4e7kFmrsuZfGgXtpnNS/gPOO2IPhF/Xj1RmnUbbqZiKbp5ogScrTtOqp5q4FkYqpBEqnE6ycS6BsHsn6R0jULyFWsxDDvgR/xWICtleYdPsJHJCv8fmr9xOtfoJA2QISdYsw6haSrJxPsmIByYpFpiQqFxG3LTSDM0PVC/HXP4Wn7kVeXXEnffM17rzuOOy2x3DVLCXY9Bi+6icI1jxGpPYh4s75RGpGYDQ9QKJuDAl52lgrwaMjzGFerF527ZzF+yvvZeoD53L0Ib3MNYb77XUAjXUe88WfsWjK3Gfb67OTTAUQ2Ks2zKaVLYhWtpPNg2oNSta8SDhi7krg9rrQQ26avY14Y06a6ktwbFzPG/c8QFnxAjaeezcbim7gkyOH8O5JN7DitCGMGDCYAbl9uXiPQSw++RZeO+Uu1p54G9+edCsfDxrC51fdwWfF49ny6ouk9CZ0dz0tzkZ0v8ApgsuR3XNqDUjWvGxgkvK/LJwUmMSwZFh10003mRPSMs8zZcoUE1jiZahxtUBEhnRynpyjjMxqeFYjVfnWPAWi/wScBDYmcMzhW9prEs9JACU6Fo4Qj4aJRYMkkxFi8nrvSJRgNEk0mcQXchFNeEnGYyTCKeKRKKlkiJQR4a1V/yAnvxe5Bd3YY58C5s27kedXDDOHTB8+PYxvX7qLn18biv270elFuzKXI7sR2Kaln9zZ5uP5ZTY/vXcf6/85nC2fTGLz2smUfDqFzZ9OYsMHU/hy1XKuOONwc+eBj16bwvcfzeT7D8dT9s1MNq4Zw6Y1E9Ly8WQ2mTKJjWsmsnHNBH5aO5GNXy9g3YezufWKAeb80OMLhlD+wxLWvT+CjZ+PZ+uXs/nxg3Hmdyj7egReeVrYOAmjbibBzWMJlTyIbANT++3d/H3xYG679FiuOGM/DuydS095O3CuxhWXDsHniRETgMfkzcQ+giE34aiHcCT9MMTavm2llS38p+AkuxIk4wlamprwhb3oMS8twUaa3Taayn7mm2efZPngiyi9YwrfD7yRH4tuZtXhV/L6qTcz68QrOKXn3pzU4xBGHHslj594C2+fMIwvj7uRz468gtWDLuf9y4by9cxZBDb/RMRehdNRg1t34nSL/UfRPRIX2Ok5Wb0mSWf+bV9bJ9BQ0lHPSf4TiWciEeBqAe6gQYPM3QXE0OS/m9BeriswUnCS8/5YOMncUcR8LXd6billAsmEU9QgGUuZ800pcxgXI2nuPiBvW4mnPScjRSBpJ5xykEgFSaWipFJe4gkHhqFTbvuFffY7gPz8HHrvls+770zGVf0I4fq5hCS2qXo2yZJJGLbpJCsnE5eFuLappKpmkLTNJVW3jHcfu5j7Lz2Uoacfwq1nH8GNZx3J7Rccxc1nH8k1ZxzNlecUsV/fXiYIrrm0iEvOPpprLjqK6y4+jiFn9+e6849Ky3lHc915R3Pt+UdzzflHcc0FR3H1BUdx7UXHc815R3F4ny7mPuMXnngoN11cxLBLD+OGc/pz6/nHceMZ/Rl6+kHcd0k/7OsfSE+IVy4iumUW0eqp+H99gDXPncHMe/bkkhO7M2Cv9KJneQNMQY7G/DkPmWsPQ8GkGUUvcIonAmlAyQJgy1xTe+ldAadEOIarxUkoHkKP6HjCLTTVbaHmm095+pbbePrE8/nx0vtYP/BmPjviWl4dMISnTrmZq3Y/jkO0nlx9wGBmnTqMp4tuYtXxN/HT6ffx1QnX8fYJF/PihUMoe+EFDG8zvoZy3I5avF43TpcHXY+ge9M7Hqh/3K3FNFm9pNbSnZ5TBrAEWlbXWA31ZP2bejq2aNEic3glYBIoqToyJyVpMbQ/Hk4Jc2eBhOyUGZN00gRS0tSyf7hsOpc050VC4SBxWXMXT+EPhAmG48QNg0DKS9jwE44HicRkMrWK0tKv+Mc7TzF+3D3s3XcvusmOCPkaKxbfTrD2SaKyd3fZOJKyt5NtIkb9NJI1svncRIzqacTLpxArm4FR+wirlp/PXRf04abBe3HbOQdx/ekHcsvZh3L9aYdw9eD+nDnoQHp21zjj1IO5/OJ+XH7hQVx7+X6cf3pPhly0N0PO7cOQc/sy5Jw9Tbny3D0RueK8Pbji3L25bPD+nDagFwd117jqtKP5f+y9ZXhV57r9PYNDgSCBhOBBgoQEp0ApFaiS4i6luAR3KdbSQqGlXiyOFyrUaHGJK3EDCrHlLh9/73XPsNpsTmWffbr3Of/36ofnmnPNJYGsJ2PeMu4xQgd3InSQP1NH+DN+cEsmDm7DjCfaM32oH1MHNcCYuhFL6kbsGbtx576NNlU00VeR/9NrJH45m59OLOLQvkWMeqq3qsxQW1H4/PSXuF1ujIaqwWgBJ4ksLRbp1v73a05/XeRkwFRpwGq08nPZz6qy5Z07mRQnXSM98igHXxjD8T7P8VOfMdzoM42THV/maN+prAh4jkClJQOb9WR5//G8PWAqEb0mcyoglMvBU/g2eDRH+jzH1wvDMMZfx224j+ZuLnrNz2gry1UOVbnolOvMlP8dOf0XnfG/LHISoBEAkoFe6YZJd06Gd+Pj438pXgsgeWoD8nqJluRx9U1W/a5Y/e7puV792l+V1klI77R6lvMhQIkSQVVXzuawodNrsFgtWOWao8oGSoq6VqsTm8ONwWan5H4pF366xEcfvsu818YzZtQz9Avugo93XRrWrEUDpYaqRrlw/BNo0g9izX4LV+5mHKlLcKns7NWq0YA9W4rLq7HdXoVdCtn39nA/fh2XIydw69RcEs+t4FLsUq6dXM31Uxu4fHobo0d2pFF9hQN7pvLFyeVc+HoZl79ZyHdnpnLz+/lcPjeLy+dmc/ncHC6fncfFc1Xrpy/mcPHcQr45toyXH29Ku3oKsfuWc/nEFq6fXc+1k4uIO7OEW8eWk3RyFUmnFnMzciJuqVelb8SZ+Rbu/HcwZosCwjqchbuwFryHJucImqKvGPNcL3V8p5WPD8lJ6epoj8koGu4uNa1zu2047FJ//N8EJyO6Mh02o437D35Gq7lPSWo837+/n8Ttb3J+1DS+CnmeK73H8WO/aUT0GMt7g2YxpH4AHZW2TOgRyuYBU3g7MJQzwVP5PCCUb7uP5mxIKIeHjyb9o09xV9zDWFaAtqwYs64CTWkpBr2R++UayrTGv8GpsPDfB04egJEhXImaBJyk7uShCgioCN3eEy15gEUAy5PSydEDQnKsDkSe69WveT7jf1pzctpl/MSlLpdVwKlKQE6MC6yynFY0Bg0OlwuH04XRJDQGO9LBu1dSwuWfrrFr+3vMmLyYZ4aNpFenjnjXVpCRlYZeCo1qKLRrUpumtcQFxYu+/s05/9lG7l/fj/vuZ7gyt1bxhPJX48xZiSN7Bc7C9WpB3Jm7BlvBBmwFVV05V8kbuH7ehz7vLQz5+7EWf0JpxocEtW6ADBcnfb8TTd5naAv2Yyx8C1vJW5jyd2AveEMdR7EX7MWe/w7Wgr3qshS+jalwH3dT36NvQF2C/RUepB/HlB+Brfgz9LffwFW0H2f2+zhvH8Cdtw9XyR5sGStU1QJ37i5cObtwFW/BmLUSZ+FuLAUfUpEVQWHySQJ861NHUXhx5AjKHlSoig0Ws3RZq2R6JQUWKsH/JjjJyIpeY0JTIeoIRkpzs7jzwwXeDR1L+pINXBw2jh+CXuD7Xq9wesBk3gkaw/wOzxGgtGRwsydYPHA2b/adwr52IznddQxnA0L5qudovnhiCl/NX4Xm0iVcRrEQz8OkL8OgKUMv+mYaHXdLK7iv0f8NTv9OcBKAECBatmyZCkwCTqIVLWAiwCIRkjwvHTQBKEnl5DnJs+WaB6A8IPSfBScBpoedOQEnNToyYXWaMLvMmJ1WLE5J36rASf4fcTevcWDfHmZNmcCIYU/RvnlHGimNaKTUomVNRV1Ph9RkygttmD+xF2sXPEVP/3o0Ubzw8apBaL8eLAkdypn3p1J4YRmmtNW489eqHCaJmhx5QhlYjSNnGfaC5Rhvz8P982qsxcuxlKzGVLIBQ9HrlGdv5frZ2bSpqfBicCN0aR9izXkXS9YubMIIL9yOVbTEszfhyt6CK2uHupxZOxCVTaEU2HLe4G7yLgKaKTzXR0GXH6365NmL9qgRkaNgC9Z0IW6KO8wWXEUyXiME0DCct6s+25a9ClvhJuyFb6PJPIDpzjk+D99B41qKCk6b12/AbrVjMkkaJ1MBsi8Map3Potab/vFmVP0m9Oh59T3i2TeeiPz3jtXLD4+eixKBwWRTx1f090vRJCZzZcdePur/DPdf28Cl4JdIGDyFyICnOTpsOgs7DKd3vQ4E1w9ibOfxLAueyb6gCRwJeJHTAaM432McX/ebxNeh80l7/zCu4iJ05SVU6O9hMWupeHBPlV+peFDG3dIy7mu1lD9UvpS/h79rTlVR1D+d1gmgVF+PfsGySYT3IKxqoQ+ILG5CQoLa5pciubxeNo6AmHyOpygu53LNs8mqb7xHN+U/81g+S1Z1GoGcS6dQ1qPX5d+mzsYJr0kKtWZRFbDhFFByGDA5jZhdNqwuF/nFxZw8eYLFC+fw0shn6RHgR+OaCk1rKjRTahLoXYPnejVhwUsd2TijKwd3dOXMp/35KvIZzsdOZ+wzzdToRnzjmnspqtnlC/28+WBzD3RpK3CKAqUYHuSswZktayWunGU4C0R9ciHu+0ux31uCsWgRusLl6Io3oCncxval7WlXQyF62whcOQew396FM7NKpldVthRlTdGPEhne9HW402UIeDPuzPW40sSf7nVK03cQ1E7hqV4K91PeVQd+rYVinb4CW+4y7LfXVI2oiFZTjsi8zMddMA9n1jJ1iFgE6Rwl27AU7KUy8xNMJd+yZOoIld8kkdP1y1cwqQ4rovVlxSHefjYLDhlfeiRK/q3vufq++K1zz/6pfqwOVHJDkSXX5P2yH2Xvyev1smx2yh6UUZZ2mwfnfuDDQS/x3eBxFI+cz8WOI7gxeBqf9nye3cMmMbRhV/wVH0Z1fJklwXPZGTyPo8FTOdb5Zb4OGs93/adybth0roftRHvpFo7yB5RX3KHMVIrWUElF2X1VEriirJwHlZWUquD0x5Ipv1UEr37NMwTsKYxXpw3I+X+KSlBdQuX35FP+cp7To2D06GMBBBm+Fca1pHUysiKELrnu2Qye91TfNNU3k5xX33i/tUn/7NrvgZOAkGd5ROTkZ8nnOYVEKWmdWbp0UgMx43SLWYGRe5X3uJmSxJt79zFt5ix6BwdTTwCprlgtKbR+TOHZ4PosCQ1k+8wuHN3Ym+/eH8yNiP7cjA3i6vEu/HS8Bz+efoY9m4NpWb9KGVPSvrlTn+S9t0dz8csxGCRCyllaJXcrzG8RbROSZfYKXNlLcBQsxpQzG2vxYqwlyzEKMBW8zoPbu+jfUSHIWyHr62W47xzAJT54qnxJmKrR5JYoR0ZhBKTSwnClSgFe1AnW4k5biiN7Pdrctxn7rDeBzRVSL2zCWrgXs+iPZy/GUSJDwQJOMn+3DHfeQtwFs3Hnz1FdWUQFU8ijZckryLq4krOfzWb5jFACWzWhSZ3adA/ohL5Si14rhW89Nvn9OqoAymGxYzULQP3KCv+t77j6vvizc8+eqr7P5GboKSHIDeofbpAGPWU6DQ+Kiim/msDlNbs53OUpEgdMIb3neK53HsW5kDHs6xvK1G5P0E5pQWD9zszqNZktvRbyUdACzvadyXd9JvFlyDi+eepVop6ZRvmJb3HnFmMqu0+FtpT7+jLKdGVoNOVoK6VTp6Hcsyr//wdO1YHqtwCp+rVHaQT/LSqBB1h+7yh/8DIyIhGTpHTieCKbQzaafAnV31d903g2kudYfeP91ib9s2u/B07yPnlOfo78WwSoPERMGU8RPSanyYZb6AIOE3cfFHDumzOs2rKW50NfpqVfG+rUqae6qTSrp9CvUz1eeaIt618N5vD23lz4bAjXjvQjMbI3yVE9SIroQHyELzdjfLh2ojVfR3blXNQzdG+r4F1HUeV7P/5gFmXlBzBot6HPX4g9bwGufPnjFxDYiFuMKmVmLXsVjpzlWPLEUHMttuJt6oyb5edIPnvjFfzrKCwd35X7STswFu9Fm70eS/5KHEWiFbUAd9FiHNnzcJeIF95KbOlhWLNXYMtbiT07DEvOJipz3mXb8kHqZ536cAaW/ANY8rZhyRbA8xhrCqCJfO/SX80YJMrL3cTdm3P4aGsvXn2xO8/3bUkTiQ5re9G4di2WLViK1WTFIt+BVa9ymmSeziKdT5MNq9mOxfQrkfa3vuPq++LPzj17qfo+k/cIIHn2gadzLK/RaDWUFOfxIC2N9M9iiHp6Ct8GvUL2gFdJ6DiapAGvEtV3HBv7vETvRu1pV6cVo7o+y8o+M9nXbR6x3efyXe/pXBo8lXMDx3Nq5Ey+XiI+hHdwl1VSef8uFZpySnVVq1xbSaVGFDU1qpW52Jl7aAT/alr3fzFy+j8DTvKHL5pKnuHaGTNmqGBQHZQ859U3jWcjeY7VN95vbdI/u/Z74CR3S/lseb8cBUzlZ8rrzSazKrHrsti4W5xPTOxhps2eTP8h/Wji54NSQwr8dajpVYvHairMHjuUN5c/xdmPxnA5+iWuRw/g8uE23IpoSUqUHxlRfqRH+JEa4UNyTDMST7bi4vFO/HT6KWaN9UdMNr3rKUyZ1IXCu7t5cH8luuK52Apfw1mw9KHbrgCTmG2Kw+5GtWDuyNuEOXsrxuw9aG5/hr7gHIM6NaN1XYWvo8PQ3TmItkhGTbZjurMFXcFyzEXLcZdvQnt7MdbidThKtmKVz8nbhLVoC7birdju7qMi7wjfn9pK16YKr77YCUP2xzgK92LKWIlThOlUt9+HYCkRmMz9ieFnzmYcOdu4F7eAzz8eyZqZj/Pqy8H411fUBoDM0924eFNNnUXDqQqcNFjMuofgJFK9TiymKn353/t+q++LPzv37KXq+0y+Z3ks75XnPTdMFZzKHlCak05cRATn5qzgxIAx/Ng1lPyB87nWeTxXBs/j3X7jmdbxcdp5NSO4WTfChk5l98DXONxlFt8GzeFKn6l8Gfwyp4ZPJHrcHO5/9RO2kvu4RVnzzh00mkrKNZU8kAhNp6FUp6FcK6mmRFC/Cs39DU6/du3+6ZqTB1h+7yh3JRlZkahJlgzQykaQTSAbo/r7qm8az0byHKtvvN/bqH90/Y/ASZ6TiMlTg5LPkXO7zUpBVg5Rhw8xZ9ZkgnsHUqdhDZRaCkrtGig1Rdu8EbWVGjSuoXBo9wJ+CJ/N9ZiXuXwkiKTjAVwL9yY+ypvU6OZkRviRebg16YdakRbRgqRYXxLOdOZCTD8+efMZdTzEu5ZCB3+Fy5dXUFm2BUPJfOzFHnCSSEVASSy/t1eBVN5mLOlrsWbvwFr4Ieb8WMLfmkfrOgoBjetyJmIrl86/wYWza/jpXBhXzy/ku1MTuHhmEjfOz+Ty6SlcOT2d65/PJf6rpSR8HUbcV0u4fm4hV84u56ez2/k69g2e7NGUrt4KP0Yuwpj5NtaC7ThEoylra9USakPOKtXDTnVlyd2GLXcnuux1WO+/w52kt/nq6Gp861Wlr4NDBqgteqtZZHBMWKw6rDYtNqsBm1hDmZ0qo/7fDU6yr2QPyt6To+zLX86Li9HE3yB67gLOhs7i6/5judJjPNe7T+HH3rOJDJ7Kqu4v0rd+G7rVbc2oTkPZPHAyH/WdQWyHCVwLns2VXmP5IuRFPnsylOt7DuC+J3K+dzGUVVD5cyn6iqpI6b5Ox12DhnuGKpBS5/gqK/5Uprd6fem3zv+OnP5gslu+cPGV84DT6tWrf0np/i+Ak/wbRABPIibZqFIcFxUDcQM+fiyG6ePGExzYiXq1FVV/qXb9Gih1vVBERbNGfWrXboREAT61FXYueorLEeO5fDCYxKhWpB735lZMYxKO+ZAa04r0o21J+6QjqR+1JeVgC5LCm3LrWEsuRffgu8gpjAzxV0dEWtRR2LNjBIbSdzCXLMVRPA9nvhgLiGibgMGOKnDKfV2tEVkzVuIu2oGt+F3uxL3DyGAf/KTu1aAOLwzry/NPhfDik9144YnOhD7didCn2jBhRBteGdaGCU91YPTQ9ox5oiMTng5k4tPdGDe8K688EcDLQzoxangQLw0LoYdfY7VQvyC0HUVXhGP1FoZkcWaRKG7rQ9vxlSo4iV2ULe91rHk7MeRupCJvB+aSo8S+t0hN6x5TFN7b/Z7KtjcbZdzHgNWmwebQ4rAbcNqsOM1uHCb3vz1y8tSYZJ9KSucBJ6lD3U9PJ/vIYY4+9zIXX5zBt71f4XLwZL7sNoHTIrsbPImxfo/TVmnMSL/+qgLBG0GjiQqexLkOr5DYeyY/Br7IpRFTiJwwE21cHE6zTh1Rqbj/AEOpBnOpDl2Fjvs6PcVGLcUmAahKdJXlGMvL0Tx09v07cvo3RE4SgYgfmYCTqBBI5CSAIJvAc9eSjSHrfyNykihJakweyV3RsRYTBXFyCQkOVsXgZMyippdCTQGoBjVQ6nih1KpDvQbNqenViHqKFy1rKYT2acKVw89x63AAOae8SQj34kZMY24eb03KsU5kRAaScbAHaZ90IOWgN0nhdUg6UZdrx1pxKWoU+1Y8h6+i0NJLYXivphTEb8VashZH0RKceatwiiDc7W24s3biFkXMgs2quaWYb1pEM7xoM3cSNrNyZi86NVeqIrGaCm19avLy8G5MDe3L5Jd7MGFEO2aP7sy05zsx4/nOzHyhO3NGBTP7xV5MHdmDWS8GM2tUMOOe6U7bJgq+DYWHpRDoU5Ot8/pSkb0X4+21mKUGliMRkxTpV1dFTYULsBcuxZq/GXP+NqzF29DkbOdB+vs83y9A/Zy2TXy4nZCtgo9dyKp2kwpMVrvoc+lwWMyIksN/CpwEoGTvyVFASUBKOsw5ly6TuHUbXz7zEpeGjuFiv7F82W0MX6np3AxW9Z5An7qd6aj4MLPzSN4YMIUDgaM41W003wa8TFzweK4EvcSN0a+R9t6HOO4WYHYaKNE/QK/VYy7TY79vwFhm4Ge9ngKzlnyLljvGCgwVZVjKytCU/+pV969QCf6OnP4gcpJ0SZQHhEYgCpQilyIbQcBJgMEDTL8HTgaTAVlGs/GXZbKY8CyzWc6rd3SkgPrrkoKqFF1tZun+yHCppG8WrDYZJzFgsuhVZ94HpfdVAbw5s2cR1KMHDevVo46XQtumCp19a+JdV6GecHPq16Be/VooXrWpW1/AyZtGteqpf3RdH1P4av8AUmO7knv6MZIiFOKONefW8QCSYgNJjexO6qEepHwWQFq4D6mxjcg8582VmJZcjBjB1x/P58kOrVTVSr+aChF7x2IpfgNb0Qas+a9jzdqB4/ZbuLLfwi325YWbcBfK5P98tOmTcd4JQ5+3ntSLS3h/14u8MNRX7QK2a1qTFbMHcjYijPjvtnL1bBhJ36/m5ldLiP8yjKTzq0n7fjPJ5zcT/+Vmks7v4IuDi9i8aCgBzRX8HlN4fkAAH22bzO0LWzGX7Ecv+kx3qmyfpCvnyl2FI3+ZaqwpQnKm/G0Y8t9CXygOMB/x/YmV6u+oSS2FuZNmYNHZqqRnXG5cLmHX6zFZyjEaK7EY9NgMf01a59k3JpMRk9GAWepLegNGdRkx6E0YDWZMZgtaMXnVlFNRXkpRRia3T52h9N0D/DD0OS73eZnLfSdwoud4ooYtYH2/SYS2e5K2ig9DGwexvPsrfDRwFqeCp/Bd93Fc6RHKteBXuDp0At+NnYPlVhyWsmIqrBoKtfcxGkzYKkzYH+gxlenVyKnQpKXALJFTBYbKMszlf4PTv7VbJwB05coVFZxEh1vE3QSYpJYkEdTvRUsSVRlNBvRmHXqzFoNF98syWvUYrQZ1yWCuxW7FqNYORAFTiqsOLBYRLLNi1dtwmp04LS5sehd2k/jOWbE5y7E5S7mvyeXL706yOGwhgx8fQON6dWhUU6FVQ4WRfb1ZO701by/twtSnm9CxsaLWlprUq0kdpQ5eSiMUpQn1ajZSeTtNvRTeWupP6plBpJ/0IfVYQ1KOtSYpphPJkR1IPNyBpMOBZESFkHi0B9+/14ZrEb34/P0gTr8I+JWnAAAgAElEQVT7Amfen8/8UUNpoShq+vPiQH9SLm4n59Zm8uJ3kHN1GwVXd3I/7k1KLq9Bn1oVsbglcro9C3fhIiz5yzDkb0ST9wbnY2ewbEZ/erevweDApswbO4RLp1ZTkfUptntHKM18G2ORaDG9g6n4Q0zFBynL+IwrpzazIPRxnurRguHdH2PeK8F8Fx6GIfMzrDn7sIiUb/4GXHlrsWZKx3Azd68t4u6tZRTFrSL3+loK4t8i8/peUm/sI/HqAWZN7EvD2oo6Txdz5DA/371LUUEBZaWl5OVnceduPja7fH9aTHo9DqsTi0GK4f96t06AyWDRq8to1mMx6HBodTg0eiw6IyadBavBgUXvwGp3UmE0UKK9T9n9Qm6fPkPc5tdxnzjOD48/za2QsVzuM4uPek5h19C5zOwzms712tFJacmrXZ5ja9Akjvadw5c9Z3Gp+ySuB4/m+/6hHH7iFeL3fIi75C6msp8p05Ryr/wBZr0RS4UBc5nI8eoo1+j4Wa9R604PdJVoNeXoZc6uokKN5iSi83TuPBGUHH+rzlT92v80cnrUGurRx/+snlP1Dl318+q0gT8694DUH8r0SsjrWRIGV498fu9c5GybNGmiyuKK/ZPwnCSV+r1oSYBJBSezAb1Ji86sQW/R/rJE7Mv4cFlsRky2qqjKYDRhtthxON2I/bfV7MBpqnJAcerdOA1unEYXVrMRjT6PlKzvWbVtDkOf60ud+nWoX7eOSp7s38mbJeMDCd8ezMWPg0g/PpCv9gWxZpwvTwfWxremFHVr8lgdb2rVbI6iPEb9WjXVcZQX+tfmQvhQ4o51Ie1kG1LCW5MZ3YHMmLYkHm1FUnQXkqL7cXitP9OHePPaiLZMHNaa0U90ZMzwIIYEdVRHWxpIetdAYfKoQcyd8jivTRnK7AmPM2/SYJZOfYKwcb1JPCNml1IYl/QqTPWaE9cUe8FKTAWbMBS8Qc7VDRze/Twznu9K27oKowd35P3NI0n6dj2a3Pe5l7YL490DmH/+kIwrGzn0dijjn+xGSxkzerI7J94ZTe5PK7Hl78eVuxun1LkKtuDKW48ta43qDHPvRhhh44IIm9iXxRMHMm/8QBZPe4oZ44czdeIIxox5mhY+9ahbV7wIFSZPGsOcOa8ya9Y05s2fy5Spk9i5axtWq6kqqrVY1ZuWzVqlcio3uN9bnr3yW0ej7B+LTt03JrMWm16DW6PFXanDpjFj0dqwa13YDW50Jiv3jToySnMpzorjwoqVfBc6GveRg1wbMYrEvtO40Hs+O3rOYNGgVxnY9nGaKI0Y1rg7G/qMZ0/wNI70mMkXAdO52HkS1/uM4/OhYzkwaQ6lSem4K7QY7pehLy1XC+F2GY0p12AQeZRKDZrKKvqAdOpUCoFGaAWVvwBTdXD679Sf/qfg9Chp89HH/0+Dk0RJAkZijCkkTJFMEfNESffkF/5bkdOvG01kV3UYTDrkzle1dGoqZpaJdYsOi9WAySz6P3LdiNUmnTcrNhGVk9qFw4xTit5GNwJQIhJXknuf9w7sYdyUF2jYrA61G9ZXAaamUo+mtbzUQvHXEZO4GPEESVEhpEX1JCE8mAsf9uaDVR0ZPaixmu5416lL3ZoNqOVVl0Z1atLIS6F9Q4UT+4dwI6YvScc6k3jEn4zYNqQd8+VWeFMSj7dXSZg759QmqKlCoLeCuP528FFo00zBv4VCu1YKdQUA61TN33Xyq09735q091Po4KvQqaVCDx+FLz4MxXX77Yd1KOE9LVdtywWgbAWrMBdsxlqyj/KMt0j5cRVbFwzmicC6BPspzAvtwZlP5lIYv4+KnM/44cQi5o8PZlCXBgwPasTiyQO4ciYMc+5O3He2qDN99iwxT1ipLmGA27NX487bQs4Pc+nloxDkq6hkzZ5tvejir9DOrw6t/b3xqqmg1FDUY7sO/rTyb4Zfqxb4tWpOS18ffP1aEBo6Sp2jk8aE3LiEuSyNid8DJc/1X/fKb8j2/gJOOtUswa7X4tbocGrE8smMWWvDWmFT98T9ci13NGUk5SWS/tM5ol8O5esnnuHB6jUkjJpK3MBZnOk5i+0D5jGmx2h867alVS1fpnd9lp39JvNR75kc7TSR77rM4ELAOG4MnsqJZyZy8cAhzA8qcYn33b1SzGUa9PfLsWkNaMsq1G6dAJO6HnKchOfkIWHK34hneSKnv8HpH8kEv6vn9HvRkue6/CLlXIZ9xblETAWEWiDXJAL7Y3AyYTIYMRuMWIwmLJIKmoSkJ8L3eixmvaqRZJU0zyg1LDG6FF1xo6pKabZosNjLcDoMan1Dd8/OVye+Y9HsFQQGdKFWDS+8FLEfr0edmr7Ukhm4Ggq92jXiyP7h/BQ7nFvh/UiKCCEhPIjrR4O4FN6H4/tDWDKlFb0711KlTup71cC7ppeqhy0p2dtLO3P5yFCSj4UQd8SfJKENxDQhIaYJiSf8iT/ZjeN72rJqii9rZ3VixasBLJ/XibD5XVk8P5AF87rRvWsd6tdSkBrNiEHdeHv7dPbtHs+uLc/y9taneH/b86R+vRTn7X24M3fjzhSKgbC1hawptk5hWArXYC7ZgTZvB/rit3iQtoOzR2bw2st96N1K4aluPuxZ+QofbpnESwPa0KWJwuQRgZz8ZCJZ8Rsw3XsDc8EynEWLcRYsxJEn1uhLcNxeiCNzCe6STbjzt6JN28ChnSP54PVn2L/1eQ68+TK7No3k7V1TmTB+uNrlFHAa/vQQ3v/gHfbte5M9e9/g3ff28vaeN9iz902ioyNVG3JpTAjwyN6QtN8DQr93/GNwMqKXtE64U0YddrEpEy86ndSdTJglraswq+NJGq2O4p8LyUi5Ss5XpzgbOo5vB4/g0shQroyYzIX+0zjccwqbB89hWKsn8VaaM6hlf1YPmsqeATOI6PcqJ7tN4mrQTC52G8/l4TOIfmEqJd9eVl2BLWUatPdKsWn0mMo1WESL/EEZOg8wyfERcJIIygNMcvwbnApVuex/hCb4l8HJU1/asWOHWhCXrt3u3bt/YeX+ETiZjWbMegtW2UR6K1aDuWqZTNiNRqwmAy6HzGEZH5L3hCejx2oVDpUGk6USg7UCrVFDenI2e3d8yBMhw2hStx6PedXAr6lCU2+FWl41qF+zsVpHekzUAhSFGa94823Uc/z4ST+SIvuRejyYmxEduRrZjpunQ/jyUH/2rg8kdJgfPnUVmnkp+NRQ1G7buP71uHpkFHFHBpF4MIDET5uSFtGUjNgWJES24FZEB+KiBnIlfDhXol7i2/AX+C7mBb6OeZGvj4/hy+PTWbMoSP3cJjUUBnbryNUfPuFeYRT5t9/mTs5OdEX70Ge9jfP2ftyZe3Fn7MR9W8iQMocXhrNgiWrtpJfh4JItVOa8ji53L+a7EWRe2cfGOU8Q2FihW+Ma9GvjTcBjCqtnDSX+23VoCt+hrPB1KgpWY8xZjLNwKS7xsBOL8vxlOLNl/GUF7oJNuHK3YM15Hcedd3iQtp3S7L08KHyfopx3yck6SmjoAGrWUmja3JtjJ45iMFZiNmspK7+n3kR0+kpkybCvKBBIs0Kvr/I6lLrk74GS5/ofg5MJvUWaKXrsBj12nV4tisvMnBTCTXqzWpR26syYjTqK89KI//I4uq+/IHPBMn58/Hm+6D2SLweN5cyAqRzoO4X5IWPpXr87vkprxvcYw+bHZ7O/70yiQ6bybe8p3Og1iSvBE/hq+FSOTV6AJj4da4UW/c9l6H4uw6E1YqrQYCir/ENwUoHpb3DCU4f6t9WcJEoSS3GP28ro0aN/UR34Y3CyYBFQ0lmx6W3Y9HK0YjNaHi4zNpMRh82kyuSaTFJor1SByWbTYrHpKbp/j0NRMYwfN4U2Pq1pqNSgRZ0aDOnVgAXTOjJ9bHsGBnvTvoVCwxoKjb0UxCK8e2uF/Rt7cCt2BHERIdyK6ERcpD83I5tzLdqXa7HduHriCcL3DGTu6AAeD6hJKy+FgLoKPRsqHN/xJLcOjiD9aDDpB/3JOOxDypFmxB9sQfyhTlz/pC/fvNOXb94bzpm9Qzjz3hMc3z+EY+89zemPx3J49xiC/eqqhfFmtWuybe1Ebl7eTXLCZjKT15JwYR4VGUKElMjpHdwZb+LOFA7U6oep3ULshQswyIhK+TY0uTt5kLobY/5hbl/bzxthz9KpURU4Bfs1UAmW25YOJfXSWiqLdlFe+DrluWux5KzCLUJ3WcuxpC6uMsUUa/FsGVnZjD1jE4a0TeRcDiPvxhoyb6wj9dZGEm9s5OCnM/BpXodatb146ukhxMVfpbg4jzt3C8jKTiMzM4X8gmxycjMpLi58KI8iqbx0UO0qEdYDQr93/KfASVQO9AZsOgNas4kKs0n1ozPqjdgqtTgFBO4XkZ9wmWMbVmE7dpK7S9bybcgIvuk7luMh4wgfMo2dgybyXOtB+Cut6VU/hHnBs9gUPJMDvaYR1TWU73uN5qcuz3MhJJQTz0zh+w27sebdxVapw/igAv2DCqwaPfqHwKQpq/jdyMkzxvJ35FSkAtS/BZwkNBdwkknkDh06qGMsMgQsygSysf4YnDyRU1XXzWqwoS6jDevDJY6sVktVjUnUKC1WEw7RWdKWk5Wbw9JVWwjuN4QaXl7U91IICVCY+pwP+ze24uzhfpw9OoQPdgWxeLovg7p70bqhQotaCs1qSPG4LpcihxAfG0R8VEcSIv1JPeZHUkxLbka04lZsDy5F9uPbw0/y8ZYgRg9sSM/GCu0VhZ0z2pMYPpaEQ71Ji+xEWnRbEiNakRDVibjwYA6t9mP6gMd4bZgvkx/3YcZwX2aO9GXsEF/VSXfy0z3p7lNPlcYVjlGfrr5MGz+QubMGEja/L1ND25Fwfhb2nN24b+/GnbELd+bruLPEUlwGeBfiLFiANncJusL16At2UZq+m59iFjN3VF8Gd6jHE4FN2LNS0rGXmPC0D/0CFGaGduV87GQeZL2BNncHpkzxwtuMU7Sjbq/EJeCXI+C0QTXNtKVv4e6VlYSN6cLamQNYNKkPsyf0ZvbkYPoGN6N+XS9q1/EiOKQXr82ZyezXZjF33mxenT2DWa9OZebM6UybPoVdu3ao0ZPdLu450sXV43DY/5LISaIyp96IVW+i3Grhvs2MRqgpEqFpKrDeL6E47RYJp6PY98ILlGzaReb4uXzdfSTf9J5KRPAU3hs2nUV9XqB7/fa0rdWe0PahLA+Zx86g1zjSezbngsbwU9BLXAl6nh8GhXJ26hLunvsRd5kWu9agpnL6sgrMFVp0IsNbKr50ml/B6aE6wi+g5Enx/q45/fvAydOVk/ROOE5ScxLO0/vvv/+n3Tr1rmiQupMZi9GKyWhTl9nkwGx0YjY50etsGE0OTEYHVpHPdbt5UFZJZEws02a8RoPGbalZuwHeDRWe7NeYnctb8sWnnbkY2Zpbp9oTf7YbV0725OzBIN7b0p55o30Z1r2WGlVIsfrdNc24dLQ1aacDiT/qT1qkP7dj2pIS0YrkqA7ERXfhWlRPbp4Ywsl9QSwJ9ePZTgoTezfi8icvcvmTXirHKeVkJ+Jj25N4oic3ovqza3YDejVUCG6k0KORQk9vhR5SGK+v0LWJQptaCp0a1aBT46p0UeRUJLLr4KcQ3EWhk6/C54eewZr3ehVDW8iZAk5ijinyJXmLcOUvQZe1Cm3uVvKuhXFg8zO8MqCVms4tCg3h1PvTKM14k4q87fxwajSrXuvF4128GDXIlzdWPM31MwswpW3Fnb9d1X9y5wvpU4igq3GJ/1zBNpzZO8k6v5TBbRR6+yn0avUYnZo/pqoz1PNSqF+nBn6tWtKmbWt8WjSllb8v7dq3UY8dOrahQ4f2+Pu3YuLE8arritUqpFirOlemmmv+QadOoqk/i5wMFpmbM+DSmbHqLTywWbnjsFAh6Z5Bg0vUJ3NSKI7/kS/f2MIHQ4ZzYeR4rj05jgt9xnEqcAqHe7/Gjien8VKn/vgo3vRs1IOFveewrud83g6czfG+c7k6cCqXeo4kYXAo54eH8t3KrbiLy7CXa9VISfegHG1pOaZKLSatHm25sMB/7dTJ30f19QtI/Q1O/15w8owIiMGBAJMsUScQvoNndk5eI1+ORFLSyZONZzAaMFlNaIxVJoZGixWzzYFeBMBMLkxmNwajC53JhU64Kk43aZm5rNmwjb4DBqPUqEet2t6qecD08d355K1eXIgKJO5Ea5Jim5N+3JekmFbERftzNbotV4515/yhED7Z0pkloa15sVdtRg9QiNpVh9tne5Ac2Z6Ej1uSFd6BnMiOpIe3ITGiNTci2nAloiNxp/ry7WfB7AtrxpLnmvDFW8HEHwpRyZdp0R1JimxNUnRHEiN7cnpHa7ZN9GP7lFZsm+rLlunNWD+lCWunNGHrqz6sGNuK9VMDWDcjkIEBNVUCY9MaCs8N9uW9N8ey9/XnSfrpNSyF67GL3pMoFeRsw52+CXemSKvIuEsYltyN5FxeQti47vQS0bggb/atfIrMC+swFe1DV7AZQ8kG9CXruJu5iuj3nmTsE/709Vd4dWQ3Yl8fieHGLtzZUtvahTtvO67M1TgzlmOXKCp/G+UJGzi0/RkObH6Bj3bNZnroIGRERWzGBw3ox+7du/j44w/Z/dYu9r/7Du8d2Keuffv28OmnH3PgwLucOXNKnbETcJJZO4NRCuJ/LjT3R+AkzwlXTpooLp0Fi9HOPbudIqeFiod1SrepgvK0G+R/f4Zru7dx6smX+CJ4BD/0e4ULA2dwoucc3guZw5IBYwhqEkBj5TFGdnqGNQMW80bQYj7oNoforpO42mc8P/Z4istDX+T4Uy+RE30Gd7le7dRpSsvQPihH0jiDRotJp68CporKqi7dw2L4/0VwepTX9Ojj/6epBJ60TkBIUrvAwEC1MC4SKufPn1c7MpL2yZJuhLxeNpWMvegMWiwuC6XGciqNWgwOCyanE73VTqXejsHiRm92Y7a7qdDY+PzL80ybOQ+flm3xqlEXrxq1qaHUoEvb2pyJGM+VM09wLcaX1ONNyIzw4fZhPzKPtCMjvA1x4U24Et6YOGFzn3qc7z98kiObApj7fC0Ob/Ui+Xgnsk90I/WztmR+1o7cIwFkHW1H0mFfEiL9iItpx81jnbga3ZULBzvz9fsd+WpvW1KPBJF5uAuZR1uTEd6S9IgWpIa3JuVoF5KP9iApvCeJEV1JiG5NXIwvt2J9uRXThltRgVyL6sul2GdYM7M53Zor+NZW6N+1FeeP70Jz5ygVBTKztgpL7iLceTKEuwl3+lbcGZtwiWlmwVrsBdu4FD2Wkd3qM3dEV06+8yLajF0Ycrdgv7sVc7EYZ65GkxuG4e5GLHd2cvPsHNZM7c3TnZswrW99Sr4UQPoUZ/Kbqka4+/YqVa/JlrUIV+FaDFkbMBXupzz7EKlXD/LisBDqKwre9evz2acfqzcdmVk0GsVmXhygZUxFZGr0VUO/Mvj76LKKAOGfF8Sr16KqA1XVTc+AyajDapS0zobJ7OSuw0mhw0ql1Cltepzau2hSrpIW/Qk/f/oxXw0ZxeUB4/gyeAxn+kwnMmQR23rMZHS3EbSs2YI2DVozc8Bk1vaay95uC4jutYjY9mP4qecofgp5li+GPMvpSdNwZ+Zge1CBsbwqOpIBX+EzeaIlD7dJIwBV8StdoHqN6dHz/41undCA/mj9Pw1OsmE8gCMAtGXLFrUwLundihUr1JaxRE0SMUn7WFrJwnxV00GTnnJjBVq7njKjhjKTRgUng8OBxmhFo7disri5d/8Bn352lL79BlK3Tj0aNmykcqpkWFdSiwAfL059NoKELx4nLrIpSYfqURjegcKDXcn9pBu5R7qQEdmcxIjHSIhqSsqxrqTEPEVi1FOc/7A15z9owtXPWpIZ05m86M5kftqa25+2Jj+qE+kRHdT0LiG6PXGxHbgV246bsa25GSsRWSuSItuREtmK5GhvkmMeIzmmIUnRTUmKakNiZEfiozoQH92W+GPNuHXcm5vHm3DzWAtuxnTgekxXrsT24PT7wcwb1ZJWImanKIQ+GUJu8odUFL6FrmglFlHDLFqLK31VFaUgexvO5GW4i1/HXbSHu5dXEvPGIDK/XawqWVpytqFJW4HrjojHrcJRsg5D3ko0t1dgK9mN+977ZP24nmNvvcQHYb2puL4TV/ZenBkbVclgV84C3HcW4SyYhyVvCbqctWhy9qApjGHNwudUYGpQox7jX5nInaISla8kTjWyhLskoOR0OlQ+2n8BJYtMDkjt0KCu6uDzZ+f/FZyEFa5VwclqtKMzu7hnd3HH7qBCHXnSYLybSdmN70j9aB/Fb+7hyz4vcnPITM70nsKR4Bns6z6bFd2mMtBvAI2UZgzv9CRLB89mS8/XeL/LHM4Ezeeb7tO4FjKWS0NC+fylMSTt3Yur5A7mispfeEweMPIcf+E2/Q1Ov3TkPJ253zr+WwricgeTTSPAI5vr5s2bqvuKUAp69uypurBIGichrYCXvF6O8lqpF9zR3KPUUPFwVWKwWdBZzVQKoJlMpKQks2JZGF0CAmhYT1EdZBvXU2hUT6Fx7apxE7HQ3rumA8lnHychvAXJnzSi+EggxZ8Gk/dRMNmfdiMr3I/MmCakxTQlOdKfpMO9SQofxI3wHsTFdCElOoC0iHbcPuJP7tHW5Ee0JzeiI9kxgaRGB6qF7luR7bgV5Uv8saYknWpEypnGxB/zJv54Y+JP1CH+ZA3iT9Qm7nhDbsX6qQB0I6YjN2I7cOOYH9eP+3L9uB/XjrXnWkxPrsX04GpMW26cCOHUvqd5vENdfKSb6KWwKewZ7t7eg+nu6+jzlmIvWo0rbx2utLU4MyVy2oA9Yz32zF048/ZQkbQc993tqmSu9fY6rLlS5N6ENW8VpqxlqlGCvXA7xqwdmLJ3Yivcjj57A3euLcF9ZzeO/HU4shfjyp+HO38W7vvzsBW8iilvMZY727mX9hYnDy6kXYtaqjb4gJDB3LiahN3qUkHJYBDFBzdOpwutVqce5UYkmuH/AFAPQemvACeTUWb0tNiM4oFnp9Ls5L7VTanNRaWIzGkfoClIIutsJGlv7yTutSVcGDiOi/1ncWrgfPb1nM4bvecxvWMorep0wLtGK6YNnMr6wfPZEzyXyJ7zOB80h6shs7g1YDLfDRvLF6/OR3PxJ9yVFRgrK35RtvSQLH85egrg1WpKj0ZKjz7+O3L6i3lOAkwSCXnAR37h8+bNU1M7IWVu3bpVBS8BJQEwodtLCiDnMhulsxq4q3mAUQTJXA4qtZWYrSIKVsrVi98wfeI4dShXHfeQAdXBHZn0UmeVce1TT8HbqyraCBtfl8RTw7j+qR+ZR/0oPNKF/E+7UXQ4hMxPAkg92ILMaB+yjvmSGu5P4iddiP+0BzcOdVUL2mmxnUk65EfKJ83IOtKKvIi2ZIW3Jy2iE0kRAdwK78iN8NbcjGhOfExjUk7UJ/VkA5JiG5N4rDGJx2uReMKLxOM1STzWgMQYXxKj2pMoXcDo9iRG+5EQ05KEGD8SotqRENGDhMhAroc343p0WxJOv8jusO70aFHVSezUQuHw/jFY7r2HsXALGrGRKlyPM3stlqRlarHamrIKm8zfqQXtLbgL12PLDMOUIlrfm3EJJaBgM/rk5Vhub8BdtB3z7XXqUK+MwDiKV+Eu2YytYD2G9AXYshbizJuPq2A+7vthGLLnYy3egPXeO1w+t5SBwU1pUFuhrX9TPvroQ+x2sWMX8wIZRzHjcslYkUv1ZbPbxffPrkbV/wBQfyE4mYWSoNdgN+nRWmyUmp2Um91obW40BiOVpXdUcLr60R4S1q7ly+GhXH1iFmeFGjA4jG29ZrFj+FKebfEEDRU/evkOYdHQBWzuN5f93WcS2WUqP3SbxtUek7jSdxKxA0L5ZsPr2ArycGmlI3cP0WWqXkt69PxRAPqjx3+D018MTlI7knkcD/gIWEmtSWgFEj11795dlfGVu6h8cfIFyHvkXCIji92BRibIRU/aalPbv3pNKV+fieKlpwbTUJV9VejiozDh6Q4cO/AK5w69QtjktjwZpNBKlBcVhZf7Klw8OpRbhzuTFdOR9IOtyD7SlvzIzqQfbE3SIR/SoyR68ict3J+0wx3JEBWBY91VAEk80oakQ61I/cyXtM9aknHIj8yIdiSFtyM+og23IqVO5E9cVAuSopuRFu1NWnQTUiNbkBLlQ0rMY6TE1iU1pi6p0Y1JjfAjTcDtaAfSwtuSFulDWlQz0iObq2qZ6Uc7kRbekbhDjUmKbcWVyJ78FP0sK2e2V2kOohTwePfGfBM9H9udD9BlbVAldt0l67GkLcFdIK4oQitYhfu26C6JxO8GXFkrscnz4uByeyXOrI3YMjbgzN+Ku2gDNtEGlxpW8TLsIg1ctAZzVpi6nIVrVP88h9S37m7HlLcVY95bJP2winEjA1Q10Pp1FDZtXsCdn3NxuMVk1IHV4sBmdanGmQ67G4vFpvrTmUxVEsmS9v8SPf0XcPrzorgn3Xs0rRN1A4euCpwqrDbume1ojPLz3Wi1Ju6XFFCeHc93b73OlVfn8Xmf57nQfzrHg2bybt/FbOy3kJXD5xNYtyveXh0YM/A1lg1aws4+C/ik50xOdp3ItR6Tudp1DBf7TubI4+OIOxKLrbJc/bkecPql8+ahB1TrzD0KRp4alOdY/fm/wekvBifZePILVgvcD51apIgm7r/168tMm8LKlSvViEmiJdlgAkxShzKbZSrdiVFrxmKwq3SCirv3OPjuXob17qk6lvjWUujfoS7rZnXh8w+f42LUc9w8NYIfw/vw7np/Xhrsrdpfd/dRCN/RhbRTj5NxrAs3P2qoRkqpR5uRfLQ5KVGtyDjWjvTo1iTJ46NNyYj2JSnal5TYNqRHdyDtaHvSD3Ug43AHMo62IzWiTZXqwAk/Ep/BsosAACAASURBVE60JOFYSzUiSor0I/WIPymH2pES3llVJEiOaklydFNSoptUgVV4O9IEgFQQalcFSlHeZER6kxHRnIyjbVVxuozIliRFNufHQ824froP58KHM2pYlRSKdO9eGOBPwlcbcdzZhyVnJa5iKYQvw5W3EbdERvnCeVpUNXcnnKUMMUcQOsBa7KnLVEcX0f92FkiNKgxnodiJL8SZKyzzFareuCl3Ac4i0R7fgClzLRahLRR9iLPoMHmX97BwfC81QhXX4tCXnyG/KAWH24LRZsbldiOAJOBkt7lUu3HXw/ROvt8qYPojcPrni+K/BU4uXSUOs16lEBSbxO3HrQrZ6TQm7uRnk3vre77ZtZlrU1/jfJ+X+Lz7OCKCZrO1x1xWDQ5jUu8xNFNa0q5RX6YPW8aCwNfY1vVVPu46mTOdXyG++wSudhrFd8ETOfbSAoquJaGXedDKUvTlP6uRU9Ugb9VArweoPBFUdfCRcw8oeY7Vn/8bnP5icNJI69RUxUdRUzWjMIANfP31VwQGdqVWrZoEBATw5RfnHnqWSXonQnRGHA7hMYkekx0paObfzmPXunV0a9VSFXfzr6Uwqrc3e8N6cOHQi1yNHM7lo8HcjOpOfEwnrkT34tCefiyY7MfQQIVNMxqQdGwg6ce7khDuTWJEPRKjpAjejMToziTFdCM5OqBqFi6iLilRdUiK9Sb1mC8Z0QImAkyB3A7vQUZkZ5Ij/Ek63oKEE02IP96IW7HeJAoIhbcj41B3Mg4Hk3Q0mMSI7iRFtSdJgC+qlVoMT4roTPLRQJLDu5Ac0Z7UKB81okqLakxaVBPSIlqRFt6GjIg2JIW35EZUE66caM2Fk7059slQnurdnBbigyejNiN7kfHtapx338BWEIa9eBnmLOEhrcOdK44oC3FnL8WduQpXqkRT23Gnr8eVuwZX3lLcRQJGr+LKfRV3sZgUhGHPWIQ9exH2kgVYCubgKF6GLX8dhowtWLL2Y7p9lIrkWLYveFnVBRfqwLABfYi7eQWL3YzZbkMnA9dutwpIAkwCUAJUUhgXYJLv97+Ck6cYrn9YEP8fgpNWo4LTz3YLhSYLOlGmsLjRaQyUZGWQ9EUsF7ZuIGf+ar4Jfonj3cfxXteprO4xhyWDwxjk+zjeSgue7D6OucNWsqzbHN7sPJNPO47m844vkdR9HNc6j+JMrwmcn7cT/V0NlVYzFT+XYKksVcFJhng9AOUBp1+Oj9ScPKDkOf4NTv82hriBikotFqsdna5Kn1layaLBdPdOEWtXr6BOrZrUUBTGjw3l7p0CTAYNZpOoYmqxOS1UmivQWfSk3U5n/uzX8GnQQOX8tBP5j/5NCd/ai+tHh3HzSH+SIkNIiuhG/OE23D4RwNUjbbh2ZiinP+nD3rBmfLCsKbcOdSU9piNpx5tzM7w2iaebcv1Yey4efoIz7/TjyqH+3AzvRNpxH5KiapNxyofk6BYkHfUl5UgbMo52Jj28M6kR7UmJ9Cchuhnx0d7ERTciLsqbxMiWpES0JeNoNzIigkgO70ZiRBeSIttXgVKUAFQbkiI6khzeiWQ5RrYhJaolKdFNSZUV1YxUib4kbTzYiYzY7sRFteRqdDOunW7H9c8H8MGmnozs2YT2XooqThcWGkLGhc2Yi3ZhLFlLeXYYtpI1OHIW4spaiDsrTDXmrGJ3r8WVGYb7zmqcmXNxFy3FXbAMR9Zi7JniyCLANAtr9jTcDxZhLxDjzrU4Cl/HlLcXU/4R8m9+xv4tr9KxaW1Vy6p3UE9OxMTicrqw2KzozWYcbhdOEZN7GCk57AJOUgQXs1TzI+AkKd7DJRwkcWGxyLzd/yStM2DXajAb9JTazBSp7HAHGoeVe+U/U5KcwM339pO0egMZ4xbyfe9XiOkzmZ3dJrA85DWmh8ymfa1A2tUMZNrghSwfvpwd/RdwqO9czgSO52aPSdzuOZlbvSYR+/h0Mg6ew2p1UW63oL13D5dKH6hUgekXMKqW2qnX/gVw+k/qOf0RjUCe+z9NJZD0y7Oky+ZZVWMpJjRaI0aTDZ3OUMVjMhtV5cOK8p9JSrhO35Be1K9Tkzo1FT75cB9WkxaTUYPRoMVg01LhLOXbuG+ZMncqNWt5qW1q8YQbO9iHs/v7cCtCAKkzKQIoRwMepkpSxxEQaM21mA5ciZG5uC4kHe1M2hFJz4Td7U18bGNunfPj4olgPn39aaYPb8fGqV2I2dGKlJMBJMc2ISlaakZ+Kh0gNcJfTeXUdC6ydRVFIMqP5Chf1LRNPbZSQSs1oi2yBKgEfJIjW5Mc5f/rkvdLWqh+jn/Vz4jyJcWzIluREtGBpCO9SAoPIe5oG66FNyHxdDOSz3bku096cnBdb14IaKqOy8jIzKLQfiR8uxbdvbcpv7MOTcly7PlhuLKX4by9DFf+atzFMnqyFEfWXNx3l6tRkuP2cpy3N+LM2Yotey2OPCmuT8OePwFz7izs+UuxFa3HUfwWuvwPuJN2kO3rxhHQur6qDhrUozsffvQhOoNRtWXX6nWYzCbVhFQkUCRC8lAJxG5curOeJel+9VUVSYl+k4DSnwNT9VTu0XOzKFlodKokrsZm5Z7TQr7bSIFLQ9bdTIqu/kjCuq3kzV7FTyEvc+XxqUQOnsbrfSaybOCrPNf6BfyUzgxr9gKLBi9mWb9ZbA+eSHjvyXzVYRTJgRNJ7z6Fq/1ncWbaOrTJ+WhsNu4adZh+LsN5v4pKICDkSeMePVaPjH7r/F9J5f5Ksbn/bXDyUAiqH/9pVQIPMMnRA0xyrA5OepMV8Z2vrJTBXAMulx2n04peU0Z05GGaetenTs2aDOgXwq0bVzEadDgddiq1Gn68dpVnQp9DjAVENreTj8K8V9px9oN+xB/vTWKU8IikuNya9KPtSAtvV/VHH9WCxBgfbsSKR5w/iZHtSDvSnszDbck4ImDThLjYJvx0vAWXTg1l6fhANQLpXF9hz+IGxEUFkH5SAK4KmISr9B9fEjkd7UZSeHcSjrbhVrgPScd8SD8TQNKJEK4cfpLPVgzg+c71aa0otKulMOuFnlz9eiXGyv1o7ggJM0z1pXNkh2GXaKlIFCzXVZ2XSCdvDY7MlTikHlWwBXfJ1qqid85CVVlTnzoH970tmHI2q554P2e8z671Y2jZVKFBPYW27fzZ/94+7pWWYne5MVvETcWM3SZLrLak+F2l0STdOQ8oeY7VgUnOPWmep8j9Z8dHAan6YxWcRAVAZ0RvltEVI7kuLfn2crIKk8n58nNy1mwn8dnpxPUdx9XB0wgfMpXXB0wkbOAMQuqF0FkJZnqP+awavpwVIVPZ23sSx/tO5kLnMcR3GcuVwAlcfn4J2Z+ewXy3gnKTQRWtEyUCe6mmiuf0Nzip0yDVFTA957/Faap+rTooec7/InAyYjBaMFiEnWtFbxAbHgNmi0fxUAwNNbzySih164jsbQ3GjRlPcckdrDYHly/d4oWRE2hQu6EaMfVsXY9lU/z5IXw48SdDuBntT1K0DylRLZCopipKaU1itC8Jsd7ECakxtiVx0a1JjqgqZGcdbkfmEQGa5sTFtODbiBb8dPxJxg9tpsqddKitELGtAzfCOxEf3kKtEf3HQekXIGxNakxHUqI7kBztT3KMjL+0IymqE0mxPdX6WVz0cA4s78Bz3R5TwVWUEWa80I3LX4ahK35DNUhwFa/AkRuGPUvkVDbhzBM1gy2qxIpNZuTE0ilXoqjlap3KmbUWR/pGlQ1uyd6EveQNzIXvkHZpA/8fe+cdXlWx9f+dHgghEJKQSiotgYROCEG5ggUVBXvB3hX1KvbesFFUpKSdc9KBWBDEQi/pnaYoUiTt9N7+/P6e7xxGc3lRvO/1ffn98eZ55tn7zJ6ZPTlnz2evWbNmraXPL8DwwYowGUhIGIKXX3kWx44fg8vrhclKKcgBr9cNj5uhtS48nJx6CxwGq/DfpLWYcMyuw3FLN44ebEZzUTGOLH4Z32XPQ/PkG7F72q1Qz7gNb824FXeNmY8UJQkzB/wDj059Ak/OeBQvTrsHxXn3YdPURaifeCfqc25FzbgFaHniQzhaj8FjtKOHjuKMRlh0Blh1ep+Xy/+D0/9/cDKaTTCazMI9hdFiFeYAPOoYH0xvgF7PaaAZdXWNyMzMhp9/KIICw7Dq0yJ8teV73LhwEcKVCET5BWFcdAheuHMkvi2ahX1lY9FcnYi2KuqDhvr0Ndy3pklEU1k86iuiUVsdIVJ9RQyaShPRpkrFweI0HC5KxqHieLRphqOhPB67q0fh83XTMTnBTyiXc4Yp2Lp6GvYWj0R9SewFhlMc2ggkTTRayiLRURWPtrJU1BelYF9hCurUI1FXPhp7NNlY83wqLh0bjER/BSOCFSzIS8Dm4nuhP/w+HIdehOPH5+A+ugS2g0/CdfhZOI+8BMeB52Dr+Ce8nO79/PiZYAnPwHv0ZbgPvA3n4eUiUKf12Edo2/ECXl48B8MGKGA0mhEJEVjyzCP45fhPsLt8PrhNZiu8XpoMOOF2WoQX0gstObn0FniMNth0NO4147RJh259N463NmHn0g/RfNvj+D7rctTmLMT2STdBnbcIb+XdhksjJiFZicO1cQvxaPYjeGLS/Xg37yEUZN+M8uR52JN9K74edx3KZt2Kvg3b4e4ywGl1oKeX7nXP7BPlftFz7JvrP7U711Suf97/Tet+Dwn1t0pOhJPOoEevTo8+vQEGC62+HdBb7NAbbNAZ7EJhbjA6sWLlOoRHxMHfPwwTJs3EzFmXI1gJQYwSiIviB+HNO8dj66pZwn1JMw0lK7ksP1jYB7WpKQklCh1TQ3kcaitjsLd6GPZX0yByuND3dJSk4hBDNhUmnYFTHBrKRmB3dTYK385C6gAFsX5c/fPDnrLZqFVliqkg9VYXTnKKFeBtKA5Ho2oAOiqHobMiGc2qFNQXJqNBk4KdBRFoqUnHztIxKHwlCfOzB4spXpKi4MrseKx79lqc3PUOvCdXwnz4GZgZ/+74P2E+8gTsPz4tDDcdR56A6+gjwpTA+dOTsFPvdOBtOA5/AvNPBajd+hLuvWEiIgcoGBysICUhEs8+85AISuD2umG2O8WiB5Xf3DNHiYlwctpNF3xa5zSY4TXZ4Ogzwa63CFUBAwf0NLdgy5JXsO3yRdg7+VrsyJqPLROuQ+HM2/DcxAUYp8RjrF8a7h1zNx7LegDPTbgPK6Y/gLUp81GZcAV2T1qE8nHzUXPfc/Ae64GB/prMFvRxL51Oj+6+XuhNvjh4/WF09nl/EJ3r/P/g9D8IJ6PZCJ3RAC1X60wWGCwO6K0uGCxu6M0e6IxW9Ops+PkXLe6461EEBobDTxmA4ODBvl3tccH48P4c7FfNQ2v1VDSWxqJJMwSt6gg0F0acsQfy2RxR4UwLa24N2S/2tzHySSza6OakOBVHClPxQ1ECDhfHoU3DvW+p+FaVhTcXx4Grf5wSPX7DQNRuuBhNFdloLqUnASqtL4C+ifcsjUFHxTA0q8PRpBqEtrIodJb5FOnNqkS0lI/AnsJwNG+IRVPNCOytGIvKpdm4NmeYUJKnKH4YP9gfb9x3Ndo2vwTLz+/B2vUyDEcfgu7w/XB2PQ3H8SehO3Q/bMcegefUkzAfeQzWI8/C/dMH0HaswFeli7HgirEIoyO+UAWj0mLx9ptP49fTPwuPEXa3B2a7S6zKOd0uGA064SLZ67XBaaPu8ALrnEwmeBkarJebfG0w64xw6gwwtBxAzSNLUJO3EHtzb8Q34+ejZuJCrJxxI24bkYcUZShmhk3BczOfwgsTH8Mb2ffik6xFWJ9+Pb4ddzO+m3o7CqcuRHNBJTwWO37t7kEfZwl9dIliQE9fH3RGXzTfs4HU//O5gNQ/7//g9D8IJ51BB73ZCL3VCp3Jij6TFVqzEzqTGzqjBydOM8yTF71aG77asg0hwYMQFBCCQP8gEYXk6ZuSsF99KRorctBclYy2yijs+jgUbarhOFiSgoNFI9FZnI4OVYKYqnHVjFM7OnVjai2LR4cmFoeLU/BDUQp+LI7FEVUM2kvjUF+eju80E/HwDSEiHBODWS5bkow9lZPQXDUendWjhZuTCwcn6tPCRWrTxKBDkyjsn1pKYtCsikKLJgaNmig0VUSjqZrx8eKxrzwHG9+fjhsnpyDDzw+xiiLS3Zdn47uqh/BL89Po/fFxWE8/DePJx2A88Qj6frwP1l8fh+XkUzAcXQL36Q9wrPZ5rHzpCszMiRb6pZBABROzU7Fs2ati65DL47Pct7k8sDo9wpeW3UGjWTM8bhs8bgs8LvMFhROV49xk7KKivccAr8EOp8EKL3VQ7UdQcf8/UTp9PrbmXo/N065H+fTr8fr0azFjQApSleG4ImkuluQ9jjenLMbK7AdQnHErvh9/N77l1C77Wny26Cnomw/CTD0TA3KabTBqDbAzsgqjB3MLy5/om3itP4jOdf5/cPqb4NR/xY6rdZzWaXV90FsM0NLrgMUOnc2BXqMdOrNbSE86owsWmwdtbQdx3z33IVDxF2GWghUFQwMVPLYwGbvUU9FQPRa7Gb2kIhKtZVFoKU5ER2E6DhaOxYGiDHQWDUd7yVBh2U2jxeaSNDSr0tGqHo42ukcpTsKRoiQcKYnGIfUwtJbForZiJL4tnY75eQqi/RXEBSooXz4e+9ePQ+v6ceisHiWW/i8cnCg1BaNFE4YOFS3GR6KtJAWtxXFoUUeghdbkVbHYVzgYjWXD0FSVgJ1FSagty8PXK+bh9lnJGDNEQZy/IjYM540ZiHeWXI7G7U+h9+ib0P/6Mkzdz0N36in0nVgC3alX0fXD29i3+XE8c990JA9RMNBfQVCAgvyZ01BQ8BFMZgPcXkpLThBMdhdd1tC3llPslfO4nQJObocRXrcVLqdd5HOl7n97tY6xDA1WI4wWIyx9BngtLjjo16nXAMcvXfjqxaVYm3cNyqfPR/WsG7D24hvxz9yrkaxEYFRIGq7LXoDHJt2LNyY8hKJx96My+WbsGH8XNmXfgLVTrsWJ0i+Fz6a+7h6YrDbx8jVIOPX1wkDp6cyGdkKG8OEY+StQkqA6n03T2aGfGLWGeTQnYN3+17mNjP6Y+psHsHz/cE/9/TWxnCwv7ZnOzuN9eI3l6BKJkZK5Esc2GT1brsr90VHqkXjsv0rHc7bX/7o8/y+rdbTu/itJmhbQnMBgYjgnE0x2M3r1BmiNFuitdvSZ7DBwW4qdTuMcOHbsFzz80IMI9lcwKFBBRnwE4iMU0JtA5jAF7y1OwjZNJvZVpqKxKhENpbHoKB+Fxk+TcahkLA6XpOFgcTQOlESgo3gw2ouHoq2IvpSS0KIehhZVJDqKEnCgMAEHS7h/bahwMrevciy+LJyGnBEKYoN9IZo+K8jG3vVpaK0ehc7KDGGzdCHh1FY+EG3cp1eSivaiTLQXj/HtydNEivy20qHCxoqGnY2lyagvSxMW8vs1E7FT8w8svjUOk0cGgVtdhigK4kIU3HjZGFStuw/tda9Ce2oZek8tRV/XCrTWv4Kij2/FdZelIJIBMOmTaWAo8mbOxOYtm+AgaNzeMytzDthdHtgYH9DlhcNJ7wNOASOX0wKP0+zTO4lQXb/bNUkTAnmUpgN/dDyfKUH/6/3NCIR3C4sZWrsR3fR22aOFTXjDtKPv2Gmhgzr+3T5sefgFFM29EStmXo3X8ufjhvH5GKoMQnZcDu64+E48kfcg3pvyCIrSF+Hz1NuwZcytKM9egNLrHoK37Ud4TXaYtDqY9DSVMUDbq4OZtlWnu2Hp7UNvV5cwqyEoOJD7w4l5EkJ/dJRw6Q+p/tDhdQJGQoTw4GeWIRD7w4dlzgZU/+vyGsvJ9pjHNgkdQojl5T2Zz3swn3kSTgQL73/kyJHzwokAY6BMJgmf/pCS1/of/xY4+QClh5UWs2YLfu3Voldvgs5kg9ZoFQrEU7QUf+oJ4XeJkXYzYhQsXjQZ9y/MwIgBinBTOylBwYrnkrG3Ohe7NCNRW5aKQzXjUb8uAQdL03FIMwKHS6NxpGwojpQOwWF1JA4xmKUqAe0VsWgpixVbT9oKCaxINGuGor48AXsrs1G9KhfJET6/4dwo/F3lRGwXPsIT0VmefoHhFO2zGi8dJqzF20tGor14lDA27eDmZE20b0FAE4sWTRKaNSloPOMfqq4iBnuqRmDr+il4/5UMXDJpGJLCFCQO9BPbXsYnhuDRO3JRo3kMHQ0fYfd3H+LeW3MxOiEE0WF+GKj4YVRSMm658SZs37kLBqMFDpcbdkpJNiccbi9sDg/s3DcnwOTzMkBJyeW0CjARUlSQSxCd6/hHUJL5/eFzvvOz4WSwmNHnNEHrMIolfX2XFi6bG10/n0brrv043X4E+s27Ubd0FWqefBmvLbwdGRExGOQ3GPk5c3Dr7Dtwz8SbsSx/MdYk34itEx7EZzm3Y92069C5thLeY78K97+WHj0MXXoYtSYfnPQGeGkASkB0nRYA4liQsJAzjL8iQREGhBrhxfKyDvN4jW1KWBEkTLIO86WkI8EkYcf6sg1Zj0cJJgkntsVzKR2xjrwnrxEksk3CiWUJMilB/ZHEJPP7Q+evnv9tcOK0zuVx48Sp0+jW6mB1uIVy3Gy1oq/vNJa+9axYmqZ3gdHDFdw9Pw6Vy+fjO9XNuGVWtFhBo1/t/JEK1r6Wje2lM7CrNBONVaPRsSFDTLuoj2lXR6JDTQ+XQ3BQHYVD6gQc5H649clorkpFqyYTLcXcx0aXJNHYV5aCnRVTUPLhDEQFKUKyWHBRMLZvzMGuymGoVyWiuZgGnhdytS6+n3X5cLGlhUamtITvKM5ABy3i1dS1UWGfIMoKJ3bl0WioCsW+DaHY9lkc9mzJg3pZLu64YgQmj4gQ+jV6ahgerGBGZiyWPHgT5kweh3A/f0SFhmOQEoRRiSlY9ta7OHL4RyEpmW1uGM1OuFxeGAy0Z/II/0w+MPkcyf0uOdngcvqSCHDazyL8bEBJCP3R8XxA6n/9v8LJBJ3Xim6rDh6nCza9BXqdEad+OY0qTSW2b/gcnRu/wrHN29C6/jO89/hTCFL8ETs8BU8/9gruuPwe3JZzHV6bdg8+Hn0z1qRei3WTbsDmh16Bq/NHeHq1cPUZ4OwxQvdLL6x9Zuh6dbDTbKavF6buLpgYwfcMQPg/EhgElfTS8UcSk8znwCcQWK9/Yh6vsW0mfu6fWJb5BAhTfwD1h9DZ186GkwQTYUPQSRCxDeZt3boVu3fvxnfffSciLBFivDdB81cAJaUlluf5XwHU3wYnnU4Ls9WCEyd/BW2cDEYaZppgNPahqGA5EmMGYHCgz7XJQwvjsGHFHOwtvxr7Sy9BzQf5uHRsDFJDFTGgLhsfgMoPc7GtJBf7KrJRV56GxspEEQ2lWRODJqFrihNuTFrVVIaPQl1ZOurKx6BRM0kEx+TG3saKFOyrzMS2youx7KWpiAxUBKDuvmY4vqnMxC5uWylNR0tRmjDsvFDTOiEN0V8U9+WVD0FL+WC0lcb43KwUZaGjaBzaVSkCTgQ0jVGbS2PQXD4UjZWhqN0Qgu1VA7FzYwp2Vubhy9VX4IPFM3B5ZrSINBylKIhUfNO9YUoAIvwCMTxsMCKUEOTnTEHj7p1irxynclY7PVi6YBPO4+hlwOW7JjxcOuB0+pLL6UD/dDaMzv78R1CS+f3hc77z/wInqxEGrxXHdafhtbtg6TFi/+56dHQcwbff7cBnVRuw/qPVKHrtTbx0/wO4aNIkKH7+uHjOPDTs7kTR2yV48oqH8fiEm7Ay7158kHMdNj30Kk5v2QNPVw/cJuqy9PAanNAf6xXtG3p1OP3rKaiK16GqUoPSUhVUKhUKCgrEwKbUJNUjHMQSQn907A+c851LeBFKsj3WIVAkhAgbQoYQYZL5El5/BicpPfFIiemHH34Aw7xdffXVmDdvnjhvamoS9yNoKB1RmvqzJOHEY/9yrEu4nQtWfxuc+GPwy+IudFqIcwsLN/XWbFRj4vg0oWOifmNhfhQ++2QOdqouQmPFdDSoxqBWnQf1m/OQlxomlvkT/BRcPz0cGz6chZ2amdhdloW9dItbyTBNSagvz0BD6TjUayagXj0Zteop2KEeh10amiLMRIMmD03l41FXkYXdlVNEIMsXH50kIvUODVDw+KJMfFc5DtvUEWgoSENLwSi0qbjB98KYEjRzqqbOEE7p6LSuuSJMGGNyz157cRbai8YLKUpsEi6NEHZfwgVweSSayiOFR85dqgFo3JiAuoqx2FMyFXtUV6P8zdl46LIo5CaFipW8+AAF9PCQmzEU11+Sg5TIIBFY9P5br8dPP/wAh90rJCWb1S3cntisdjhsNjjtNrgchBGncr7kU3xLSYqueP9Y38RrEkJ/dDwfkPpfPxtORqsROpsRWrMWXpMDpm4Dtn75LT77fAs2btqCguISrFu+EksefADPLH4UCfHDoQQE4KK5V2JLzQ4c2HYIWz/6Amvuextrbn8BRfe/hF8274RXq4dd1wcrA2/0aOGxeWA6qYNb7xDW6F9v+QrJo0YgadQIxCfGIT09XXjeYIAPAoRTM44LCZA/OxIuso6EGuszj9cIEwKGAGIex5qEE4/9gSalnv7H88FJSln9p4eEE6Fx6NAhRERECLdHjElJ55Hbtm0TUCFo/h04EXYSSGyfiff8H4UTt6sYDUY4Hc7f9tbt3L4V+dMnIJS2MwEK5kyIQun7F2Gn+hI0VUxBbWEi2unHqDQD9Rvn463HxmJW2kAk+inCwPCO2cNR9U4e6jfMwS5KOtVp2FWVgd3l2dilycOOkjnYVngFvi+4FNs1+diuycOuornYXTQbe0pysLs0G9vKZ2Jr+XV45qE8EUiTUX5feCgX+76YjtrqODSuG422gnFoU6VcODjRpuuM7Rb3CTaXUzLiXr8kYfEunNUJEwrqpginCOHojmUoW810CQAAIABJREFUbYl9h+VRqCschLbyZHRU5qC2cArqSi7Dtx/PxbJHUzF/wkDMylCwIH8Alr80CeqPrsW91ycjbagioL344Qdx5NBR4eqEHgXcDqdw+Od02MTgdDttYPpXOFH/RAW5B2dv9D0bVn8EJZnfHz7nOz8bTiaLEb/qTsNs0cPVZ4bX4MLPB4+jpmYLiiqr8alKhVdeehFLnlyM5Ss+QMjgAQiLjMSNt9+DZx95CTUf1+Dkjp+g2/cLftrWiqP7W2A59SvMeq3YnG4w6YSBMb19ao/3wtVrgVNrxltvvg6/8AAERARDCVBEtCH6LXv00UfF1EXqjqT+6O+CkwQR4UOocHBLiMlr8igBdT44SUlLQpD12baUnKKjo0UsSkZUIqD27NnzL3onlvuzRIid6zolKeb/m3CiWCoTV/B0/5IMBj2YOK8Wc2ujGTaaEGgNsJjMaGyox8JrrhRg4spcbmYEit/9B3aVzcNe9VQ0lmSgsWAoDmgGo61iGPZWZ+GbstlY/vRkXJQcgaQzgLprdgLK3s1DxfLRKPogEStfjcdbT47ASw+MxnN3Z+PZOybjuTsn4dUHs/DK/SPxyp1ZeO3O0XjnwSQs++cIrHwpEytfn4Xbr8kWgKTO6/E7pqNmXTa2FiRi9ycT0FKQh2ZVJpo1aWcSjTKZUs6kZBHAgIaavsStJtwsTF0RPR9Q4iJM/t3kk9S4b7Cpgn7IhwjQNGsyhEtgejPgKh1X8dpKmbiFJxKt3ObC+6pT0awaJ6K7tBbHor14CH6oSMYBTQbqVo9Ee2kuDm+4DHsKJ2LzqiQseyoYX5ZEYucXmfi6ajpqSq7A3fMTEBPiC+/02MOP45efjwtPljazCV4aVjptcNiMQvFNa3CfjolmA5SafIpyoSx3/Ln0JCH0R8fzAan/9XPByWg1wGzUwaE1w9NjxfFDx1FevhGr1aUoqq7C62+9ic8+34hVBavgNyAQmdOmoUhdidefegvLn/4QX63YgB++b8evR7tgtTvQo+tBl+40TGzXbsEpnVaYEFi0Fri1Npw+fAyTJ02EMlDxpWA/IVn4+/sLCYo+9Ck1EUwcH38GJl6j9EOQEDSc5jDxnHlSMiKAJIQIDpbh4P7xxx/FkYOcEJB1WeavwkmuprE+AUU4sS7bIjji4+NFMJGQkBABYcKJZXjtXNA5O4/tSEDxXlzhO3jwIA4cOIDOzs6/Bicf7fVCoUilIpOB4qmuDxYT87mi0CVC8XDaxvIWxro3GWESIqwJJ092465770VAgC8AwbhUf6x5Ixt7ymejY30+atemoaUoGZ2lCdi/Ogwt1anYWTUN31Zdg6/VD+DZRTOQFuzTP9HJ2rX5wzFvRgBm5igYl6YgNU5BJIMbBJwJLc5oJYEKOGWjApjBAZIGKsIz5vgUBRNGByE9cZBwyD8wIAB5ExJx01WRuHfBYDx1YxrevJsx6EZj1ZJUFL2chop3xqBm2XhsXpWNbQUTsKtkAvaosrFfk4m6sjEiEEJ9eRrqy5PRWJaIpvJ4NGui0KKORCtTKT1uMtENSzTaymLQXjZc6JFaBFiYH4O2sni0Cad0lJYihM+oRlUSGktS0Uw3LCxTHoa28lC0lYWhrZTugGPQpuIewjS0FWeirXAKWgsnCU+cB8pHoKkwCi2Fw/FjdRYOaMagfk0aWjSj0Vadgt3qcOyuGoTt1VH4tmIcdn9+A97958VIDPPBaUjYUDyx+CmcOnFabOz10M7JYoDDZYHdoYPbbYLbxU2+hJMbNocXZocXVhdX9P4VTn/kheDfhZME0bngRGWzLxlhd1iEUtpFOyytBb8c+QXbtu/G9v11qG1pxoqPP8KBQwdw30P3wz/QHzfdeQd27a3DB68vw6o3P8b35VvwdcVXqN3fiB6jAT0mHfQ2A/r0vejR9aLXaIDOSM8HVjj0VnxRtVFIEEqoAqbA0EABJ0oWBFRRUZGAEsFCoPjGlW8Vbu/evdi0aRO+/PJLfPXVV2KQHj58GJ9//jlWrFiBDz74AB9++CGqqqrQ3t7+29SQbRAIHNQ1NTUoKSnBsmXLRHr33XexfPlyUY/3puKaAJBAo+RE2HFKxXPCY+fOneIeq1atEvV4T7ZRVlaG/fv3C2BIAMbFxf0GXwLq66+/BvVOLMt6H330ET755BNs3LgRHR0dAnC8h4SbnL7V19fjiy++wMqVK8E+v/POO3j//fdF8F3+Tw0NDaIu+372n+L7ErmR0Qhdnwl6rS8woEHbA6uJkKJL0lOwWQ0wGXXQaft8scmMfTCbDTh2ohcvv/4B/IKDEBSsID1RwdtPx6F+4xQ0lyWjU5WEHzRpaC2gD6N0NFdnY2fpVGzR3ICP3pyPFx+5FLddOQUJAxVEBvlhsL8iPBUMClIQxFDjISGIGOyHgEB/+AUoCBgQBD9/BYF+vK4gSDmT5Gc/37XgwEAEsH5wEAJYxt9PRHBh3LVwPwXxgxSMjlEwbZQfrpgWgZvmxuGB61Lx7N1j8PrDY/HRC6NQ9NZIbFg+FpvXZuHb4kxsV4/FnvIxqK8ciTpac6vp5ZK+mnznzbS9Ko1Ce3kM2suZHy3K8MjP7eW+PXW0AG+l90xNAppKqOhnPutFor2cU7WBaC8L/91zZkkyOovGoLMwG50FU9FWOBkNmjFoEAEU6EuKW3noXiZeuBmmq+FW1XCxsbi2NAp7ylKwu3Imaj69HAtnxAqgU6KMCApHkBKEF59/FSd/7YLV6YTZYYHZboTV1gePh6HDuY/OBqfLA7PDA53NC4vHC4vDfQ5/TbbzhhnvDx15LoHEowTQufJ87npMwr6IFuuU2E16A4z0EsBEyV8YCZvR0NggBltKWipCB4RibWEBOjsP4rWXXsOGig1oa2hFU20Tjh79CUZGBjKbodPrwJ0PPBpNJtDbKzf4GnR63HPXXT44+SkIGRCCiZMmCsmCU56AgADMnz9fgEQChXokSlJMjz32GCZNmoQJEyYgJycHr776KpYsWSLOOS2UbYwfP15co8RBKYZtESyEVnZ2NmJjYwUIeT/WGzhwoDimpqYK5TXBRRjJqZ+EU2trqwDg9ddfL6Q83o+JbTAlJyfj5ptv/m1VjpJOUlKSuEb4Dh48WEDlwQcfFP2Q9YKCgjB16lQBWDklpBTG+oTUrl27hKvuSy655DfX3QwdRzfeBN60adPw1FNPobm5WUiC54aT1iDAJODUZ/AFCdT1oqfrF9itWricRnR3nURfbzccNgdMJjN0xm4YrTosW7kaw6LjEBigIHG4PxbfGYcdFfloqkpDe1kkDqgi0bw2GrVrMtBYNgPfFedj9es5ePjmibhsRgriwxURzCAiUEHs4AAkREaA0k6A4ofAwBCEhUXAPzAICmETEojgwQPEUfHzfbHyizr7yC+AbzTmU0TlQ8GgC/whU5KSED90GIYNjEB4QAgGKv4YpPghgu5xQxUBymkZCuZO9MdNc8Lx8MLhePbOJLz3ZCpK3snGl59MxTerslCnykZL5RQ0leWgtngMalWjUK9KR70qWWwublBRwooVNlmUpppVtP4egk7aaKni0K5OxoGyZBwoT0JneRza6dKX3jJLh4qgCO2aSLQzYII6Hh2qEeAm546SDOFps75sBOoq4sUGaDrO4/YeSlmdqliR6tdF4IeakWitHo3vC0Zhb8U8vHz3SKRxhdTPF+klKkTBEEqkIaF47bWX8fOJX2B322Hj5l6HER63CQ6bBQ4bXe96hF8nI6Umr0dEaO4vLUkJSQLn3zmeC0TnyusPJwkyOZXiQCYQOKViOb7FqcTlYBgyZAg4QPk2r6ysxPr168XbnmUo6bCe7yXta4PnbFeCkm93Bo2VA5rPkVqtFrDgAOUzFhUVhX379ol2JJRkf2644QYxGDkgWZYDXw768HBfLEbmEzoE0Mcff/zbNIt9oZTCa4QEn1/2hX0YPny4aIdtsH5iYiI2bNggwEZYEBSEBOHIfkrf/rw378N+8LuRsKMkxO+DUy+OGbbJsqzH+xGG/Cz/Z17ntVGjRgkQEYwSjpQWCUMq1vm9sW+E7+zZswUg2QbzWf+ee+4REt+54STeEJSezriCoGGYthsGfa9QEOo4Hz99GkYjA2m60NOng9bai5ot6zFm3BiEBPhheLiCRVeOwDeFV2MvV9QKKT1wn1g0mtRpaKjIh+rNbNw9PxpXzIjAkEBFrBwNCVIwKiEal0yfgJvmz8WTDz2Aqdk5CPIPwoCQQVCUQASGhELx80PQwFChiAwOC8H54EQw8Z/nkUEXKFKXl5cL8fLtt97DU4+9gHtueRRXXbIA+ZMvwtTxk5GTPgYZcUlIjozCYMUPQ/39MSzAH9EBfkgIVpAdr+DKadG456oMLLk5A0sfzkTBy5NQ/f5MbP7kH9heNAe7VRdhd8kUNFdORZ16DGqLk1BXHIPGkqFoLKFyewgOVQ8XUWHaiuLRVhKP1qJ4tBTGoaWI0k8iOkuTfjMjaNNEnXHzy7rhvuCdFYPQUBnui53HDcQEXyl1YT4JTEhh6+OxY90QNFZnY1vRJFQsnYqL0xXh2yo9TMG0FD9cNzsKl+UOxUDGzAv3x4cfvIHu3pOw2OhlUgev2wWvywu70SkCUTgcDA1vh9PrgM1hu6CSE8FBCBFGhIBM/MzEt3dFRYV4Bih1EBgsz8HDN3pdXZ2AlYSbhJH83B9Wn376qRiQchDfe++9YjBxuZ2DTOa//fbbQnLsP63jQgGlEg5kJj6PHOjXXHONCKW2aNEiEeeR+RIekydPFhIT/0f2gyDMz8/H3Xffjffee0+YL9CM4fnnnxfSh2yX4FiwYIEADPValL7WrFkj+se2OR6GDh0qAPHiiy/irbfewsMPP4y8vDzxf3CKx3qcYhFesl32jSuT7MMVV1wBSkKEWv/rnOpRUuMLgNDnIgGBzXuyLYaKowT47bffimkpozTJ743K92+++eZsNkERousZ8dXno4YWq1TEnYbNTh2UFqe7umAw0DWvHT29VhitDjQfasXk/AkICVWEr+n50yPw9err0FR2OZpKstGqYsTcEWisGIMvP87A0sczMC93gHDPERaoICZcwdRxI7Hgilx89O5zqN25GV3HjsDQ04UqTTkmjp+EkMAB8FP44wf5YOSnICDYH4q/cl44STLzC3juueeE10Z6buQbV68zwajz4NRxC9pbjmPvjmZs/uw7lBZU4v03l+H5J1/A/LnzMO+i2Zg1aRKy05KRHDEUkcEDMFgJEKtdsSEK0oYomJoegAX5w/Ho9Zl48+FpKHxjJr5cNRffF12CPeo81JVORl1pJprLR6KtMg3N5QloLI5Ep3q4CGPeXhKD1qLhIKhaSxKFfVO7Jlm4DfYp3336KUYVbq4MQXNlEJoZI4/x8irD0EQ/6MJ/+Qjh36q5nMr2oWhaH429dDNTlY1txTNw+0UDMD1ewayR4Vg0Zyg+ejYGW0pyoVqWj4kZAzF0IAEVgIK1n8BkMMFussHr9MJj88Jt8sBpdgo9o9nSC5fHDLvdF1peSk//25KTlKIkjAiV/okSAwcMBxCjADFEGQcrJToOQCqVWZfPAwEgQUcdD5MEA9uh5MN2mCg9UPfD68XFxWLwUTrjNU5T2BbhxOkYj/xebrnlFlGOZfhcPv744wKSvA8V3KtXrxaDndcIApajbor3oCTT1tYmgEr7I7bLaR+X+zkd4v/IOqwbFhaGYcOGCTslQph1OZ1kexwHhNftt98O6oH4fxEmTDS4vPLKK0FdFD+zTzExMb/1mRIfQcZ6lKookdL+Sf4/bPfOO+8UfaPERgBR8mI+6/L7a2lpEdCiQp06NMKr//+7dOnSc8BJSktcndBRkdcjUk/vr9DqeoVTOaPJLsCk1RFODvxyqhu33nc3lEAFYaEKspNDUP1BHjrWz0OragraSrLRpsnBznXjsHF5Fh66IRIj4xUMCKQL2ECMyxyD6+ZfhC9qCnG4fTc81l647L4orh6bHRadGRsrazBjykwEBYYiNMQXasqfeqNQipW+OTe/nD9LpDbTbbfdJh4SDiTa6zC4p8nsgtHigcXu9e0rc3vOxFxjnD0bTp3sRVtzJ76o2YTlH6zAU48twY3X3IL8KRchJysbI+ISMGTQIAzwU8DQSZwSxoUpmD46ALfMjcOTt4zGsiczUfHuRHyxMgffrZmA+tIpaCybhP2Fab7tM6pItHDbTXE0WkpihWFom4b2VyOEryquDgqpqDxSKNCbKwYJmyhCqqUiSEhR9GHO4J/NmpFoLE1FQ0UM6qqGoL4mCjsIri+m4NPnh2Ne1iDcM3cISt+ZiE2rJ6Fj02TsKkvGrurpWLM0B5PGhGFAgIK0pFhoCqtg1NrhFWDywmvzwOuww2nVwWruhstlEAppCSYe/7fhJKHUH1ISTpSiOEgoHfD3p8RMCBFKlGQ46FmPfWY7BIp4aen1Aij9pScqkftLEZyaEBa8BwFH6UAOUh4pAbA9CTjegxIWByqvsz+cPhFcbIP354CdMmWKuC6lCQKQcJEraVKBrtFohEKZOitO12666SbRNtslJAkoAoR9oJKcNkq8t5zeEhz8HiSYCGx+V1TEE0qUfFifko0EJaWu7du3C/gQjgQfFdv8f1iG9yaA2FfWl9NQ5vP+V111FQgfSpZvvPGGkJwWLlwo6rO/bIf6rLP/FKEIF179JJi60KfvRo+2C109PcJyWG9w4sQpnfDtc+KkHkvf/QRBoQMQ4K9gfFoglj2TjI6afNQXjEDDmmS0qCZgT0E+1r2YjVsuH4SIUAXBgQriE2Iw97KLUVauxvFjB2C362A1dsPDSL+9XbAajXDbXND3GuCyuvH5hi+RO3UmAv0CRSSX4EA/BPgpGMTp3XnAxOv8oZnkG42SkzAQdNh8gSG9Dti9Dlg9dlhdNlicdpgddrFx2cbwRi4n7PSP7XIJS+pjx3uxZ08TNtR8hdffWIo77robM2fNRHb2OKQkxiI6IuQ3UEX6K8hOoJ1ROB6YH4+X7krDp8+Ow/r38rBp5WQ0VUxEa+VotJSPQoM6BbVFCagtikejOgnNFXTZSzDFivh6BBQV7S1lUcJ9cUvpEHRqBqNTM9S3t7D4jD9yTQbq6fOqegj2VEfge00EtmuSsfKpcHy+PAM7SyajacNM7CbIyoejrnQYvloTjYav52HZ61ORlR6BYeEhSIwZhZqyXeg5poPX4YXXaoPT2AOvxwivh5FUjHDYL+y0jgDhwCZkJGz4mQOeA5ODjm9zDg6pC5IQ5eBkGQ5+nss2ZJ5sg585qPgscaDxTT937lx8//33YuWLy+tSMqHeh2UWL178mzRGMPGeHJysK9uhpMS2+T9wQLMf11133W8wYDtcwZP9JFCefvpp8RzLoLVsj1M0CUcJNU63CE1ChLo1QonfAe/N6S2nbASIlNqklEfgMDGfS/1creM92Be23djYKOqxLmFWWFj423fCtjnV5XSObRBAvKeEm1Tcsx0pZRKY/CynfrfeeuvZbMIZOPHHosREMJ1Gr74bOlrJGkzQmxzo6jGhp4e+bCwoL/sSo9OzEOoXgMSIQDx3Tyx2qLOxpyBc2OfUFSSgoTQfRa/kY9ooBVGDFfgHBiA5Iw0vvfYcGpsaRMwvg6EP2r5uMVWw8O3V2wej3gyHzQmL3gqTzgKH2YWtm75B7uRpGBQSKlbdBgT5iVU6v78AJ36xTPxC+GagSE/JyWo3weE2wubRweLRwerRwebRw+Y1wOI2wuwywu61weQ0QW81wGC3wOpxCUWw3euBxetBn9GE01ot2g934vNNNXhn6Wu4887rcPHMqZiQNRrJMREYFhoopoARXBEJVzBjVDBuuzQdz9yRjbUvZqFmWRZ2qXJRWzkDe9TZ2Fmcjn20vVqfjoYy+kyP8wFKGGgmiKgvjCLcUZIoHOsdLk7AwaIMdBSNQWvJGDRp0lFfwalcJPavj8TeqkjUrU9C/fp07GH04ZqxqNXEiQChDSUROFTD7T4j8LV6HL6tuQnPPp6P6IhgBCrhmDHxKpSsqoG+VwuvwwCb6RQ8bgNcDDVudoiFkQspOUmpQ4KFgOoPJ17/xz/+IRTIBAB/d+ZJGPGcUGB9Phc8l1MxDlBKUpxGzZw5UzxDfI442DIyMsTKHCF1+eWXQxorcqBxwFE3wykX22c7BBT1QKzPQcwynD6xr7xOiPK+nCaxDZbhkXBiv7hMP2fOHDHYWZcKZkLmoosuwgMPPCCkJ0of8lnndQKI/8/mzZt/uy9Bw0UhTgkJF+rkeH/2Q0pnBI+cMnJax3HDvvD/JogJHpahpEcJTo4ttk3dGeFE2L322mvi/+D/wrpUvFOvdfHFF2PWrFmYPn26OPJ/oIKcwgPrnP3ng5OI+94NLcFk8MHJZLdAZ7Sgp8+E7m4jrGYndny/F1fMvUqEp+aAu+/yRHz+0RTsLE5AnSoYbdVDceCLafjk2ZHIHROIwQP8oPgFY+zEXHxSUITTfVpYhY0U33oGmMwWWCycKnJF0A2ryQWd1gyn3QNdjwF2kwMeuwd1+/bj2iuvRPSQCAwMDsCg0CAE+P++FCp/VH4Z8iHgOcVRfjnMo00Jf2wmh8MKm8MIu0sPu8cIp8cMl8cCp9cCi8MAnVkLh8cBi8sCs9MKs9sOs9sBk8cJq9cNi8cl8uweJ+weO0wOIyw2I/p03WhprcXnn1Xg6Scfwo0LL8e0iROQkTwC0YM5BfQTXkC5CDApVcGCmQPwzJ2jsOqVSVi/Mg9bCvOwpzIXTTVTUVs6Eg1lKWgupVeCBLSrE0WY9AMlI0SY9aPFqfixYAQOFTCwQyo61D4dH22wGivp0yoK+7nVhcFBK6LRWhWDQzXxwvtmY1G4CCa6b20c2j6biO9Kp6B4+Qw8/kAuYoYEIdgvCKGBA3FJ3mVYX1oMu60XXq8BHqcJFrMDNosXNuvvW1QkpOT3y8/y/K8cCQKZCJk/SgSJTOeTnDg4OYi5GEIphe2zDqHBzxJkzOc5ByxBwfb5mWW58iUHJ58hPktMEiDMY5KrcHIwl5aWComJeh1K6lQrsA7hwoFMOFEHxsHM/nDAUwKTzzHvUV1dLeCxdu1aASTW5b2olObUkVNLTvWoyyEweY31uaJHqLJN2ibJNinZMXHKRigRSIQMYU2gUFpiPfaHOiFCl31m4v/F6S3/H7bLKSGV27wnr7NdmlKwTdanPZO8xrrUuXHFkzorApMGq9xUzBU95jOPx7P/FLFCR12T/jR0hl/RZ+xCn6EHRqsFXb06GPR29Hbr8NORo7hn0SIRxikqWEF+6hB8vnQuGjXTUFsSi30lYWjemIaSd0Yif7yCgcEKlICByJ42D2Wb9qLPbIeWzuh7euEimExWGEzcl+cQyWR0wGR0nkkOmPQ2WEx2OC30JeTCobY2PHjPnUhOiMeQwWEICgz47QeRYit/VP4Y8gfhD8Uviflc6eC0jl+enUvj3ODKMNoOL1x27i1zi8CQTroPsXMjrAsGsxUWuxMOjwcWlwtmlxM2njvp84i2P9YzyQaH6/dkd9lhMBvw84lj2LZrB1Z88hHuuf8+zJg1EynpGRgWFYkBAYEI8/NDJFcBU/xw/dwEvPBADta9NRWfrZqOnapc7FVno149BrQg71An46A6SbiMOVQUj+OakfixIAkH10XhML01lNP4cxhayuLQWjUCzWXcOE3JKxIt9BvFiMPqcHSqItBRMhztqtFoLM7GrsKpUL2ThTuuGoYRkQoGBvh0g0PD/BAWpGDWtGzs/LYGLsLcZoHT6YXZ4obZZPsNIpQOhER6Bv7U6TFPpv6AkhA631FC6HxHgkQmAkUm5nHgcMWO9+fvzv5wMPJcgornTARW/8TrnKLx+WEiHDIzM4VuiPohvu25qsYjV99kGT6L1DGxLQ5WgvbGG28UfZESDo0Q5XUOdkohBJwEH6dmnEYRsLQDYttyJY+rXqxLkPJ/4QBPSEgQ7bMcp3qc1vHenC1QX8Z8QoJHKtApWbE+JTzqmQgsAoXAYduEXn84sV87duwQdQhU9ovGmHKcsW1OS5nP/4dQHzRokPh/eI32XQQQ26VkRshRCmP/CEJunubU9ew/xbdC1yPA5INTN/oMfdDTL7jBBgshoTNgxdLXEUblb4CCMVEB2PDGLNSvyUNbaQ7aKsdirzoNX6zOwj8mKhhEK9qgQIydcgm+aTyKkxYvfjyph5M74E9r4TKYYTbaYTA5YTT+a/JByg6L0Q6bxQG7mecmWKmAPNSJt159CWnJI8BpHb8c+aXzi+dbiZ/5Q/MzH07m8Zyh0fnFigFjccBp8sBu8MJh8MBp8cJp8cBuZnILyY2SokVIB3Ty74CNinSvBw63GwajAS6HU+xH4540Jn7mFg/qp6ivsns8MDod0HPPGl3fOu1oPHIQq9QqPPr0EsyYNQsjR6ZjaMRgDAj0F4anBFXuGD/ccXk0Plg8GUUvZmLrR5PQUDJNhD8XUYLV6filOguHVek4XJKIQ+oh6CwNQ2sZPWsOQIs6WuzRa9WkoV2TIuykOjTDcFA1FAeLI3GoKA6dhek4VD4Fu1dNwKdPpOP6aQqSQhTEDlCQGKlg5AgFE8YOwtg0f7ESe0luDhr27oKOG2PdLuGamd8JBz0HH0HD71VKUBJK8ngh4MQ+8fenvum3l5LdLqAkJSMJpnPBiQOW0yC2wcFJ3ci6deuElTStqTnNoTkC26eVNwcjyzIRQlxJ4//PtgknPoNsh4lTILZFC2kaZObm5op8Pqu8Tv2L1AW9+eabv0GAbdAEgfUoeXA28Mgjj4j7sR6vs59yesXfhoDleCBcmWhvxHsSRJTAKJmxDPvMfIKDwJJQk+0SgpSY2DalTPZBfjcsQ8mJsOR1QofTXilRcpxedtllQn/H7439pmkPLdvZf0p+fzCto76p+wycTgupScu5uc4Eq9EN3Wktdm7ehHHJUYjwUzAiQsFmZdflAAAgAElEQVSzd8Sio/Ji1H+ajI7SbOwrmoCv1+Tj/gWRQvkdGBKAkZMmY+OOWvS4PehyeGB1e2ExOqA/0QuX2QWz4V+h5IMUpSe7SE67W1jnWs1W2Kw2sVXBbjPj2NEjWP3JSowZPfq3f54/qnwwKC3xy5JUl1IVr3OVhGK23eqETeeBVeuF2+BbLvfYvXBZPXCY3HBa3UIh73V74HE5hf9sm5VbOexwua2wW21iJctrpbKYq1leiPoOOmijB0kq012wuF0wMPS6y+RzjuYxQ++1wOC1Y19LI1aXFODuB+/BzFm5SE9JwbBBg4SOapifIsJZXZoZgOduHIlVi8eh5q1s7FubiybVNOxfMxZtpVliVa9JPRD1qkC0VPijc8MgdJbHormIJgmj0VkyGp3FKThQkoBDxQk4xAg1BaPQuS4bu1ZmYsX9sViYpWBadBAuTg/H1dOH4O5rI/HC4ggUr5yKR++IQkZUsPjd58+5DG0t7WIKa3Yb4fa6BIwIHoKAA57nBAEhJcHE44WAEyUAPgscLPzNOXBkX9nf80lOXC2TilwOeupM+JanVMi2CQ+2wTapF6JUxWeMZZlorS2hSNcjBIN8FnnOpXZp6Mh68qU6cuRIIaVQYmSfOZBpwS3hwv8pKytLAI3Gj4QIn3Ve53NPCYv/MyUnQoSQJfwojbFfvBfHC+9DCZA6KtZlPk0jKP0QLlSIszyvsTynYmxPTusknGS/uGpIEPN+1GcRfpxWE3pSKmTf2BdCn4akNCLlfdl/2m+d/afozuibKDVpDV3Q0vWpzggtd2KbPTjaehDz8qZjWICC2CAFt14eji3r8oRngQPlyWhSZ2PHutl4/cEsAS5uKUkflY6yzzeh1+HAaasdWodLrID1devgtnlg7DKdBScHjEZO7wgmG0xGq1CM9/X2gtFd3S4XtH09IjkcFjG94ErExIkTf1MU8oeR/6gkNr9cmc9ziuCcW3tcHjjMTgEih9HtO5pccNlc8NjdcDudMOkoHdlFjDZaSzsdJtjtBrHC6PW4fFCScLJ64bZxeuiFUwDKDZPVAqPDDKPLDKPHBIvXApPXBKPHCL1bD6NbD4vHjD5LL5ramrB27RrcddttyM3OQXZqBhJCwxDl54u5NyFawYLJIXjqugSsfT4HW9fMwdZPJ2Jf6Tg0rk9FfVUkGisHobV6CDoqk9CuTkdHSSY6izNxoGgUDhSn42BROg4UjkRnQSbaC7Kx7C4FD18chgcvHoL370uB+pVcfLYyH9vLpmPvxslo+2YuNhXMxNO3piJ1sJ9w7bvg6ivRcbgBRmcPXB7ftI4DnTCSEpSA//8ncKKUwUHO/nGgs69M7Ov54ERlMwc+EyFCqYJtsD0OQrZJQPGcicaMHGwSOlKS4HSXy+x8/qRkRCme0gKlHE7DIiMjxdSMxo18gRJ4nHYR+FSW006PA51gIsRYh/Dg88/7EjSchrGv7AOnTuwr2yBQOCXjd0GosX8EEu9JWLJNKr9pIkFpjv8T9Vlsk2XZHq3SabhKMFGqonTFPXW8H+/LRFMAgo1TSkpYvDfHKK3ECaIRI0aIflM/xe9B3pf5hBWntmf/KT7bJkLpNPqM3dCJ+bcFXSeMMHabsOSBR4Q3SQYJmDkyFJXLpqBu/TQ0lsbgyGejsKtoCjYuuxzTM7gNRMGQwRF4+eXXYTRb0aPtg8VmETHuaOxpod6J+/d0Fvimb5SUfpeWCCVujWESb2KbFWYLPxMKVpFMZiOM4rNdLOnSYpVvBRKcD4AEkwQVj0yEFMtwzm6iMzEzt2bQJQj9EvmU5Ixm63FSUjMI63ibTQerVQeHQw+vlyt9epjNXFK3w233/ksimERy0KWIC07u8Hfb4XBZYXf5VgedbgNsLh2M9m7obCdhcnfB7tXD4bbA7rTj9Kku7N2+F6VrS7Ho2tswK3si0mNiERkUBC5A0PBzcqo/FlwcjXf+OQklH2Rjq2YadlfnYG9FOmq5EbiUexjT0F4yFh3FdFzHlIm24tFoLc4QXkObS0ai4qUwbF81FvuK8rG/eDaaKi5FnXoq9hSloqk8HdtXx6OzZja+/fQy3Hf5UCSFK8KSfNGd1+DAj/Wiz1Iq4kDlIOSRg5+/3YWWnDjAKXVI/RelHQkW9u98cOIWEtpJ8Xl5/fXXxfSNA1e2w7bkahvbox0Qy7MsE5fTOZDZD07j5EuSz+fLL78sBuOTTz4ppjVPPPGEmPJwqsZ+8T4c6AQT78MBTyU72+GqHqd9L730kpha8RrNHV544QVxX7ZNRTclJ0KEbTCxL5xKEbIECaU5jh2aW7AujT6pEyLMqBinTRKnlLzGKReBxTYpFfFIWPHaM888I/YJUtJkPqU2lmEfpF6Jfef3wfsS1Fyhow6YdlqUMKmjosR19p9CEwKu0klFOKUmGiEae13YVLlZDIqkYAWjI/zx0TOjsbsiH3XVY9BYFYP9mkTs0szF4pvShOg/wD8A11x5DQ53HoZVp4XTqINd24vuX47BJUJau/DD8ZOwetxnpCTfFE5A6TcwcUXG9/C4PS4YzQZ093WL7RIOlwN6o15szqTIzERJiG8PLlfKqRyPfBjkA0FoEVA8UhTesuUrMS2x2EzQ6vvQ1Xsa3cLotOfMrnwqeO3wep2wO8wwGfVwu50iHJLFzD1nTjic7n9J3LXPFUeXwwW3w+GDn8UEt80Kj80Kp80Mt80CL9t1WkV4JYZZcrvpc10v9Fpejxde+vA2utHXZcLubfvxzqvvYN7cSzE6PQMR4eEIDfRHSKAfYocqmJMbgucfyYF62SxsLszF9uJs7CsZhYaSDLSqR6NdNRZtxVloLclCi2okmtRJaCiLQX15DBpLRwlle2v1eDSXj8betT5Poz9UZYjtNPUfx6BTnY0DVXPx+YczcNcVEYgd5LNXe+Dh2/HzsSMCQFx1oiQiASUlkwsNJ/aJb2/2R0o3BAsTAXA+OLEcB5ssS0jwM4+8xgHPtnmdUgolRt5PQotlWY79kJKTfFHSzonlKOFQGiGICAXWYVuyPeYRMPIehAYHPesRSoQi70Eg8D4SaoQm22V/mFieoGAZKsHZd7ZF4LAc60no8H4SLOwPoUZosRyvsS22L8/ZRwkk2V85rWQZtsvEcyriqYujsp/tEkiyLO959p9CfZNWT8mJR+qfLND3OdFRfxRXzroCQ/wUpA5U8OR1sdhePAe7NVnYrY5HU00KtmlGo2zZTIyl9beiCKvpmqr1cBlN8Oh64NV2w37qFFx9vsgVfQzn7HGgz2mB0WSF2SiTBWYjleQ+MFFSokMxq90Cg0mPXj0DGRqgMxnFKiKV0yaLWTwQfDPxS6RVKkVlAomirwQVgUSJifk8Z5p31ZVobG7Chi9qsPyTlXj7g3fx1rtL8cGyZdBUVGHXvloc/fkE7A4XPF4v9DorrFSa272wmj1wESBuK6weM2xMbrOQkLh6R/9HHocdXpdHBGV06qzwGB0+HZXNC6/JC4/WCbfR5dsaYvPAanTAbqF7XC/cbo+Ano27/ulG1+XBj8dPQV1RjZvvvg+ZEyYjNjlJbBsSUW0CFGQlKbj7qhisWDIemz7KxN6ScWjSZKFZnSUU6U2qcWgopVvjGOxbH4z91aHYVxKLupIE7CkcgAZNII7UROBwxRB0rh2GwwXJOFY0BgfWZKCteCzqVZOwac0sXD1rCGIiFGEI+88nF6OjrV34gpJ6QbfLDYuFRppcqePRAhttxKxmWK08clpFHdX5kkW8oPiS+tfE58MnWXNwM3GAyiRBwiOvER4c6Bz8LMNzDmaes4yEFo/MPztxEPL5InhZngOUbTCfA5z3YNsyn2V4nUDgd8DPlNwIJym98yg39vI6y7KOTGyX5wQGr8k+MV9KUxzovMYyhBSPTAQHy7M/BBEBxOvsL8eIPLIM2+CR95L2S2yf8GLbLM8yvC+vEyKEi8xnuzzndV7jvQgx1idoOLWTkGN9CSL2geVZju3znLo8gvLsP8Vk5BcjvwQrdFo3Tv5sxUOLnkCY4ofYQAVzx4Xje27oVXE6Nxp1mlTsKh+Nb8pn4oEbhgqPk6F+Ch6690Hh/8ZpssKl18Gl64ZL1wu3SS8CFIp9fHYrtNTHmCSQCCUfmHxw4oNlgNligsGoF5KT0WoSsfLMNi7tM9y5HjaHT+nKH5hvLT6IFB+5vMt5rXwYJKzkdE8CKmdyDiJjhkEJ9IfC7TCUrvz8MDA8AhmjMvHKa29h9+464fHRYnHDZHDBbnXDwhU9OxX8hJNRJB+cuMzOZIXbYYeHYKMOy+KGx+oRyWvxwGv0wKP/XYnucXjB5Hae0Vc5nLDauDrogtPjW0gw0gbM44XW5sZ3+5uwdPnHmDptKjLSUxAzJExE7aULlJQIBQtnBeDVB1NRtnQitqzOwx7VRdinycWe0kzsrYzH3g1h2F0RiLrS4WKf34GNkTiwYSBaSwPRrg7GD+rh+EmVhp+KM3BgXQo6S9NQrxmFfdUz8JVqLuZfFIqIEEXc84Wnn0P3iR4fZKl/c3qFiYjdboPFqoXNoYXD2Qe7Qwub2PpihM1kFwsSNCXh1N9ksQlbN4uFq3/cWuLbUkLfYTIZzHr4kgkGYYJiFS5N/gxO8pmQ4OFglQOdzwzTn8FJwoFHSgQEGu/HwcxzDmAONF6XsGObHKwsx/uxDCFFvQufR2kOwKkMy7A/HLgSEqzLAc12mUfYEAC8Pwc78/hZSjEc3MyX0otsh20yybIEANsmUFiGUousKz+zPPvLe7JN1iVw+FlKPjyyb+wj2+Q1mdg+6xBQrMd7sB0JSN6P9TjT4b1ku4QWyzLv7D/FYTNBxyCBfTbo+rzQ93lRVvg9QpRBwmtAVmwgSt6egqb1s7G/KAPtDOFUmIEdFTOhWpmP3Cyfd4H4oYPx3ZbtcNgYxcMhltsNZu7N64bZ1AVC0GQwgvZLIpn4dvS9/c57tJwxzLNaRFAFBlbgj86Hgg8hHwQ+GF6vVxh60eiNSj6utkgY8SineUKqosuVcyWFinV/4RA/Ly9fiKGcPnLqSZ2ZzcpIJQylZIPdaT2TGCbp9+S0OyATlewycWsOE8MYCRsrusc9k+iSxJd801WGABeJyntKU2elE8ePo6xUjUW3LRLK0tjo4RgQFIJgxU/s95uWFYqHb8vG6rdmo2bNbHyrnoY9lVmo3ZCC7wvD0LGRm5BjUa+KQLMmAh0VQ9FZHoUDpbE4WJqAtuJ4tKpHoLUyDXtVydhTkYXWr+dC/WEq5kwIBbfnhPsF4I0lb0B3QickQpfJC72Wiwgu6E0nYXefgNN9HE7XCVgtp2DRc6rvgcfphd5ggZ4gsjiF3ZSF+xytnO7bfP6ULDoYLX0i6a0M4MoI0ybozHboGR+R0Xf7SU1/dH4uEBFK54MTByEHK8vxnEc+p5QuOKAl7JjHe/Mz2yUoeJ35shx1K1Q409CSyl++RKV0xAFMwDHxHgQPz1lXwoVlWY4AYD7PeWRZliEo+JnXeY39Zj/kZ4KBMJCfCQIJIyn5ETwSemxD1mG+BA2v81wCiUfeWyZek+nsPILpfOm/wKmv+ziMRh3MJif0OheOHDiJ3AlzEKYEIDJEwfMPJOFb9QzUlo9GW1UyWopj0FI2Fns2XImlz08UeggGabx94Xx0n+iDyehFn97lC1Fu1UJnOQ2D5VcYTb2wGPSw6hwimY1/HU784ZkoHcnEz/xiCSnCQ4KKill+MVRKjhkzRkzvCCMmrhJwiienfHyb/Vniaga3HvCHJ/go3hOGFNV5/E8S+/zfT044HVahAzObLdi3vwGvvP4uZs2+HLFxSQjw9+mluJE3O1XBPQvi8emrE7C5YAq2lWSjtmws2jaOQlMlw7sPR3NZHFo0sWgqikJz8XB0lDJ8VhxqC2LQUpGB1upM7CpOxe7SUdhdNhqVyzMxJT0cNMZlhJ2Vb38Ifbcepm6+3BwwGpywOU0wOU7DYD8KvfUoTJaTsFp0cJhcYEAFetI0O1yw2D0w84VmdEOrs8JktsPJ31PAqQd665lk0UFn8cFJZ3b+x3DqLzXxnL9x/0Qg8DPBxN+dRz5jPLI8f3sJEZbjgOazyOuyDPMJCk5haA/F3f9cppfbSwgLWZbPLD/zXhz0vBcBQYjwOec1nkv48Br7yLK8Lu/L+7EMP/OcddhPworg4DmBxiNhw/oswyTvx/pMMo91WYdl2Qbzec4kIcSjBBOPMl/mnQ9MvH72n2Kx9+Lk6aNi+0VPz2kseeoJhNAkPUDBrJyB2Ky+BHvXT0Z9VRLaqqPQXDIQzRVp+K7sMtxytW9KF+6voKZMI6Ynep0HvTrnGTjxgeqGwXK6H5xsfwucCCE+JHxD8UHhj8mHgToCDnpeo3UwzQdoICf1UJze9dc/9Zeszj5nOUpf/OKo+GXbPEpI/SdwYv//+4mQpB7HAIvFDJfbDZfHix9/PoH3P1iB/PxZGJ+ZjqGDQoVnUeoNJyQqePjaKLz7SAY+X56N2vJx2KdOxD5VAprKU9BemYH2snS0lCSjuZA+pTJQu3o4GouS0UoorUvEnoIktKwfh8aafKg/ysPY1IEYFq5gcKiCNcs/hUVrEyuYfVoPdCY3TA4HrF4zLF49DA4ddGYd9IwObbGLIKyMFK2j7ZvJDYPJLbxEcMeA3sBpvJScCKffJSdKTX+H5MTnQyY+N2cnSjEc/ByYfBHyyPLM58Dm4GcdDnBCiXn8zOeQA5vncuATEnypEjB8htgu8yRIWFZKMLIttk8gsA7b4bkEDj8TJLwnISDbYl/YNq8xsb8SMLyHnKZJMLG8BBTb5HUJFd6Xzz3zed4fVmyb+UyyPI8SRH8bnE70nES3lhbiWnyztQZDBynCEjwjxg+r3piEnetnY4d6JFo2pKBRE47WsoGo0yShfMV0jIr3uQpJiQlH18+/wGpww6j3ok/nk5y4efjccLLhP5WcCCX+4FJhSSDxh+XDwcRz5lHRxiVYmvjLOT8lJ4LnzxIhRqBRsqLvZAJJgk8C8ULCye22wZeoe7PC7nDDyamfyyvs1CoqSnHbjVdj2rhRSIwIxzDF56M9NVgRvp0+fZYbj8dgn2YaGsunYn9JFmoL04Q/8xYVjWtT0FKSgDZVElpVSahfl4hmFV29jMbOwtHY89Vl+GT5BKSPCBGuVhhx57P1NdD1mUVQzh6tAzqzCwZOiT0OGFw26B126G0uGBweGKzcu+iCyepGj5Z7OO0wWb2w2XxTPq7S+qQn39ROwIpxEcWWJzuM/+G07s/AxIHM54dleC6PPCeoCADCgs+DfCnyWv+yBAAHtIQNBzQhwvqUnAgaCTIOZpaXEgmv8TPvwTY5tWJbzOO9eWR7BCbLsp5MvE5QECz/r73zjq6ruPP4tdwLlouqZcu9YBsT27gQloUkJAG8KRCywAkh2UNyDoeQQjZZpy0ECKYoJoTiLmFZLsTeFBwTim1iG2QbYcCwaXsI4Pb0epP0pD+/ez7zNOHyoveu9J6wcSKdM2funXav7v3N5/1m7m9+Qz5lmWsCfrRltTBbH/DYY+rY61KXdgAQAHNDyELufYfTG2+eUnOgRb5Tfl1x2cVGYyod5OjW60ZrT8OVenbDfO1/nM0rq3W4rsTMTbxYN1U1y+eaX2U2Hrjh6svVFk4q4GtRLNyhQJBfzoTxbBCI+RSKnnRpTnGzJKZQOPGQEQ5ePjGgIOblo5FYS14EC4jxNQ9DNozLiDEpyBVsWcpjHQuc7DCsN4Z1hYCN+a1kkjWCQWOTFU/g8zuuOL6wWlIGUAxDj731lg4897Ru+8qNWjx9pmaXlKi0qL8qnfRWXMvmOrrnq3P1i/s/rN1rLtLB+sU6+PgMHVhbYjZwOLqlQn/aNkFH8Y6wttK4Z3ltwywdWDvd7AP45PaLdc+Ppmt61RCNGuqovHiwntyxXSeOHdc7x07onZM+vXXKrxOhqIJJFkt3KNLSoWC8w2jWwWhYgXBcwUir0ZxCESbU0/NOYUAUDSgSbVbExOl5nKgx0uVHqLA5JwuTzJjOTWBBLYEfN2I+gePqF1mgU9KJ0aIADB2Zdhi+sSQEeyLsgJj8pcMDFmTTwoQ6TATzSd1OUts8YAEIyGMxLPJLGvlACpBwbe4F2ySuRVnOybP5AAUIcl+k0Qb/A7ZUwJD2KMO9AUFinMjZJTn2+ixbYdEvdSlPPe6ZZ/C+w8kX6lCzL6VHH3zMaEzlgx1dPGugnl7/MT27ZoEOrJ+n17bN136M8uqr9dpGPC3O03/dNEkjWGtX5GjDIzWKB+JKIFzBDoVDHQqEgVPYrPBPT4z7jb1QLBg1LlEKhRPA4SUTABSdnWNeBufk86tih06kQ3yEB388WM3mCrwoyhEQVgs9IMVxYXApbL6KveUwGG1NRJRMRJRKAc4WxRJxRXgW7R1qa283k/dMPif8UR16bp/u//4dumTuIs0qH6/yfgNU6vRX9UBHH53p6HtfnKJf1HxY+zcuUmPDTB3ePEFHtrBMqczsMNO0tkQvr63Ua+sm6eWNU7R3W5V+u3WSdm1bqgd+OEeTRxUZY91Fs6bqB9/8jpZ/c7lu/+Fd+tmDj2hj/Tb99qndOnzkdb35znEFwmHjTwv4+Jk8juMzq13hKFpfUs1+DG1j5kutBVM0EjCmJvEQWnfvw8lCycYYKbImji9tfAHGUyQ+i7D8xugRLQh5A0gAhPkkjCMxksQiGuttfGMDDzo+sogM0sGJMdjEpQvW38gomg9Qol12KyHvu9/9rkm39YEhcAB8tI3LFsxnuD9cAZNur0EdrmWBQvv8P7SL3PN/ci2gBfTwYEA+/x/tMnGPkSa+qEjHVTH9h3q0eXrgFOjQwQN/0YzKySotcjR1hKOab4xX0xOXat/qaTqy8Ty9UjdbTWsn67XayTrCpGnDfN24bLSxCB/iONq7a6ci/qgSkXYFmlPvwgljSnZwifoVjrjhZG2auve1DhgQAI4NQAKh4IUBCl4wMb9QlEG7IY2XRTm0Ho4ZkjFvBMByBQQP7YN61OEl0j7tWhieKUDxJbCNYWunhXt7ivtigXJMsdaYEqlWRZm8b2s35g8sbGbtHy53j/z+qB5bsU6L535UU8pmqbhosEaxCcQg/Io7+tZ1o7T9oYV6Zv1MvdgwVY31VXph/RgdWjdGTbVsmc7GnmN1cPtw7dk6TLs2jNP+Jz6h5TeM14dKioyP8lFOkcY6wzTSGaRhTn+zRVf5mGJ97CMX6kc/uE1bNq/TH/54SD4/C7FDxttqMMhymHbx1c4YAUcSxnwEOAGmeJgQUiIUUzwUM19+eUdeAfkgIAPugCy4g4USGjkB62h8KmEdzTQAUwO4OmENGJbnaB/IILIBFNDCARIaOivw8d3NchEW2gIurkW7xMgoy0mYOmD5BpoQ1ycm8HWPKQdc6nKOZkOgDODCJxIfe7DKpm22XeLarJVD86GvAA+uBXiACRbsLFlhOQqeDoAVbVpNiKkLrLgJLATmfwa2WIrj9RLIooEBWeLTAqfjx2O6+T9uNc78SxxH1188THvWL9bv11Tr9a3TjJ3Liw+X6Y+bZqlpTZWa1ozWi3Xn64rFA41vouKhQ3Vo3/OKh5IKNifl92Gw1q4QmlMkaowow5GA2VYKS+sY5gShtJtUXmx3QldwIo26vGgElBeH8JHGS7HDOvKBFOl2aAZcOM4VqA+YLOhsXc5pq1Aw5bq2Vx474GAbxZ5trD1MxGNqYw6qPWmMQ8OJoJl8DifiCoRixjarJdahlnDnIud4h479X7tW3rtJlyy+UhMrJ2jU4CHGyr9iiKM55Y7u+tpU1d87V3vq5pv9+16om6SXNlXrlYYJamoo0cGGoWr6xWjtXjNWhzZdoDf+5zp973NjdOn4IVpSNVRLqoZpyYRzdEF1seZUjNDE4gEaO9gxUwHDixx9etlSPbjyDh19rVGRUEDhEGv0OtTC9lMB7Ji6hlNLMGIAFQl5gwm56A6cLJiILZyQG94xHZgPKrj6tSBEfpADOj0yx1IM1qExBOR6tIF8ommQjtZlr4FsAgTMXYAXa8zY04402mfIhLdLQIIbEq6PhkObaENoU6xlY8hHGvfBPXB/TEWwFIQ6AIT7A0Ico6Hh5I0lM2hbpNEu12OIyX0DHNrC6wJzray143/lOhZkQNmCidg9F0WeDTbdnjO89Qp/97Vu9zPPaMywQWaZyoyR/bW95gI1bpqnwxvLzTZGR2pL9cqGSh3ZMF4vb6jSy3Wl2l/3IS2Z5ZhfxPlzztWfjr5hfCIlom0KBlrMLx9wStui4Cc5aIZ0wAmh6o5gAYBcwQIrW8xLyxUQvkICL62QUAjcWpNtao2lTEjGMQ5NKJGMKN4SVpT1f62BdOA8yVxUqxLxduMkLhntMNbuIeyK2tt0whfVo49t0Cc/8W+qrhyvUUOH6xy2ycKt6zhH37h2nDbXLNXT6xZoz8bZatw2TYc2T9DhunH6w5apeh0Tk8fP1dGGBWpcO0+7aqbpyZpZ+s3Kedr58IX69cMfUe1dF+oHX56iq5YWa37lUE0a2d+YIAwZ4OiSi+Zq88a1Cvj9ajVgYrje2jnxzQ9BqFNzChnNqbtwytSWgEJPAhoLskWHoqOipVCfjsq7s8M0Oh9feRnqIa/k0+kJwAbfTWhBQIA8AnLJcBFooUGxyJj7BVBoZcCHdODE9WmLa6MFARYAw/UpTzogoByW1pQBhIAMOAIhrs1iXzYpYC4JExm2yKJdCylGBsCMwDwT/zPaH1CifcoRgB1tW/h4xdngRLobVtx35p9zw7WfMcMzds699ZqJeq72cjVuXqSD9ZP1Uj3bb1erqY690mbqJeP4bLqef/xSzZtUpEH9izR7xnQdfeVVs6MJXgcCfnY3iSkUjrtsUfrglAkyL+0od36rkiyniXYoGUspafxOsVQkqHgLYGruDH5FW0KKYnaQSBpIxRMpRZOtCqYiOplsVi3CX5MAABEpSURBVLgjqVhHSn89HtTqNZu07IprNGXcZBUPHqriovT+dudP4ANJmTbVLNFTZu/B2TpcO0N/bpitptXj9eLDpfrT1ln68xMz9dK6Sh2uq9Kr22bohdrJ2rtuhho3LdWRHZ/S83VXaN335+k/r6/QnPHDzZ55Y0ekdx9+8IF7dPL4cfmbMY9Ir70M4VMsisdUhnYhxTqHdQztvH7gCoUTYKHDYvHMEGfHjh2m49Iu4KKjopEzHMJ+jvVy5FEPqNnrAxu+EuPHiHdK50Y7YY6I+Sm0EzQlrgVocD3CsIt5HjxIAgtARIytFKBj+QvlScddC/WACJoM1+YagIl7oAyuUNDQGBJyzkaYLL7lXoELoAAOtMn/xTAV4OIEjnaZWOf6wIxrcO4FJZtfEJzOGZTeAbdycJHW/eQ67dl0o55dd5meWXOBdq85T3tXn6+9qxZo72NLtXvVh7V71UV6ctVVmjdthIpHjlD1+AlmjRXGgD5fs4EUi4fTX1P4ovLeryp9mlNa48oNn9xDzmQyDScAZcLf4BRWoqVZ8VafKzSngWUgFTagirQFdCz+R0U6TijSEdCp1oDCbOLQ0aFX33hbdY/v0Ccvu0qTq6do9IgRGo2xpeNoVoWjW74wVbX3XKS9q+aoad0U/e/mWTpaP1UvrS3Xkbpxer0BA86xerWhUk31FTpUV6EDG6p0oG6SXtw4U40N87R/yyV69M6LddmiMRpf3C/9YWWgoxV33q5QABhhAR430wKsp2R9pdW+0x9Uou87nNCC6Lx0RuADnIASQ31iOj5aEEM5gMGwCo0FrchqOpTZuXOnybebegIHNC+Mez/+8Y+bTo/PIz7UoOFgJMxHmJtuuskAjE4OIAiAENAxOQ2QuD7pXI97pT4wsEDjPoEOrooBIPvfYfvHXBbzXWhRaEGUoR00GcDG9TGjwVUw17EwIo/nAcQsfLziguA0yHE0erCjmRXD9dWrL9S3v7hYN19VrW9cW6VvXlui2/6dUKbbPl+lb10zUd+6ZrJu+fz5qq4YruHDR6h4VLGaml5SayvWscfTSw/MRKUFkztOD+m8fvV40LmGdORlG87Z9FxDOvIKGdJRN1MT6ul54XBqVxLvnTGGdfjzRnMCTgGzpi0NqeZOWHUCygz3goqmfAp1vK1w6q8KpN7WschbOsGHixSf+1NKdHToreMR/erXz+mGL3xZkydUi7lF4xJnUD/NKHF0x5cqtOPuGXru4dl6/rHpZtUAX/EO11boD9sn6UgD1uWlOlxfpoMbK9VYP14HN01S46Zp2le/QHu2Xqvf1H5F119eqYnF/Q2gWJ+5fdsWRSIxY2rAnCVwwl4uDajO+crQe3/wkJfMYDUXtBQCnawngQ5PG3Q+4IPzNOSODk9sQQRsGDLx9Y32qWfnqpAz9swjHwBQFm2L4RhwYvME5jbRoJgEx0cSvpMoh2bFlzNAwLUADm3g9A7vkYACOHE9vhgCJtyhADmeBfUAD/BkzozhIHNSTKQTo0nhwoRrARDgBEB5VkyeM6zDUyXt2HyrNVHWC0o2vyA4DXCKNNBhGQIC0k/FRf3M1twj+zlGrUe1J2BlzFcdAnMSA4tYLNtf/fr3067fPalI1K93jv1F/sBxxROhzrklfuHiJoRDTFx7C5UVsn90OPUUZu8t32LMBFjnl0ikF0Dj3zuZwM93+G9O8QAV22+lgRUwGhTDvnirX4lUQKH4MYVbfUq0RRRPJdQcD8oXjSjSnpI/ltDJQFgn/AE9ufN3+uxnrtaEynEaPewc4/u8rJ9jNum8/cvT9KuffURPrVqofRvPV+OWc7XzoXO0//EK7a8t177aKr2wcaoaN5+nxk3z9XztPD21aoH2NHxWe7bepKc23qLrPjlRlSP6qXiQo9kzp+rtt99SAABg8BgNmwCkggQjQ95yVCicAAIgonPRUfH8yDuwwznklDIAgjkjvrrhBxtYkMb1AQVmBZggAA+AAjD4YeJLGJsVACvms6gPjPhaxg8sE+acAwKrIdEmAOKLGwABckAAKKIVMZeE212uAUi4f1wI45gOWy2GqBZyN954o0nHFov/A62JfK7Nfnf8zwwHuQZDRO6d/51yPBMLH6+4IDiVjh2tspLRqqosU0VZhUpLKlVRWqWy0jKVlZWqvHysysvHqKJsjCpLSzSupELlJRM0aeIMjcXzXmWZ6rfUKhhmE843FQi9I1/z2+kJcL7KAadgQgZOPQBUH5xyTbijuRGifwvYO2UNxoNnSIlkOiSZPA8F1YG5QTya9jIaChj/4IlUhwIteFzoULS9XQGu055SIBTW1q1P6KrPXK1pE8arYhhf9/qJucolUx3dcctc/XL1Zdpd/zH9vuFiPbthgdknb/f6hXp2zUI9tWqRnl59ofbUXap9DVdq1+rL9OtHlmnXhi/pl2u/pqWzhxvNbIDj6IEH7jMucgClLxoywR8JKRCOmB2BzPIWjx+6QuEEfOj0dHKWMDGBjCZk09E46Pxo0Xw5w00vWzgxh4QpAR4t0YzQUoAU5YAAHZx2mAzH5oj7RGNBu8KbBvNKtM18E9oT1+ccqFCPyWraZBExJgR86cPkAe+aeNKkPGUBFPeHxgQIgRxpaELADjs+hohseMD/CWQsuIAsw0vmnCygGdpZuHoByZ1fEJzuvf+Huq/mv3V3zY9V8+jPdc9PH9OKleu04qG1WvHwQ7r30Xt076M/1n2P3K0Hfl6jmpVrVfPTWtWsXKUVNTW6/e479Ny+3ykSP6kIa+iiTNS9mTYdMF/mLJw6AeUhVP8smlNhw8qo+TLH1zkzlEuiMaXh1BqPKR0SamUzzHhCSZa3GM0q7eKYNOP3PJBSwpdUItCqeLgtvfMNO6uk2hVqTSnQklS8vVWxdmAVUWtHWCf9f9HWJ2r16WWf0qSKKo0cPEQj+ztmF5kLz3X09evn6M5bFun+ry/RT26ep7tumq0VN5+nn962UCu//SHde+ss3f7Vaj3w9Rm68ysTtfI7/6I7bv1XXXvFXAOngUWOrv7cpwWM3HDi2I82Zdbj4U4nt/ZUKJzowLbTsjstk8nABc3CAsMO30gHUGgjDJvQgubOnWsmtYEAQKCT0/lpkx9eNskkcB2ggW0Rc0Eck8aOvtgY0TYBjYX6DLuYxwJcDAGZSwJWnGNcieYGzAAJ98T9oPXRLgHtiPtBG8LAkuEoACEPcPLFD2twbKbwnsA1aZN8/m+CnYNyQyjbcUFwamkLKJg4plORkwq24msppROhlE7GUjoZT+pkMiBf8pR8yWY1x8Pys+lBKCVfMKaWVJvCuFwJ+RRL+OXz/1WRGL8mnXZNBk58WYn3aU4Zpge9Ayc0oTSg0nCKGbMCAyV2mOkMzElhbmAD6e04zQuk1BJoUwo3JmabLBY3tysUazFr30ItCYVawmIJUiB+UvEUm4/6zfDQ1xzU+rWbdOXlyzS+vFQjBw8yDgdHFjnGv1fpAMcY9WI7Ryjt74i0kgGOxhY5Ku3naNIIR2NYSnOOI/xRseB8xLB+qqgs7XQuGFFzNGQCwzwTjPaEX6e/n2eyP2zEhcIJgAACOiYdGs2Dc8ABLNBiAA7pvEtioEBZDCEZRlEOGJFOXQLluDeGS3xp4zqc07mZU6J98oARkLDwoh6A4Jq0SUx9ymCXxLUoy/CR61Ee2DDnRFn+D+yZaIMAoBjS2WUp1OEeSAcoNh04UZ72uD8bssEoM70gOPkDrK07qeaAT6cCfp0KBHXKH5IvQEh7ofQFfcYbpQ/PeYGQ/GyAEGCHlvTyg/QmCTw0G5oVDKYts4NBBIUXkA5uASrkuLvDPoTIBjcQbFq+sbutfI7fO4eUawiXLQ+fVpmh80sgdk94pOwMmfdHeks0qRZ27jWbZLJRZovixuFbUrF4UtFYotN3VkTROCGcDomQYvxI+QPC8yWCv2H9Ol3+iY+qorRUY4qLVT66WKXFOcKoYpWPKlZJcTpUlRVrdHGxinG2XzpaCxfON/ABQNmClR06diaIgAAd+HQG4GABASTo7N0JQMMGwNDdAMByBQshYgBjA8DKDGhZBKsZEXeV5gaPhU62GLjmChZyNgaqmX+OfaiZcW+8WPtrQWyFiNgKViFxd+GEGm4B5O6kNi3f2N1WPseFwykbtNLp+dyTu47Xc2FSl/fHhC7LgRBShgFsCIAVs1ewzvGXL19u6mDBjKN/HPSzBKS7smHlyi1rpxtO7r4DmPrg9F4Dy64gZaFk49MOJwDnFhorSL0BqJ7AqStAeXU+r3x3R87n+GyHE1Dif7DPlmOAxTwMn8fJzxUoRx1ibIeoS1u2/tkCp67A1AenswRO2QDVXeHLVs4LTjYfgbfBCzg9yc8HSO46ZxpOPflfuyqL2s//AIh4R7xnYARoOLfPPFvs/oGyP1ruH7Js7z0zvau6p0NzckOJY6sxMcwldGdIRxk7pCPu7pCOcrmGdOT1Det6OK7PR/gyhdGeW/h0J3Z3kK46Wj5pbtCcjcf5/M/uOkCI58o7BRDAyXZIjt3PPNsx7ZHHOyTmnGPq2/fsFZ9pOFkoEVsw9cHpLNKcEDYbLKC8hM4r3wtKtr4tl9lB3B0tn+OzEUjue858HpnnXs/EDRFA5dagePb2uWeL7fsBLhZwpHGMJmLzveIzBSc3lPIFU5/m9O7Xv9M654SAWSBlxgigl9B55WcTepvurm/T3B3Qq/N55bs7ej7HXu0Xmu91T+5n0dVxd67PMI45IgsUYtri2dtnni222lahsvFBgFM+GpPVMvuGdWlAnXY45QKUGx75HGcTepvubtOmEduO2J3Ol6uMV+f3ys/Vdm/keV3fPodssdc9uOHCMRPawIp5KJ69hUa2mOuSB9BsGY55R/ZLoPsdZjt216W+DZnQ6+1zqzkVAqY+zclDc7IPmRiYdDcU+rKtUBG7Bc+CxJ2Wz7FtJ9/Yq3MWmu8Fj0LbL7R+vs/N1svnnbnrdNWOW2YshLLFhcpnZn3bL2x/sZpPtthCy53fUy3JPemNEaQN7snubMfWronYbddk7Ze8YmvzlM22yaZbO6euzAVypVkTAht3qTnZh30m4eQGVFdC6Rba7h7bdvKNC+3cXvX74JTbwtu+N/u+3WDiOBuUbHomXAo5t2Aitv3FDZ2ujvvg1AtGmPZhn244WSGyQmeFsLdiK9z5xl5wKTS/D0654ZQpB1ZOrNx4xYXAyF23KzDRV7oCkjutD07/AHBCyKzgEWcKZb7n+ULJ1ss2F9Pd9ELhVWj97t5ntnL2OeQb5/veMuu5ZcMLSO58N2DyOXZDya0xdQUdN5TscVfl+oZ17wLLDuds/IEa1lmBsQLlFsLegFS+ncrWy9Zpu5teKFwKrd/d+8xWzj6HfONMyPT0PFMerJxkyo1Nz4xtuXxjCyf3yMICh9hCKFtsy7rz++B0lsEJ4bGC5RbIngpzZvl8O1Vv1fOCSzYo2HSv+l75vfV/5NtO5vvo6blbFqx8uEFj07LF7rL5HLuhxLGFTXfABJBs+T44vQsk9wS51Zhs/IHUnKzguIXsg6A55dspbT0veFgIZYu96nvl2/s4U3FPYZRZHhlwy4SVExu787o6tuXyjd1wsqDpLpj64NQ1kP4h4ISwZQprT8/PVKe01/WCRzYo2XSv+l759j7OVNzT95VZPhM4mZDJzM88zyzf03MLp3zA1AenXoKT+0HaF+KO7dib2P2C3eldHbvLdnWcKUyZ55l13Pm9oVlldobM8zPVqT8o1818Hu/XeVfDN/e7znacKR89PafdbHWQZ3cfsIByD9G8ju38kl3M67ZZ4timZ4szy2eeu+2bstk0Wfsma9NkbZe646/J2jFli619U644m6bEEM4d8MpJyPz7f8vT9BRymfpOAAAAAElFTkSuQmCC;" vertex="1" parent="1">
          <mxGeometry x="302.72" y="460" width="94.55" height="50" as="geometry" />
        </mxCell>
        <mxCell id="eew3wy5ECAB4UxySTxky-24" value="" style="shape=image;verticalLabelPosition=bottom;labelBackgroundColor=#ffffff;verticalAlign=top;aspect=fixed;imageAspect=0;image=data:image/png,iVBORw0KGgoAAAANSUhEUgAAAUcAAACNCAYAAAAkTbgNAAAgAElEQVR4Ae3dX6wuV1nH8X0J9AJOkwPFcyIHC6VqS1sMNCVg6p9CMGm4EEnlwhQlghFpIKKJETQoN5JIMDH+aQLGi140MUElqIFwYaKAwdiYIPGCcke4wPTyXL7mM3s/u6ura2bW+76z93n/PDuZrJl5Z9asWetZ3/k9z1oz+2RV/d28eXOVS9ZB2kDawDHZQIXBYfOk3nlMFZL3mgBIG0gbYAOtv4RjKuX0FNIGjt4GEo7ZCY6+E6RSTKXYsoGEY8Ix4Zg2kDbQsIGEY6NSWk+R3JfqIm3guGwg4ZhwTNWQNpA20LCBhGOjUlIhHJdCyPbO9m7ZQMIx4ZiqIW0gbaBhAwnHRqW0niK5L9VF2sBx2UDCMeGYqiFtIG2gYQMJx0alpEI4LoWQ7Z3t3bKBhGPCMVVD2kDaQMMGEo6NSmk9RXJfqou0geOygYRjwjFVQ9pA2kDDBhKOjUpJhXBcCiHbO9u7ZQMJx4Rjqoa0gbSBhg0kHBuV0nqK5L5UF2kDx2UDCceEY6qGtIG0gYYNJBwblZIK4bgUQrZ3tnfLBhKOCcdUDWkDaQMNG0g4Niql9RTJfaku0gaOywYSjgnHVA1pA2kDDRtIODYqJRXCcSmEbO9s75YNJBwTjqka0gbSBho2kHBsVErrKZL7Ul2kDRyXDSQcE46pGtIG0gYaNpBwbFRKKoTjUgjZ3tneLRtIOCYcUzWkDaQNNGwg4diolNZTJPelukgbOC4bSDgmHFM1pA2kDTRsYC/h+P3vf3/19a9/ffXFL35x9dRTT60+97nPrZ588snVF77whWGf3xyTT/rjetJne2d7L2kDewFHoAPCJ554YnX77bevTk5OupYbr75jOMe5P/zhDxOWjafjksaUeSWcDskGdhqOFCAgghwgAuMdd1i/bVject+9q994/LHVH37sA8Ni/Rd+9m1nAD095vTYk9WP/ehrVp/85CcTkgnIfEimDXTZwE7C8atf/erqne9857k6BDYL0N11112rpz//2dWz//kvq5s/eOZ8ee6733jB+v/8+z+s/uyPPrp6/3sfHc572ctetoqFkjykJ1zeSyq2tIHlbWCn4PjMM8+s3v3ud59DkWr89Kc/fbZ92wC7gKC0ZwFQoPzTP/hIoShPBhWZBrW8QWWdZp0eig3sBBzFFD/+8Y8PELz33nuHgZXvfOc7Q5zxwQcfHNRfKMUmEL/95dUP/uvvJ5fnzo4ByXC1H3/88VSQ6WKlDaQNNG3glsORixuDLEadQZFb/cEPfnCAJRf6RUDsgOEYLEHyH//mT85ilyerBGQqnUNROnkfy9ryLYVjAPCxxx5bcam/+c1vDm40tSg+yB3mFp/DcQsolrAEyP/40pPngFSONKxlDSvrM+tz323glsEREI1Ac6efffbZwYUGKfsNugDjORS/+41Jl7kEX+96KMhwsanWfW/MLH8CKW1gORu4JXCMQRZAAkYTubm34AiM4osXCcYA6M3vfW0Y5Il5k6YOpXEtZ1xZl1mX+2wDlw5Hgy9gBITA+JWvfGVQi7bvvuf+1T89/VeXAkbwjalA5kdy47nz+9yYWfaEUdrAcjZw6XCkFsHRhOxy2o597330kVkwhqKkLgfXe4M4pDycD4omkps4fjqP8mRQsWlgyxlY1mXW5b7awKXC0fvP3naJN17irRVuNVf7vrvfcA7HcH3LFNQAEURPY4W3DW/GxDSd8tipdflQiUbJY3K5N2+U6+GHH071mFM70gbSBlpsXJ3Ue5cgfyhGQAJBoORWG6EGR0qSeox4Yw03QONyO8ZC7Xn7RbouHOVtOo/zLEau5RODM0bOl7jnzCNVU9rA/tpAzUHbi8MRBAENGCkz8DH4AYgxECPm6BjK8EVg/PaXh/1+/5m3vnmAmWM2gWKdd+QjL262a/i6Txr1/hp1tl223RI2cClwjNFpriwwlqPToBgLMFGONcCoRq60+GDArD5mqW2qVnmWqNzMIztp2sD+2sClwDE+IkGRefulVIsBRvMbxf3+91+fehEc7ePycn+XUostmMrb64XikM8991wCMuNOaQNHbAOXAkeK0MKVNuk7gFimRq7F/VrQss8Xdi4SjHFdAFbW/P7j/j7xU61l2y1hAxcOx5jXSI2NqUaQfOSRR1Yf+/VfHgXgHBgNsATgWunU+YAYAzSnKvVkcP+XqODMIztq2sB+2sCFw9GHJSgx8UKxxlItxrpPk4lHPv0XnxqFYwt4sU9M0gcqAnCxP1JgHFOefhPnFNMMgCpvfvNxPw06QZTttpQNXCgcA4xUIziavhNALFNw9NrgGNwCcq0UGC0ANzatB/SMcrfimc71pgw4RkwTHIF8qUrOfLLDpg3snw1cGBzBBWRedefrhgEO8As4gqElAGkdQL/1pb+edI2n4Ahw/l1CSyGCo99abnvAFZgB1LFGrId3vJ99NgF5xAH5BNr+AW3JNrsQOIZiPLl2ffXZe39idePGjeHtE3A0z5ELLTVCDZChHDeC49lEblCLUe2WAo2BllCHQOt4x3LnwRPMbVOg5mQCpJjpkhWeeR13h8v235/2XxyORqRBJsD4f2976Fw9+rjD8NvZ6HV87AEcAbMFtZZajH3gRg1SiwBnoUC9OQOWcZzUtv3lXEnHl+Xxu2MpSNOKAFK5clrP/hh0wifbaikbWBSO3oQBFGB84u43rIDxb++7d9i2H3S8Aig+KKXQANJItak81FsNtRJw9To4nv43wvJftd42CtlQj+V1ABlcqda4NiB+6id/fPX21752KB+Fu1SFZz7ZedMG9sMGFoUjqJxcubr6tbteP4ARHAEGGKmy+Kq3VwRjnZKj9kwMHxtQqaFYb4drLAXMgFx9nP1ASC1GbNK++nj/x0Y44N/efP8QEnB8fgx3Pww6wZPttJQNLAbHeEUQ6L730FsGOP73g28alN0wuHH2iTG/gw0QghdIhXvtN3Crodaz3YJc6zzHAbUyjLnxyguOyh/K1/E+krFUxWc+2YnTBnbbBhaBI2iAB3f6n3/qvnPVSHlRkj7oQClypcEQBClGkOLODueenAzbLaBdxD4u/tgriUbYQREcLUIE7oMyToPebYO+6PYROhJX95FmMzIMMvIqfETF218WXpAwEXsxGMm+/eO4iy5bmb9XdeO1XaEnA5/5cF/PdheBY7jT4nRcaQv1CJSgAojg6N8SiPcZCKHgXvLy03epqcVNFeOm4HS9qy99xQBqscgyH9D8uwfeOIDxW295YGV542tOjVxnKI0w19czuH2vL/CLh/k6KaBexr177XXoj2eDnnUZMzzUb69bwzHmM3pClmAElICjEeUhxvjtLw+jyzGdBjQ3mb5TgmxuvY4nxvH2c6uBsHw75nTQ5rYh3hhgLN1rIYCc3tNvYJcBhMu8hoejsEsNnbnty1JtBjfnypJvf/XZ71ZwNMXF4AV3mtIKxRhQCcU1wMebLGcDIrVSC2AtnbpeTPJu5R3qMUavHU/VUpRCAuV9AOQvvf51Q3yUC3WZHXLqWt5X94BaasmO09dxKLTz+bwjKq2E1GXA8Xwa3Ux5wH3KpvK3UxvYCo6hGt91553nqhFEAirWjVwzkvh/L4B0WXAcFGrj37qCIFhSrsoWAzP2+2TZO1756vN7KO/FA0A80jm7oh7FkspOuO06DyA7Rx8g1ZPYY0+dXwYcqdqesjhG7DTbebqdt4LjMPI8oRrP3dEYlPne114Q22upuSX3xdSgQUEWU3aoQ68ImmJkPa7pOCrXAEwJ+RKQ1CPjMjq/C8YlhvTiuZ7lvM/+dWAE2124r30qw+A9zai1hOM0iHaxvTeGI3cOJAAyYo0BkTIFGXMdxfZiIKaEkfWLGoxxTUqQMnRtsU/7QJFqdO0Ap9incpQj1eV9WHcv1KMwgn/GtUtvzlCy2sQoaa96cJwJ7tyx/H7l5p3X6PRcnV8GHKNPzpUlvYO+tt4YjoM7d+XqMB+wFWsMsJyrx2vXBzCBVcARtEAGqEAq9m+aBugCevIFbyrR1CGxRdeM3x3P9aYw7beAp4GkKH+dPg/7k8Gl2sUnXsw5zU7S1wm2bcOe0MZlwNF9+GbBXLsLh217z8dw/kZwpFIGV+7a9QEi4AgaNUhi228mVVNcpu8A0OCSn33ncRg02RKOIEcZAlyMgIOf6UOxBIApRMdxoRmS8/xmPuYbbn/V7L2YsmSK0q66oPEPzeY6iWkpx2DkF32PuwRHfXPKzd+VcNBFt8kS+W8ExxilE3+bUo0BRylAckm52FzXiJMNAzVn32RcVzHGSDSwWWKABXyNyFGL5RIutt9Pl9OJ5wFN4B6LN5b3QlnGwMwuudZhEFzkOTD6fZdG3aPs+5juEhyj/sSiQdLUM2GkCJ/E75nOexUbwXGYCFu41FOqsYSK4yzgYoRbB40RZaDbCI5nim/I5+yzZdxnUDwFxPMgpBDFHu2nXCMGCo6n+188+bssf6y7h9M46un/xdk1Q0s4zhv+km22i3Bc8v6ONa+N4Di4xNeuD3MBKceARm8KLsMreQZpPv/Z0bmIc9N+AqjA6HXAMpZoPdxn4LNwpcs8QzE6FkwBr+ceni//bn6QIuGYcDxWoC1532vD8Tyede16t0tdAwdchg86XLk6DIbEF3pq5Qhe4oL1/no7lF+oQb/bN7aU5zvm1B2/7fxjE3V56+2y/N5fXbJBlsgr4ZhwXMKOjj2PteEY0wVi4jdQ1PDo3Y64ne87tgZlAno+UGG9hFq97nfudLjMRqCdx5UWa7T43VKeS0mKNVKN69zL8FGNa9cH93zXjCjhmHDcNZvcx/KsDUdf+wCg+MhELwjr44BoGPWdca1BD+jArQeQVODz8cYXToDmenOtIx/p8PmyK1fPv8JTl3Nq23wxwe5de9vgVsDRKKn5kgYCxKR93d1i3cAPuzGdRdmW7Cjyc21fvXnmmWcm8/e7chixVS6L8ir3NgNrux5zjDpip+pp2y8ERX5R51N1p869uRNfLZKq84uY2uRaBou1b3k92/b7vSyr9bBVNlTb5dpwlJlpLKbmbBJvrGFDsYFWjDyXqq5cD5c5wFb+Vq7H7xFbLKf2OC5+l8YgTHxqbR3l6D5iUEml1xV7K7cZ7+lg1AsfDvU+BrRtOb0+t+7EczDpqTPz8ZQRZI22CmH44oxRWA8mMx6Mxpb3xT7Le1IXOoeHWHlcvS4fnbY8t3d9Gzi6pvswu6J3UdaoP50+6shk9LKO5NeqI/deQqK8z546r+uurjegUaa5Ovf7tl+5AnxtPnetKLO6Y0vqzRL7WwJnbTgObwNcuTpMy/FZshp262yD0enAzMnkwAyQxXcfS+VXQnGddfkZxDGdxyR0HQ3o1i17vDeukksDu9XrlwFHamvs01iML9RZGF8rBZWxTqoOe74wU+dbwjFCQPUxU9vgMlWmVttuA0cQmSrP2G8Bx55r13kAydg9jrVpnUe5XcKx913z8nz20qrXuX1TdRcQVD89drQIHN0I5Wg6zjZwBEbzHn0nMZ6cU+rxeaA9/y8O1gFiHCsfgKVEgfHuBx4aUvFPgBRL7FGQJdh37Y2Di4Yj8JXGXa4DUmnUjM7DpzymXKduWi6NPDx0BnubeW+5zC/guM5HGMrzrRMA5T3MrfcAasqNBDo2NDV5W7n8DkSlWwxGygsG9X2MbU/BUTnWrfOAo3TsmnP7o93m6trvwD4FPHVS5+OcqfLFw6Y8b23lOLhQV652Q6RWY6ACQINiPBvQACkqTrxwbOQa3EpAepsl9gX4xlLnWajPIcZ4cjIA8Y3veM/qXR/9zOrt7/vwsA3SYA38c4As4bita1A2yBLrFwnHKRCI57XKP6cmpjqr/Bi2zjPXwfzuuLoTALDX6npdL/nUkG/dV+ybqpMo8xQcIx8Pkji+TMGv1XnjvEhjPKA8t7U+V9/yY0ODl9jxYFLftYqLOm9df2xfTx0p21QYpwXGqB+pB3HrIcQTKo+z3vo7qXeWJw3vbl67PsBjDiAlGONYscqIF4VyA6kSkHMKUjzRIA2YAartAGCdAialCIqMwkI13n3P/QMUwbEEpLJZqNooc3kfse43A0qe2IyjrKNbvX5RcJxSjOpszFVTH2MdIvYDzFy99bw3HPlJddhalc6BOs7XAefKE78vBcca6lzcHihGOaQ9gOyBY+TZAknUUaSlamUjdZ2Xsb04p5X2uNdTebkvth9lH0vZaR0+aIXGag7anofjlatrx+fi1cH4os19P/2u1cOP//YAJnACyB95+enbLEabQU9csAQf0Bm1jik6PigRrwLa55yY8G3dNJ7TY07OoQiMwxSia9eHfcpRA9Ixyhn/RyaAWKbgGPHSY4DjXPxuzi3qAcgcCKY6Rt3ZpvLqzafu5GOdrefe5lRRXaZNbarnwbgOHHvDE4RK6e7XddUDbZCdg9uUauyFo7LV9dQKja0Nx9KtLmHRWgcQLvQwcHHt+qD0KLYSigEmKVBRkOBkhNL8QzdsH2DGP8UaVOaVq6efDrtxYzhe4zg23pmOzgKOH3r0kdU73nT6oVpgBDWw9m648x549FdWP/+bnxogqWyuH4AcU5AlHI/BrT6t2/HR79aTt+wgtSqK9ilTSq88p17n+pTHj61PddLIs1Q7Y/n0utbbwrFUsxT4FNij/FOpPMbuyX5tOaXyy7zLso3lqS5bAxplPtbHzi/3T917DbTyvFhvucd1OWK7fCC1QkJrwzEGZECjBcTYBx5caJABIEADoRKG5Tooif0ZIKEgg+Se3ow9OkY5v5KyC/CCnnjhX/7OhwbFGd9npDaHyeFn/09buUxBimlIygbKJSCBEsT9ZpDGOXFfkZZwjLJGpd/qtMeIGNMcjOI+3F8Y31g6ZdTy6VEO8o5rttI59er8OQUb+fbEMHvbdRs4lh2U8OiFVtxHK10Sjj113qtyp1Rf2NXUAwkL4rixFPh7Ho5Rb+Fet+5hbTgOQdqJSdOgYUBj+GL22UdhAS+UWQlE+0ARmMqFi00BqkwGqlK4JSqkhFtAzj7QHNzlK1cHlfj7v/reAYoUo8+QgbnjyxF255lnqXxxfYBWRuUCdMB1XEAxUvtiKs9cEDga4rLSpeEYBjRmkPa75tT9lRDYNJ+ejtoLx6n4aZSvpSZa97gpHMuHjn7VynuTfbsKx3rQJuq5TKc8kB44Rl7aZO6BrW71XV5q67prw5FRkdFg1IJGjEKHWowR4RqKIBRAGktBCyQpSR1UnuBWX9d2QE+5AA30Yl2ZAqRxHMg5D8RLOCqLsoGjpxAA1tcLQLqGxuhphE2MfNNzloTj2AhqGGGkc2XtAdtcXfbk0QvHHje/N1yyCRzr6wPa3ANmro7j912FY33PYTtlOqXWe+26zE9dgDLbWbd+14ZjKIAaGgACRjHgolAAswkUa1gOscgbNwbolXALSEXqNzFOwONyA+LwgYtr14ey1VN0lBk4azi6/qBer12f/BgFpQqgnmhhmLuQ9hpRj1tdqpvS6Op1ykfIhdq3mExtMcJs6Rn1lOdUzOhQ4DimWpdSj4cKR32rxzWvbbPcdn6vp7c2HCP2V7ubQAOY1B3YlG50y3WuAdizzc0dg6Prg584Z6hGxwYcrTsmQCoNOF554K0vUrGADPRgW54T667ld/O5dgGIZRmWhONYRy4Nbsl1ACzvpVw/BDjOxTpb7l1ZBz3rhwzHEGfb2hxRM6VS1XPrb3Iqz3nHO/sXCQELoAEmagocQzGCZA/4eo4BozE4RjkCiCBNFXLJhQHEHAN0yhoLlRkDMmUZDMj4zXGRd6Rxr94U6pmb1WPQSx5z3kYzE3h7lOMQY57Jh6HKa9sFOKaC6fsMR6JCbKunU2/riRwyHPUTHklPPfYcw6vRX1r9b204ymQI0DfmAVJT4EjhlS51CZ1t1im82jUOYElBK9xqZQQuQfWIk4KZ0WcKFzgtRtNbZXIfY3FV15GHyu8N2rcqv2cfFwCgKFTA5xbMxcKWhGOvG9NzL9ses89w1H49ndUx6nybujp0OLLv3jBNT53rV60H0kZwDNiAS62suLQuVg7E9Ay+tABV75Ona7bUo3IAJ3cfGA2SUCEGFNy4jkXZAPcvfuC3Vu/53T8eFCNlWStH13EP8ivhG+uu5Toq/iIHY5R3rHE98camfSwJx17luE1n7j13n+GoHdfp0Ns8dA8djuyF7Q/TCju8mrE+VO7Xn2o73AiOYaRAGMAI5UZtUV0UWbjWS8UcQUve9TXBikvPfXaTbppxAaNKBBnA4NqY1vOJp792voAkQJYgFhZwbzX44x656Fx891hX6FLbFGPZeK11blrrekvCcQrQZZl6JgG3yrrOvrC78rr1+q6OVkf4pfeNE/e1aZ0eAxzDbsQg13no1PZSbteDgRvBEXCGAl27/qJ3kKkt4Chd6yXjjq+8857z1/q40AZcuMoCrB/+xGcG6AGk61N18YRRmZQkxVfC8SN//tTwLnUJxzmXmnoFYuCIRlo67W1w91dfm1IuG31snQdQn1tv93Zm4KrPXXp7n+FYvj7YGzNrqZmeOj0mOEZ96OvsubfftPpELTY2gqMCDYriytXBzS0VlnWw4pZyV6nHdeFIIZawKtflCXAGSwYjuHZ99bY3PbQCuYCedWqwVhEq0LFxnHTIr7iea4M7dVjeV6lWKUaVWxp8NNISKcXQarzWvpZb33v+3Gide4nZCa1rl/tabxgsURdlHocCx96Hl/qdiy+X9RPrhwpHsVgPljlFTQSpt954edixz6BFHUpbf5Oj1XGyTinTlpvLxQUYI77hWpeAm1vXuFNxSm6v6wpy10owwCeuqHzKyc2UgtnPvft953DkUsurLI9teZYwjHWwjKlBnlBRF0unUbfRaFNpa3S39/zWufW99Lro4rz1uUtvHwoc1Uvv/FFt39NOZV0fKhyjH6zjsXkQUZRx7lRa9+mN4agxhvjelasvGtXl7lJXXNuY7zgFuxJO1sMln4tVUofhSgcUy9TvKoYheiroXKAZx4BrfW3QbQ00RbxRLFIFbxMwLw25td4LN+Vond8zF6w2hFY+sa93Cso2Slob1W5NXD/SQ4Kje+odUFj3wXOocBQ6C7jNqcewmUg9YOLcsbSu563gGMZKacUcwoBITAgHRepxHTgCK6hOueOh8AJ0rRQIATIqEtDe/5HfG+Dot9Yotek+LZe6VI3K14r1RUNsm27rFs9NNGYc68C9F9a1W9JbD2X+U3mEvY0Zt/11KGWsDD2vsvW6tJu8Pqhc67jX64QtDhWO5XSoTaY7zYmGGDQLm9kKjjJpqcdzkFy5ej6lZ04FlgpOJczC8Z77B4UJzAG8GpBij1df+orzj9FSkZRmaxDG9QO4dazRtiVUY2+niUreJJ0z8DGVBdoGi6YA4vd1y9QDANdcpxMrA7VZlnXq1a6e+Oc+wdH9r+Nee4j0tNuc7VBgvQ/3ngdSb5v3PJDUx9g9UnalrazbD+dERy0YtobjucE2XrUr445TKrAE4wCpe+6fhWPAjAtOHY5BUgCXC+kprYMDqFhoa9DHIFJM/A4gUsSUJFebqlzHHR1r5J79U4Y09Q5uT3yFwfeUoTxGZyqf3KWR1uu9gGKM5bnKXl6zXu/pqNq4Pq+1PVW/UabeTt8zF7SeJlKWqXf0utf22HHcw1iqP5RlGFufU1vy740B9tjmFPBa9TQF0/qe5lzr+oGxNRwVgHFQI+XrdqG0yrhjDcGxbQpuTjnGuSDn+BKSXOYYvZZqQB1R5frN8XF+pFxsMI+J3waVhAaGkWkf1j05Ge7Rdv2EqRthie2xgZApQ+yBx5TxzZV77slbdkTqRFlBgVHqjM6nfpRBRy+P7wFqT+eimmojb91XjxLuhVHPQ2Oq3eY6bVlPUw9G91mGKMrz6vW5B1HUWU+82f3H8VNpC251uRwzlsdYjLb3ITb1QGxBdhE4MvrBlSu+YgOO1JanWLxKGCCaS9eBY+QVkAQvStJi2g43WsrQfRVc54lzytR+bjPlOADx2vVz91SjeIKq3AgKb6K+xhp9bP+5Ki/eAmh1MjCYavgwwCWgrq1r9yby3zSdMu6YaeC+e/PXWbVXrY7Uk/L31FVci93oOM6LdpKPcgkBrDNdBNjYjXMjr0h7wB9lcn/aUpmUJe5LOcM+49ipFIha9aR8wh0eWFPnl7+pp1ZeUbZ17o99uZe6/aYUuvDeVNih1Zei/GMPikXgqIHdzHCxM/UFjtSXxuoZlCnnG3J7e5VjCTjrJSRDTYKdxbbrxALCFsY2/O7z8mcq0bZKqys8nsybTtCNztCbthqVITJcy5TBROM7vr6P3uuPHbeOsUc56nSuXD1vCdV51tsl1OZicfW59TYbVx9jCqY+fmq77vggMhcrbuWnLJucV+cV9XTej4sHcn3s3HbYjHuaO3bu9zIGXarYMeXvYcU2gdriQTjVXtGmUeYyXQyOMlVgDUWBRayOqwpYcyPWjgEvsJJSmxb7LTXQAJSxU6YAXC/2BxTrVP6xKK9zHWNd5daqUCOXlRZP1KWBU16jXPckj2vOGVP5uycwAynzWnJdB2eI60LHg6U0+rEyBRy15SaLuohO7xrqQ1tvmld0JA8ktrJJPs5xbg1H5dNWytybr3tRFg+ZTe8ryhP1tG4Z6rIqf7SnfsM2Ni2bvMq+GH0g3Hh1CH7u37G9izKx27pfR7kjXRSOLja4XGdfvwFIlQds4Dg1Yh1wBC2gCvBxj+ubNgLtOp4IgGzxVFF53C/bpoTIy7kaZ8jzLO+ApU6qkhzvOOdHxUh1BvnqpGVFhpprubjl+UuvMwbGq5zKXteLOlFeMT1xrKWvP5WfBwVXT9l0WC6b8iindrJffUYnnMqr/E29b7NcRF7blCfOLctVrsfvvalze4+dOm6bMtT5XlRebBosW7ZtX9gf2wNMDAFS2/oFkK4zF3dROKoUHRiMuKcGaIwiU4NTcHAvVbQAAAXmSURBVAzXlhq0gJf4IBUHQDqVStGxNERZ+XPrKk0eIM1Vj3KArk4b57tmwM49BDjj9zJVBsdrgHJ/rt/M+riZdXAo/WBxOKqYiMsBEoig91QMMaAFXBYqcptR1bJxANUTBbAjf9ejKsEtYEtBgrFtcOTKxpOKUqyfVo6l3Or95bVzPUGRNrC/NnAhcGQQACm2Em7yFBxjUMXATbxJU7u4mxoZeHFFlQUclcM1SG5wi5FDyhTIw+1zHsVqcT45HiBVFjB1PvBuWrY8b387Trbd4bfdhcGR8QAM1QiQPXAMSFKO4gRLGKAyiBmCY+Qv5b6Xyg8kbfcOsoCm40FyiXJmHoff2bKN96uNLxSOjEEgVHxvXThScUsYEzhShdzqFhypwrgO2DnWdszzisGecpADSGMkNeKUkUem+9UBsr2yvcZs4MLhGO6nkWqALAE1tU7plW7s2A3M7QdHMUOwLa9nEAgMS7fYNkU4d91Qo3H8XBny9+yAaQP7ZwMXDsd4G0Gcbx04npzctshgB5BRgUa/SziaXkTRhvITawTQUIjOqxcud+yL++p1w7Nz7F/nyDY77ja7cDiCDYW1Lhxf8vI7BsW3rYGCGYAZmRbLDECCo1io2CYwWszLA0suM3fbQklaYlAm8nOsZdvy5fnH3QGz/Xe3/S8cjsACjsA0NQk8oBWp/xWzxHSeUHpA1oIjaHKtYyK4ssYCnuZCCg24D5DlotvnmDJemUa+u0aebZNts4kNXDgcDXAACdAYIabYAoBTqZigwZxNbqo8BxypQpO6SzhaVyaL8sUbHIAHgI7nZiuD38CTygxw2i6vk+vZAdMGDssGLhyOBjdM5wlAgpHtElQtSIKoidbbGlwoR3kBrnzjjZwAo2Pq65gITlFSjV6Hc75UrBE86+Nz+7A6RrZntueFw5GRASS3lBoDSdNqgGlKSYayi0namxor1Qh+wBaqLyanc6mXcN03LVuelx0wbWB3beBS4FgagJHjiNkFJLmv1FytJsEM3Mrz110POHKPAZLbTBHKOydw765hrtvOeXy25dI2cOlwjBswuBGDIKHkqMkBlGcfoACwbQc9Ao5GocHQNrc44ZidKWwx07SFlg3cMjhGYcAKtHxiDCRBKxbKctt3rAOOrmGJGCSXeokBn7iPTLODpQ0clg3ccjiWBhWqjlq0gKTBm/KYddcNrACigRTq0brrGGARA103vzz+sDpAtme255gN7BQc60LGAA7A1b/1bhvQCThSoaEcgRJ8tx3w6S1HHpedMG1gv2xgp+EYr+jFxyA2MS4j5QFHMc6AY7y5s03em5Qnz9mvDpLtdbzttdNwNGhD3VF52xgpIBqhNkoeMch4c2fbAZ9typXnHm/Hy7bf/bbfaThSfQZOtn2HGRzBUJyRUrQe04kSjrtvpAmSbKNbYQM7DUcVIk5IPQLcphVELcYATzkiboQcgDfNN8/LTps2cLg2sPNwjHezucWbGiI4hotOiYplZqzxcI16UzvJ89ImShvYeTgqLOW46b9NiKk8lKcJ5tRiWQG5nh0ibSBtoGUDewHHmHbDxeYe97jYoBiDL96IEWekGredN9mqxNyXnStt4PBsYC/g6H1s6rFcvD1DBXpfGjxNzbF4CwZETdsx6AKGZZwxPzV2eEacYMo2vQgb2As4unExR2CLz4yVoOxdB84cgMmOdBEdKfM8PLvaGziWxsdd5irHvzOgGA2ySEGUC839NuhiIMbx5fm5fniGnG2abbq0DewlHJeuhMwvO1baQNpAbQMJx5tpFLVR5HbaRNrAzRYbVyf13qyo7CxpA2kDx2YDNQdtJxxTTWaMNm3g6G0g4Zid4Og7wbEporzfPi8g4ZhwTDimDaQNNGwg4diolHyy9j1Zs56yng7ZBhKOCcdUDWkDaQMNG0g4NirlkJ+GeW+p9tIG+mwg4ZhwTNWQNpA20LCBhGOjUvLJ2vdkzXrKejpkG0g4JhxTNaQNpA00bCDh2KiUQ34a5r2l2ksb6LOBFhz/H/Qdq7wY536+AAAAAElFTkSuQmCC;" vertex="1" parent="1">
          <mxGeometry x="360" y="90" width="327" height="141" as="geometry" />
        </mxCell>
      </root>
    </mxGraphModel>
  </diagram>
</mxfile>
